%TF.GenerationSoftware,KiCad,Pcbnew,9.0.1*%
%TF.CreationDate,2025-05-08T12:46:30+02:00*%
%TF.ProjectId,Topper_Final_PCB,546f7070-6572-45f4-9669-6e616c5f5043,rev?*%
%TF.SameCoordinates,Original*%
%TF.FileFunction,Profile,NP*%
%FSLAX46Y46*%
G04 Gerber Fmt 4.6, Leading zero omitted, Abs format (unit mm)*
G04 Created by KiCad (PCBNEW 9.0.1) date 2025-05-08 12:46:30*
%MOMM*%
%LPD*%
G01*
G04 APERTURE LIST*
%TA.AperFunction,Profile*%
%ADD10C,0.100000*%
%TD*%
G04 APERTURE END LIST*
D10*
X163445249Y-95745156D02*
G75*
G02*
X162625563Y-95525582I-300049J519656D01*
G01*
X135733344Y-95525552D02*
G75*
G02*
X134913714Y-95745224I-519644J299952D01*
G01*
X162625633Y-95525541D02*
X162375633Y-95092527D01*
X148329492Y-122981927D02*
X148329492Y-118981930D01*
X166909349Y-93745158D02*
X163445249Y-95745157D01*
X135763690Y-94272888D02*
G75*
G02*
X135983305Y-95092503I-299990J-519612D01*
G01*
X162375633Y-95092527D02*
G75*
G02*
X162595236Y-94272896I519567J300027D01*
G01*
X166909349Y-93745158D02*
G75*
G02*
X150029492Y-122981921I-17729849J-9254842D01*
G01*
X148329492Y-118981930D02*
G75*
G02*
X148929492Y-118381892I600008J30D01*
G01*
X163445249Y-95745156D02*
X163445249Y-95745157D01*
X150029492Y-118981929D02*
X150029492Y-122981926D01*
X132299636Y-92272915D02*
G75*
G02*
X166059348Y-92272915I16879856J-10727080D01*
G01*
X162595247Y-94272915D02*
X166059349Y-92272915D01*
X148929492Y-118381929D02*
X149429492Y-118381929D01*
X135983350Y-95092529D02*
X135733344Y-95525552D01*
X148929492Y-118381930D02*
X148929492Y-118381929D01*
X134913748Y-95745165D02*
X131449635Y-93745158D01*
X148329492Y-122981927D02*
G75*
G02*
X131449641Y-93745161I850008J19981927D01*
G01*
X132299636Y-92272915D02*
X135763690Y-94272888D01*
X149429492Y-118381929D02*
G75*
G02*
X150029471Y-118981929I8J-599971D01*
G01*
M02*
