%TF.GenerationSoftware,KiCad,Pcbnew,9.0.1*%
%TF.CreationDate,2025-05-09T15:01:24+02:00*%
%TF.ProjectId,Freilab_Blinkies,46726569-6c61-4625-9f42-6c696e6b6965,rev?*%
%TF.SameCoordinates,Original*%
%TF.FileFunction,Legend,Top*%
%TF.FilePolarity,Positive*%
%FSLAX46Y46*%
G04 Gerber Fmt 4.6, Leading zero omitted, Abs format (unit mm)*
G04 Created by KiCad (PCBNEW 9.0.1) date 2025-05-09 15:01:24*
%MOMM*%
%LPD*%
G01*
G04 APERTURE LIST*
%ADD10C,0.300000*%
%ADD11C,0.150000*%
%ADD12C,0.100000*%
%ADD13C,0.000000*%
G04 APERTURE END LIST*
D10*
X194867471Y-102374507D02*
X193724614Y-102374507D01*
X194296042Y-102945935D02*
X194296042Y-101803078D01*
X209804143Y-111898586D02*
X208661286Y-111898586D01*
X209232714Y-112470014D02*
X209232714Y-111327157D01*
X189945489Y-121729400D02*
X188802632Y-121729400D01*
X189374060Y-122300828D02*
X189374060Y-121157971D01*
D11*
X200225892Y-124760927D02*
X200075363Y-124765040D01*
X200075363Y-124765040D02*
X199851627Y-124846473D01*
X199851627Y-124846473D02*
X199778419Y-124923794D01*
X199778419Y-124923794D02*
X199749959Y-124984828D01*
X199749959Y-124984828D02*
X199737785Y-125090609D01*
X199737785Y-125090609D02*
X199770358Y-125180103D01*
X199770358Y-125180103D02*
X199847679Y-125253311D01*
X199847679Y-125253311D02*
X199908713Y-125281772D01*
X199908713Y-125281772D02*
X200014494Y-125293946D01*
X200014494Y-125293946D02*
X200209770Y-125273546D01*
X200209770Y-125273546D02*
X200315551Y-125285720D01*
X200315551Y-125285720D02*
X200376585Y-125314181D01*
X200376585Y-125314181D02*
X200453905Y-125387389D01*
X200453905Y-125387389D02*
X200486479Y-125476883D01*
X200486479Y-125476883D02*
X200474305Y-125582664D01*
X200474305Y-125582664D02*
X200445844Y-125643698D01*
X200445844Y-125643698D02*
X200372636Y-125721019D01*
X200372636Y-125721019D02*
X200148900Y-125802452D01*
X200148900Y-125802452D02*
X199998371Y-125806565D01*
X199701427Y-125965319D02*
X199135671Y-125107060D01*
X199135671Y-125107060D02*
X199200982Y-125843416D01*
X199200982Y-125843416D02*
X198777693Y-125237353D01*
X198777693Y-125237353D02*
X198895976Y-126258479D01*
X197703758Y-125628233D02*
X198240726Y-125432793D01*
X197972242Y-125530513D02*
X198314262Y-126470206D01*
X198314262Y-126470206D02*
X198354897Y-126303391D01*
X198354897Y-126303391D02*
X198411818Y-126181323D01*
X198411818Y-126181323D02*
X198485026Y-126104002D01*
D12*
X208486138Y-114494977D02*
X207546445Y-114152957D01*
X207546445Y-114152957D02*
X207627878Y-113929221D01*
X207627878Y-113929221D02*
X207721486Y-113811266D01*
X207721486Y-113811266D02*
X207843553Y-113754344D01*
X207843553Y-113754344D02*
X207949335Y-113742171D01*
X207949335Y-113742171D02*
X208144610Y-113762570D01*
X208144610Y-113762570D02*
X208278852Y-113811430D01*
X208278852Y-113811430D02*
X208441555Y-113921324D01*
X208441555Y-113921324D02*
X208514762Y-113998645D01*
X208514762Y-113998645D02*
X208571684Y-114120712D01*
X208571684Y-114120712D02*
X208567571Y-114271241D01*
X208567571Y-114271241D02*
X208486138Y-114494977D01*
X207855892Y-113302759D02*
X208067618Y-112721045D01*
X208067618Y-112721045D02*
X208311590Y-113164569D01*
X208311590Y-113164569D02*
X208360450Y-113030327D01*
X208360450Y-113030327D02*
X208437771Y-112957119D01*
X208437771Y-112957119D02*
X208498804Y-112928659D01*
X208498804Y-112928659D02*
X208604586Y-112916485D01*
X208604586Y-112916485D02*
X208828322Y-112997918D01*
X208828322Y-112997918D02*
X208901530Y-113075239D01*
X208901530Y-113075239D02*
X208929990Y-113136273D01*
X208929990Y-113136273D02*
X208942164Y-113242054D01*
X208942164Y-113242054D02*
X208844444Y-113510537D01*
X208844444Y-113510537D02*
X208767124Y-113583745D01*
X208767124Y-113583745D02*
X208706090Y-113612206D01*
X186565328Y-119328158D02*
X186907348Y-118388465D01*
X186907348Y-118388465D02*
X187131084Y-118469898D01*
X187131084Y-118469898D02*
X187249039Y-118563506D01*
X187249039Y-118563506D02*
X187305961Y-118685573D01*
X187305961Y-118685573D02*
X187318134Y-118791355D01*
X187318134Y-118791355D02*
X187297735Y-118986630D01*
X187297735Y-118986630D02*
X187248875Y-119120872D01*
X187248875Y-119120872D02*
X187138981Y-119283575D01*
X187138981Y-119283575D02*
X187061660Y-119356782D01*
X187061660Y-119356782D02*
X186939593Y-119413704D01*
X186939593Y-119413704D02*
X186789064Y-119409591D01*
X186789064Y-119409591D02*
X186565328Y-119328158D01*
X187769720Y-118803693D02*
X187830754Y-118775232D01*
X187830754Y-118775232D02*
X187936535Y-118763058D01*
X187936535Y-118763058D02*
X188160271Y-118844492D01*
X188160271Y-118844492D02*
X188233479Y-118921812D01*
X188233479Y-118921812D02*
X188261940Y-118982846D01*
X188261940Y-118982846D02*
X188274114Y-119088628D01*
X188274114Y-119088628D02*
X188241540Y-119178122D01*
X188241540Y-119178122D02*
X188147933Y-119296077D01*
X188147933Y-119296077D02*
X187415526Y-119637604D01*
X187415526Y-119637604D02*
X187997240Y-119849331D01*
X192037135Y-103817723D02*
X192379155Y-104757416D01*
X192379155Y-104757416D02*
X192155419Y-104838849D01*
X192155419Y-104838849D02*
X192004891Y-104842962D01*
X192004891Y-104842962D02*
X191882823Y-104786040D01*
X191882823Y-104786040D02*
X191805502Y-104712833D01*
X191805502Y-104712833D02*
X191695608Y-104550130D01*
X191695608Y-104550130D02*
X191646748Y-104415888D01*
X191646748Y-104415888D02*
X191626349Y-104220613D01*
X191626349Y-104220613D02*
X191638523Y-104114831D01*
X191638523Y-104114831D02*
X191695444Y-103992764D01*
X191695444Y-103992764D02*
X191813399Y-103899156D01*
X191813399Y-103899156D02*
X192037135Y-103817723D01*
X190605223Y-104338896D02*
X191142190Y-104143456D01*
X190873706Y-104241176D02*
X191215726Y-105180869D01*
X191215726Y-105180869D02*
X191256361Y-105014054D01*
X191256361Y-105014054D02*
X191313282Y-104891986D01*
X191313282Y-104891986D02*
X191386490Y-104814665D01*
D13*
%TO.C,G\u002A\u002A\u002A*%
G36*
X198333893Y-110796139D02*
G01*
X198411016Y-110811385D01*
X198481992Y-110840782D01*
X198547878Y-110885017D01*
X198609738Y-110944776D01*
X198658410Y-111006137D01*
X198666575Y-111017730D01*
X198674141Y-111029182D01*
X198681607Y-111041729D01*
X198689473Y-111056615D01*
X198698240Y-111075075D01*
X198708404Y-111098352D01*
X198720467Y-111127684D01*
X198734927Y-111164312D01*
X198752284Y-111209475D01*
X198773039Y-111264412D01*
X198797688Y-111330364D01*
X198826734Y-111408569D01*
X198860674Y-111500269D01*
X198896222Y-111596458D01*
X199093228Y-112129671D01*
X198966100Y-112175941D01*
X198838972Y-112222212D01*
X198813439Y-112159240D01*
X198787907Y-112096268D01*
X198728729Y-112168458D01*
X198690302Y-112214767D01*
X198659057Y-112250544D01*
X198631864Y-112278647D01*
X198605590Y-112301939D01*
X198577108Y-112323280D01*
X198543285Y-112345532D01*
X198517448Y-112361537D01*
X198436933Y-112406004D01*
X198355339Y-112442181D01*
X198276682Y-112468497D01*
X198206907Y-112483124D01*
X198118276Y-112488900D01*
X198033258Y-112482605D01*
X197953989Y-112464917D01*
X197882604Y-112436512D01*
X197821239Y-112398066D01*
X197772028Y-112350254D01*
X197766977Y-112343836D01*
X197732353Y-112288039D01*
X197703480Y-112221208D01*
X197702982Y-112219543D01*
X197681781Y-112148533D01*
X197668678Y-112075209D01*
X197666057Y-112016866D01*
X197940936Y-112016866D01*
X197948550Y-112072022D01*
X197966865Y-112123497D01*
X197993877Y-112166965D01*
X198023545Y-112195367D01*
X198068391Y-112219004D01*
X198123460Y-112235411D01*
X198183102Y-112243157D01*
X198213179Y-112243323D01*
X198260749Y-112236923D01*
X198315859Y-112222447D01*
X198372536Y-112201983D01*
X198424815Y-112177618D01*
X198458137Y-112157636D01*
X198509160Y-112117962D01*
X198558283Y-112071306D01*
X198602927Y-112020830D01*
X198640507Y-111969698D01*
X198668446Y-111921075D01*
X198683337Y-111881583D01*
X198694147Y-111838665D01*
X198640681Y-111683655D01*
X198587215Y-111528646D01*
X198411500Y-111597686D01*
X198332128Y-111629648D01*
X198266249Y-111658128D01*
X198211188Y-111684568D01*
X198164269Y-111710416D01*
X198122815Y-111737119D01*
X198084150Y-111766122D01*
X198055749Y-111789925D01*
X198010679Y-111837213D01*
X197975314Y-111890736D01*
X197951518Y-111946805D01*
X197941161Y-112001732D01*
X197940936Y-112016866D01*
X197666057Y-112016866D01*
X197665588Y-112006427D01*
X197667574Y-111980511D01*
X197677995Y-111934456D01*
X197697748Y-111881498D01*
X197724306Y-111826784D01*
X197755145Y-111775460D01*
X197787737Y-111732672D01*
X197790978Y-111729080D01*
X197841220Y-111678445D01*
X197895579Y-111632108D01*
X197956085Y-111588860D01*
X198024768Y-111547492D01*
X198103662Y-111506796D01*
X198194796Y-111465565D01*
X198300201Y-111422590D01*
X198317618Y-111415823D01*
X198516740Y-111338886D01*
X198496068Y-111282275D01*
X198463073Y-111204939D01*
X198425990Y-111143201D01*
X198384044Y-111096083D01*
X198336464Y-111062605D01*
X198314378Y-111052281D01*
X198287648Y-111041968D01*
X198264281Y-111035055D01*
X198241626Y-111031900D01*
X198217031Y-111032864D01*
X198187846Y-111038307D01*
X198151419Y-111048587D01*
X198105100Y-111064064D01*
X198046237Y-111085099D01*
X198030648Y-111090761D01*
X197974353Y-111111285D01*
X197931594Y-111127180D01*
X197900019Y-111139578D01*
X197877272Y-111149614D01*
X197860999Y-111158422D01*
X197848845Y-111167135D01*
X197838456Y-111176886D01*
X197827825Y-111188422D01*
X197792886Y-111236681D01*
X197770961Y-111290644D01*
X197761196Y-111353052D01*
X197761100Y-111402443D01*
X197763527Y-111453281D01*
X197632781Y-111500869D01*
X197502034Y-111548457D01*
X197487366Y-111492509D01*
X197472477Y-111406673D01*
X197473940Y-111325126D01*
X197491754Y-111247868D01*
X197525920Y-111174900D01*
X197576437Y-111106221D01*
X197643306Y-111041833D01*
X197726526Y-110981734D01*
X197826096Y-110925927D01*
X197942017Y-110874409D01*
X197990184Y-110856019D01*
X198066102Y-110829668D01*
X198130815Y-110810826D01*
X198187940Y-110798863D01*
X198241088Y-110793150D01*
X198293874Y-110793057D01*
X198333893Y-110796139D01*
G37*
G36*
X199138887Y-110255574D02*
G01*
X199165327Y-110327897D01*
X199190086Y-110395007D01*
X199212557Y-110455301D01*
X199232130Y-110507174D01*
X199248196Y-110549022D01*
X199260149Y-110579240D01*
X199267380Y-110596224D01*
X199269273Y-110599402D01*
X199275229Y-110591965D01*
X199288099Y-110572905D01*
X199306029Y-110545056D01*
X199327161Y-110511247D01*
X199328560Y-110508978D01*
X199374465Y-110439972D01*
X199419102Y-110385016D01*
X199464852Y-110341654D01*
X199514100Y-110307429D01*
X199535572Y-110295614D01*
X199628581Y-110256680D01*
X199723281Y-110234102D01*
X199818473Y-110227581D01*
X199912958Y-110236816D01*
X200005539Y-110261509D01*
X200095013Y-110301358D01*
X200180184Y-110356065D01*
X200259853Y-110425330D01*
X200319272Y-110491583D01*
X200374535Y-110570763D01*
X200424231Y-110662869D01*
X200467101Y-110764475D01*
X200501882Y-110872161D01*
X200527318Y-110982505D01*
X200542145Y-111092081D01*
X200542658Y-111098398D01*
X200544301Y-111159728D01*
X200541092Y-111229285D01*
X200533679Y-111300174D01*
X200522705Y-111365503D01*
X200514420Y-111400105D01*
X200484755Y-111482924D01*
X200443930Y-111560915D01*
X200394063Y-111631058D01*
X200337278Y-111690331D01*
X200280936Y-111732549D01*
X200254822Y-111746126D01*
X200216922Y-111762697D01*
X200171708Y-111780626D01*
X200123653Y-111798272D01*
X200077231Y-111813999D01*
X200036911Y-111826169D01*
X200007168Y-111833144D01*
X200005511Y-111833409D01*
X199928291Y-111837863D01*
X199841311Y-111829366D01*
X199787045Y-111818589D01*
X199705375Y-111799629D01*
X199720243Y-111847836D01*
X199735111Y-111896044D01*
X199604433Y-111943607D01*
X199473756Y-111991170D01*
X199229873Y-111321107D01*
X199112387Y-110998316D01*
X199062840Y-110862187D01*
X199372932Y-110862187D01*
X199373415Y-110872748D01*
X199376020Y-110887501D01*
X199381228Y-110907912D01*
X199389518Y-110935447D01*
X199401371Y-110971570D01*
X199417268Y-111017748D01*
X199437686Y-111075447D01*
X199463107Y-111146132D01*
X199491986Y-111225706D01*
X199612549Y-111556950D01*
X199660736Y-111578178D01*
X199694559Y-111589350D01*
X199740401Y-111599369D01*
X199793383Y-111607611D01*
X199848625Y-111613445D01*
X199901248Y-111616244D01*
X199946374Y-111615382D01*
X199948582Y-111615213D01*
X199992866Y-111607512D01*
X200044902Y-111591669D01*
X200064393Y-111584275D01*
X200101362Y-111568488D01*
X200128260Y-111553683D01*
X200151187Y-111535904D01*
X200174809Y-111512694D01*
X200219011Y-111455033D01*
X200250078Y-111387825D01*
X200268044Y-111310815D01*
X200272942Y-111223748D01*
X200264806Y-111126368D01*
X200243669Y-111018419D01*
X200240814Y-111006927D01*
X200210201Y-110905874D01*
X200171695Y-110811675D01*
X200126373Y-110725717D01*
X200075312Y-110649385D01*
X200019590Y-110584063D01*
X199960283Y-110531136D01*
X199898469Y-110491990D01*
X199835225Y-110468009D01*
X199818950Y-110464479D01*
X199796542Y-110461293D01*
X199775915Y-110461304D01*
X199752411Y-110465215D01*
X199721369Y-110473728D01*
X199688656Y-110484101D01*
X199630516Y-110505223D01*
X199584649Y-110527851D01*
X199546506Y-110555156D01*
X199511535Y-110590304D01*
X199480783Y-110628880D01*
X199453052Y-110670170D01*
X199426721Y-110716626D01*
X199403691Y-110764139D01*
X199385863Y-110808600D01*
X199375133Y-110845902D01*
X199372932Y-110862187D01*
X199062840Y-110862187D01*
X198751018Y-110005463D01*
X198882074Y-109957762D01*
X199013131Y-109910062D01*
X199138887Y-110255574D01*
G37*
G36*
X191104325Y-113067478D02*
G01*
X191199726Y-113329591D01*
X190739042Y-113497267D01*
X190278358Y-113664942D01*
X190314495Y-113764227D01*
X190350632Y-113863512D01*
X190747773Y-113718964D01*
X191144915Y-113574417D01*
X191243207Y-113844473D01*
X191341500Y-114114530D01*
X190945605Y-114258623D01*
X190549711Y-114402717D01*
X190592655Y-114536941D01*
X190611006Y-114593013D01*
X190633054Y-114658390D01*
X190656562Y-114726544D01*
X190679292Y-114790952D01*
X190689611Y-114819564D01*
X190709628Y-114875512D01*
X190730131Y-114934481D01*
X190749361Y-114991299D01*
X190765560Y-115040793D01*
X190773577Y-115066413D01*
X190803531Y-115164864D01*
X190530724Y-115264157D01*
X190257917Y-115363451D01*
X189890766Y-114354711D01*
X189523615Y-113345973D01*
X190266269Y-113075669D01*
X191008923Y-112805365D01*
X191104325Y-113067478D01*
G37*
G36*
X192539618Y-112315045D02*
G01*
X192596602Y-112320555D01*
X192651961Y-112328571D01*
X192699710Y-112338465D01*
X192713183Y-112342155D01*
X192768207Y-112364401D01*
X192827835Y-112398550D01*
X192888404Y-112441753D01*
X192946256Y-112491166D01*
X192997730Y-112543940D01*
X193036960Y-112593968D01*
X193060302Y-112633470D01*
X193084676Y-112683794D01*
X193108343Y-112740335D01*
X193129566Y-112798492D01*
X193146604Y-112853658D01*
X193157721Y-112901228D01*
X193160573Y-112921325D01*
X193162827Y-112993129D01*
X193156981Y-113068018D01*
X193143916Y-113141746D01*
X193124511Y-113210069D01*
X193099645Y-113268742D01*
X193082692Y-113297225D01*
X193065893Y-113321670D01*
X193169445Y-113419088D01*
X193222546Y-113471165D01*
X193276272Y-113528376D01*
X193333291Y-113593682D01*
X193396270Y-113670046D01*
X193403867Y-113679487D01*
X193470511Y-113762238D01*
X193527827Y-113832859D01*
X193576845Y-113892581D01*
X193618588Y-113942639D01*
X193654086Y-113984264D01*
X193684366Y-114018691D01*
X193707555Y-114044058D01*
X193752052Y-114091690D01*
X193448552Y-114202030D01*
X193145054Y-114312370D01*
X193086243Y-114232706D01*
X193062068Y-114200928D01*
X193030584Y-114160999D01*
X192993628Y-114115113D01*
X192953031Y-114065461D01*
X192910628Y-114014239D01*
X192868255Y-113963639D01*
X192827743Y-113915854D01*
X192790927Y-113873078D01*
X192759643Y-113837505D01*
X192735722Y-113811327D01*
X192723866Y-113799319D01*
X192677105Y-113761926D01*
X192630737Y-113739114D01*
X192582345Y-113729164D01*
X192565338Y-113728079D01*
X192549374Y-113728505D01*
X192531719Y-113731151D01*
X192509642Y-113736728D01*
X192480411Y-113745945D01*
X192441296Y-113759511D01*
X192389563Y-113778137D01*
X192378621Y-113782111D01*
X192221722Y-113839130D01*
X192351815Y-114196557D01*
X192481908Y-114553984D01*
X192207881Y-114653722D01*
X191933853Y-114753460D01*
X191566702Y-113744721D01*
X191433914Y-113379889D01*
X191314860Y-113052790D01*
X191935518Y-113052790D01*
X191981969Y-113180413D01*
X192028420Y-113308036D01*
X192259620Y-113220376D01*
X192334942Y-113191547D01*
X192395559Y-113167710D01*
X192442737Y-113148329D01*
X192477747Y-113132863D01*
X192501856Y-113120774D01*
X192516332Y-113111522D01*
X192517084Y-113110911D01*
X192538084Y-113089724D01*
X192554792Y-113066670D01*
X192556234Y-113064012D01*
X192561966Y-113050555D01*
X192563559Y-113036986D01*
X192560442Y-113019032D01*
X192552041Y-112992428D01*
X192543409Y-112968285D01*
X192528504Y-112929953D01*
X192515010Y-112905023D01*
X192499568Y-112890684D01*
X192478810Y-112884123D01*
X192449376Y-112882527D01*
X192440921Y-112882568D01*
X192426387Y-112883712D01*
X192407637Y-112887275D01*
X192382812Y-112893841D01*
X192350049Y-112903993D01*
X192307486Y-112918315D01*
X192253266Y-112937391D01*
X192185523Y-112961803D01*
X192168832Y-112967870D01*
X191935518Y-113052790D01*
X191314860Y-113052790D01*
X191199551Y-112735982D01*
X191717894Y-112547553D01*
X191835266Y-112504985D01*
X191938044Y-112467958D01*
X192027463Y-112436074D01*
X192104759Y-112408937D01*
X192171166Y-112386149D01*
X192227919Y-112367314D01*
X192276253Y-112352036D01*
X192317403Y-112339917D01*
X192352605Y-112330561D01*
X192383091Y-112323570D01*
X192410099Y-112318549D01*
X192434863Y-112315101D01*
X192444708Y-112314044D01*
X192486991Y-112312665D01*
X192539618Y-112315045D01*
G37*
G36*
X194813624Y-111717404D02*
G01*
X194909025Y-111979517D01*
X194404656Y-112163092D01*
X193900287Y-112346668D01*
X193936424Y-112445953D01*
X193972561Y-112545238D01*
X194445158Y-112373226D01*
X194917757Y-112201214D01*
X195013159Y-112463329D01*
X195108560Y-112725442D01*
X194635962Y-112897454D01*
X194163364Y-113069465D01*
X194208174Y-113192579D01*
X194252983Y-113315693D01*
X194777210Y-113124890D01*
X195301436Y-112934087D01*
X195396837Y-113196200D01*
X195492239Y-113458313D01*
X194690014Y-113750299D01*
X193887788Y-114042286D01*
X193520637Y-113033546D01*
X193153486Y-112024808D01*
X193935854Y-111740049D01*
X194718223Y-111455290D01*
X194813624Y-111717404D01*
G37*
G36*
X195871714Y-112177824D02*
G01*
X196238865Y-113186564D01*
X195960865Y-113287747D01*
X195682867Y-113388931D01*
X195315716Y-112380191D01*
X194948565Y-111371453D01*
X195226563Y-111270270D01*
X195504563Y-111169086D01*
X195871714Y-112177824D01*
G37*
G36*
X201701543Y-110568733D02*
G01*
X201725610Y-110582795D01*
X201759122Y-110609208D01*
X201769290Y-110617710D01*
X201801295Y-110645468D01*
X201821094Y-110664924D01*
X201830151Y-110677717D01*
X201829937Y-110685484D01*
X201828265Y-110694396D01*
X201840699Y-110701676D01*
X201845018Y-110703150D01*
X201860195Y-110709909D01*
X201867046Y-110721021D01*
X201869444Y-110742701D01*
X201871662Y-110761903D01*
X201878168Y-110776725D01*
X201892250Y-110792444D01*
X201910569Y-110808688D01*
X201933880Y-110829562D01*
X201953163Y-110848445D01*
X201961968Y-110858409D01*
X201968412Y-110871070D01*
X201960928Y-110878747D01*
X201953944Y-110881569D01*
X201937847Y-110889830D01*
X201934582Y-110899475D01*
X201944954Y-110912093D01*
X201969767Y-110929265D01*
X201981881Y-110936566D01*
X202007534Y-110952195D01*
X202026532Y-110964703D01*
X202034996Y-110971530D01*
X202035092Y-110971721D01*
X202029792Y-110978700D01*
X202014498Y-110989684D01*
X202011008Y-110991804D01*
X201985179Y-111007095D01*
X202010376Y-111024443D01*
X202026377Y-111036809D01*
X202033635Y-111045134D01*
X202033628Y-111045958D01*
X202025097Y-111052157D01*
X202004343Y-111063842D01*
X201974516Y-111079464D01*
X201938766Y-111097471D01*
X201900241Y-111116314D01*
X201862091Y-111134443D01*
X201827465Y-111150308D01*
X201799512Y-111162358D01*
X201788087Y-111166812D01*
X201760333Y-111175592D01*
X201738635Y-111180036D01*
X201728205Y-111179344D01*
X201726245Y-111168428D01*
X201730440Y-111147987D01*
X201734484Y-111136268D01*
X201742697Y-111113828D01*
X201747185Y-111098873D01*
X201747488Y-111095944D01*
X201739098Y-111093312D01*
X201719706Y-111091082D01*
X201711805Y-111090581D01*
X201677428Y-111088806D01*
X201704762Y-111035623D01*
X201732095Y-110982439D01*
X201706080Y-110971283D01*
X201686353Y-110960857D01*
X201677521Y-110948478D01*
X201678245Y-110929531D01*
X201686110Y-110902594D01*
X201692981Y-110870868D01*
X201691688Y-110844885D01*
X201682747Y-110828562D01*
X201675977Y-110825327D01*
X201663731Y-110815407D01*
X201661678Y-110794894D01*
X201669563Y-110768311D01*
X201677343Y-110749383D01*
X201677263Y-110741406D01*
X201668411Y-110739922D01*
X201663786Y-110740082D01*
X201647807Y-110737371D01*
X201642178Y-110732464D01*
X201642381Y-110720917D01*
X201645489Y-110697038D01*
X201650906Y-110665032D01*
X201654158Y-110647987D01*
X201663229Y-110606650D01*
X201672631Y-110580062D01*
X201684643Y-110567623D01*
X201701543Y-110568733D01*
G37*
G36*
X196258708Y-111906542D02*
G01*
X196578158Y-112784225D01*
X197062670Y-112607877D01*
X197547182Y-112431529D01*
X197589101Y-112546699D01*
X197631020Y-112661871D01*
X197007508Y-112888811D01*
X196383997Y-113115750D01*
X196022628Y-112122896D01*
X195661259Y-111130043D01*
X195800258Y-111079452D01*
X195939257Y-111028860D01*
X196258708Y-111906542D01*
G37*
G36*
X202073313Y-110377030D02*
G01*
X202090723Y-110386274D01*
X202115800Y-110402411D01*
X202141580Y-110420817D01*
X202174581Y-110448634D01*
X202198719Y-110475133D01*
X202212291Y-110497971D01*
X202213589Y-110514802D01*
X202211946Y-110517611D01*
X202210982Y-110526819D01*
X202221959Y-110540016D01*
X202236299Y-110551883D01*
X202258771Y-110572460D01*
X202270487Y-110593274D01*
X202274031Y-110607139D01*
X202280066Y-110627532D01*
X202291771Y-110642661D01*
X202313778Y-110658239D01*
X202317181Y-110660319D01*
X202338856Y-110674023D01*
X202348782Y-110683495D01*
X202349785Y-110693065D01*
X202345844Y-110704239D01*
X202335833Y-110722001D01*
X202317413Y-110748525D01*
X202292699Y-110781280D01*
X202263804Y-110817733D01*
X202232841Y-110855351D01*
X202201926Y-110891600D01*
X202173169Y-110923949D01*
X202148689Y-110949864D01*
X202130595Y-110966813D01*
X202122203Y-110972200D01*
X202106120Y-110975170D01*
X202095338Y-110976607D01*
X202077738Y-110976737D01*
X202068358Y-110970505D01*
X202066720Y-110955430D01*
X202072349Y-110929029D01*
X202080825Y-110901009D01*
X202102920Y-110831844D01*
X202072620Y-110840026D01*
X202058038Y-110843639D01*
X202048452Y-110843429D01*
X202043150Y-110836863D01*
X202041420Y-110821406D01*
X202042551Y-110794520D01*
X202045830Y-110753673D01*
X202046418Y-110746717D01*
X202048814Y-110710521D01*
X202048414Y-110688834D01*
X202045036Y-110679460D01*
X202040781Y-110679056D01*
X202032872Y-110681201D01*
X202028674Y-110678316D01*
X202027751Y-110667246D01*
X202029666Y-110644836D01*
X202032573Y-110619779D01*
X202035792Y-110590313D01*
X202036089Y-110573962D01*
X202032713Y-110567076D01*
X202024914Y-110566007D01*
X202021575Y-110566277D01*
X202014518Y-110565587D01*
X202010973Y-110560142D01*
X202011116Y-110547339D01*
X202015123Y-110524575D01*
X202023171Y-110489246D01*
X202028204Y-110468365D01*
X202038488Y-110426647D01*
X202046096Y-110398884D01*
X202052261Y-110382578D01*
X202058214Y-110375236D01*
X202065189Y-110374363D01*
X202073313Y-110377030D01*
G37*
G36*
X201272953Y-110786588D02*
G01*
X201288780Y-110801752D01*
X201310443Y-110824480D01*
X201326614Y-110842295D01*
X201355408Y-110873237D01*
X201384915Y-110902698D01*
X201410369Y-110925998D01*
X201419079Y-110933110D01*
X201443035Y-110952132D01*
X201454826Y-110963893D01*
X201456098Y-110970879D01*
X201448498Y-110975576D01*
X201447461Y-110975963D01*
X201441101Y-110984172D01*
X201443964Y-111002704D01*
X201447203Y-111012326D01*
X201466063Y-111048864D01*
X201496192Y-111082765D01*
X201531217Y-111110894D01*
X201557594Y-111132423D01*
X201568248Y-111147844D01*
X201563150Y-111157322D01*
X201542272Y-111161028D01*
X201522959Y-111160602D01*
X201474219Y-111150290D01*
X201418953Y-111125250D01*
X201358018Y-111085963D01*
X201292271Y-111032908D01*
X201287331Y-111028530D01*
X201266129Y-111008383D01*
X201255620Y-110993935D01*
X201253003Y-110980703D01*
X201253576Y-110974477D01*
X201252343Y-110953931D01*
X201240310Y-110938616D01*
X201232748Y-110929812D01*
X201229727Y-110918356D01*
X201231337Y-110900340D01*
X201237669Y-110871861D01*
X201242274Y-110853859D01*
X201251086Y-110821907D01*
X201258864Y-110797041D01*
X201264348Y-110783171D01*
X201265581Y-110781591D01*
X201272953Y-110786588D01*
G37*
G36*
X202490921Y-110275909D02*
G01*
X202501857Y-110282150D01*
X202520528Y-110296074D01*
X202542477Y-110313955D01*
X202563248Y-110332066D01*
X202578385Y-110346683D01*
X202583408Y-110353241D01*
X202579691Y-110362251D01*
X202568012Y-110381846D01*
X202550315Y-110408910D01*
X202533728Y-110432991D01*
X202507121Y-110470713D01*
X202488596Y-110496481D01*
X202476575Y-110512216D01*
X202469484Y-110519843D01*
X202465747Y-110521280D01*
X202463789Y-110518453D01*
X202463756Y-110518361D01*
X202463978Y-110505616D01*
X202467038Y-110491900D01*
X202466662Y-110466528D01*
X202456229Y-110440653D01*
X202445964Y-110415125D01*
X202444243Y-110389334D01*
X202447296Y-110367447D01*
X202455801Y-110332849D01*
X202466844Y-110303637D01*
X202478704Y-110283415D01*
X202489665Y-110275789D01*
X202490921Y-110275909D01*
G37*
G36*
X202523784Y-107241429D02*
G01*
X202679806Y-107252095D01*
X202822315Y-107272278D01*
X202951234Y-107301980D01*
X203066489Y-107341204D01*
X203168005Y-107389950D01*
X203255706Y-107448218D01*
X203329495Y-107515987D01*
X203372171Y-107571949D01*
X203409625Y-107639639D01*
X203440005Y-107714220D01*
X203461461Y-107790856D01*
X203472143Y-107864710D01*
X203472991Y-107891023D01*
X203472133Y-107938083D01*
X203469664Y-107983888D01*
X203465207Y-108030037D01*
X203458385Y-108078131D01*
X203448821Y-108129770D01*
X203436139Y-108186555D01*
X203419959Y-108250085D01*
X203399905Y-108321960D01*
X203375600Y-108403783D01*
X203346667Y-108497150D01*
X203312727Y-108603665D01*
X203284218Y-108691738D01*
X203241251Y-108822540D01*
X203200090Y-108945313D01*
X203161069Y-109059149D01*
X203124523Y-109163139D01*
X203090785Y-109256374D01*
X203060190Y-109337945D01*
X203033074Y-109406944D01*
X203009768Y-109462461D01*
X202990610Y-109503588D01*
X202975968Y-109529367D01*
X202958539Y-109554682D01*
X202942442Y-109510455D01*
X202933744Y-109485088D01*
X202931574Y-109470944D01*
X202936334Y-109463491D01*
X202947063Y-109458687D01*
X202960791Y-109451677D01*
X202960877Y-109441892D01*
X202954496Y-109431245D01*
X202942757Y-109416507D01*
X202922489Y-109393768D01*
X202897199Y-109366901D01*
X202884412Y-109353785D01*
X202850334Y-109316530D01*
X202820237Y-109276899D01*
X202790052Y-109229311D01*
X202776518Y-109205875D01*
X202754916Y-109168736D01*
X202734377Y-109135293D01*
X202717286Y-109109322D01*
X202706406Y-109094994D01*
X202687391Y-109074463D01*
X202697045Y-109118209D01*
X202702586Y-109156029D01*
X202706211Y-109210489D01*
X202707914Y-109281428D01*
X202707692Y-109368692D01*
X202706829Y-109419703D01*
X202706251Y-109458605D01*
X202706858Y-109483852D01*
X202709209Y-109498683D01*
X202713863Y-109506337D01*
X202721379Y-109510053D01*
X202722475Y-109510382D01*
X202741063Y-109514448D01*
X202749434Y-109515182D01*
X202752550Y-109523060D01*
X202753924Y-109545222D01*
X202753523Y-109579134D01*
X202751317Y-109622262D01*
X202750830Y-109629357D01*
X202742715Y-109743793D01*
X202772003Y-109754499D01*
X202796165Y-109768721D01*
X202810126Y-109791357D01*
X202814785Y-109824779D01*
X202812410Y-109860974D01*
X202807035Y-109887133D01*
X202797094Y-109920352D01*
X202784133Y-109956800D01*
X202769701Y-109992643D01*
X202755349Y-110024054D01*
X202742625Y-110047199D01*
X202733076Y-110058249D01*
X202732562Y-110058473D01*
X202724004Y-110053900D01*
X202707747Y-110039775D01*
X202687004Y-110019457D01*
X202664985Y-109996309D01*
X202644903Y-109973689D01*
X202629969Y-109954957D01*
X202623719Y-109944597D01*
X202628712Y-109936847D01*
X202644516Y-109928607D01*
X202644642Y-109928561D01*
X202668271Y-109919961D01*
X202619882Y-109863364D01*
X202591097Y-109829786D01*
X202572239Y-109806851D01*
X202562634Y-109792039D01*
X202561605Y-109782831D01*
X202568474Y-109776703D01*
X202582566Y-109771137D01*
X202594039Y-109767079D01*
X202618750Y-109756246D01*
X202630841Y-109746803D01*
X202631439Y-109743381D01*
X202623940Y-109734512D01*
X202606269Y-109717630D01*
X202581334Y-109695429D01*
X202560911Y-109677998D01*
X202527211Y-109648628D01*
X202503914Y-109625098D01*
X202487627Y-109603471D01*
X202474958Y-109579815D01*
X202473476Y-109576554D01*
X202453327Y-109531589D01*
X202484259Y-109517513D01*
X202515192Y-109503438D01*
X202422862Y-109393122D01*
X202389315Y-109352936D01*
X202365353Y-109323659D01*
X202349696Y-109303250D01*
X202341062Y-109289669D01*
X202338170Y-109280873D01*
X202339737Y-109274826D01*
X202344483Y-109269483D01*
X202344937Y-109269050D01*
X202356832Y-109257474D01*
X202361171Y-109252968D01*
X202357494Y-109245488D01*
X202346118Y-109227109D01*
X202328953Y-109200837D01*
X202313712Y-109178181D01*
X202292867Y-109147172D01*
X202275744Y-109121024D01*
X202264518Y-109103092D01*
X202261332Y-109097229D01*
X202266310Y-109089139D01*
X202282540Y-109080010D01*
X202286892Y-109078312D01*
X202306029Y-109068977D01*
X202309041Y-109060522D01*
X202308174Y-109059322D01*
X202301547Y-109050464D01*
X202286433Y-109029633D01*
X202264133Y-108998641D01*
X202235948Y-108959299D01*
X202203176Y-108913420D01*
X202167117Y-108862815D01*
X202158494Y-108850696D01*
X202122113Y-108799662D01*
X202088924Y-108753313D01*
X202060178Y-108713385D01*
X202037130Y-108681610D01*
X202021034Y-108659722D01*
X202013144Y-108649456D01*
X202012598Y-108648908D01*
X202008452Y-108654860D01*
X202003267Y-108671649D01*
X202002942Y-108673009D01*
X202002107Y-108696948D01*
X202007142Y-108732969D01*
X202015931Y-108771353D01*
X202029387Y-108835426D01*
X202033456Y-108894157D01*
X202028271Y-108954953D01*
X202020001Y-108999083D01*
X202006306Y-109062030D01*
X202039725Y-109055890D01*
X202061286Y-109053688D01*
X202074411Y-109055668D01*
X202075841Y-109057156D01*
X202076316Y-109067585D01*
X202076005Y-109092108D01*
X202074990Y-109127932D01*
X202073347Y-109172269D01*
X202071203Y-109221299D01*
X202068722Y-109276352D01*
X202067292Y-109316855D01*
X202067082Y-109345139D01*
X202068259Y-109363535D01*
X202070991Y-109374374D01*
X202075445Y-109379987D01*
X202081789Y-109382706D01*
X202082829Y-109382987D01*
X202109604Y-109391505D01*
X202125402Y-109402463D01*
X202135970Y-109420746D01*
X202140212Y-109431725D01*
X202145811Y-109455471D01*
X202147319Y-109486913D01*
X202144774Y-109529473D01*
X202141642Y-109559029D01*
X202137530Y-109597599D01*
X202134793Y-109630323D01*
X202133710Y-109653345D01*
X202134263Y-109662323D01*
X202144032Y-109666845D01*
X202164446Y-109662576D01*
X202165416Y-109662228D01*
X202184119Y-109656567D01*
X202192905Y-109660246D01*
X202197553Y-109676320D01*
X202198167Y-109679542D01*
X202205569Y-109730535D01*
X202206023Y-109773226D01*
X202199384Y-109814790D01*
X202195100Y-109831325D01*
X202184055Y-109872107D01*
X202178060Y-109899913D01*
X202177206Y-109917930D01*
X202181581Y-109929342D01*
X202191276Y-109937335D01*
X202198181Y-109941062D01*
X202215977Y-109952247D01*
X202225381Y-109962289D01*
X202225397Y-109962331D01*
X202224916Y-109973789D01*
X202221106Y-109998069D01*
X202214607Y-110031564D01*
X202206437Y-110069022D01*
X202198338Y-110107278D01*
X202192839Y-110139149D01*
X202190434Y-110161279D01*
X202191575Y-110170295D01*
X202192241Y-110174841D01*
X202180233Y-110179481D01*
X202159770Y-110183584D01*
X202135065Y-110186522D01*
X202110337Y-110187666D01*
X202089801Y-110186388D01*
X202087041Y-110185887D01*
X202052867Y-110172723D01*
X202017217Y-110149294D01*
X201986593Y-110120241D01*
X201976482Y-110107012D01*
X201969791Y-110095619D01*
X201970621Y-110087793D01*
X201981624Y-110080217D01*
X202005450Y-110069573D01*
X202006868Y-110068967D01*
X202050323Y-110050428D01*
X201958769Y-109959176D01*
X201926855Y-109927083D01*
X201899435Y-109898970D01*
X201878654Y-109877079D01*
X201866660Y-109863653D01*
X201864610Y-109860770D01*
X201870027Y-109853724D01*
X201886729Y-109844824D01*
X201893778Y-109842052D01*
X201913151Y-109833365D01*
X201922903Y-109825730D01*
X201923180Y-109823980D01*
X201915379Y-109816332D01*
X201897287Y-109802675D01*
X201874088Y-109786811D01*
X201837477Y-109757747D01*
X201808311Y-109724752D01*
X201788207Y-109690780D01*
X201778778Y-109658785D01*
X201781641Y-109631719D01*
X201785383Y-109624632D01*
X201787865Y-109616924D01*
X201784385Y-109606572D01*
X201773218Y-109590856D01*
X201752638Y-109567053D01*
X201740110Y-109553268D01*
X201707538Y-109516272D01*
X201686522Y-109487761D01*
X201676141Y-109464824D01*
X201675467Y-109444544D01*
X201683577Y-109424010D01*
X201693968Y-109407948D01*
X201697270Y-109401633D01*
X201696823Y-109394553D01*
X201691048Y-109384881D01*
X201678366Y-109370791D01*
X201657197Y-109350459D01*
X201625963Y-109322058D01*
X201598152Y-109297192D01*
X201563018Y-109265362D01*
X201532931Y-109237143D01*
X201509932Y-109214529D01*
X201496061Y-109199511D01*
X201492884Y-109194386D01*
X201501079Y-109187363D01*
X201520222Y-109177876D01*
X201533694Y-109172552D01*
X201557276Y-109162121D01*
X201569124Y-109152844D01*
X201569754Y-109149516D01*
X201563084Y-109140617D01*
X201546802Y-109121874D01*
X201523014Y-109095625D01*
X201493824Y-109064212D01*
X201477243Y-109046647D01*
X201407924Y-108968245D01*
X201346937Y-108888428D01*
X201296791Y-108810657D01*
X201270851Y-108762127D01*
X201257494Y-108737779D01*
X201247443Y-108725874D01*
X201243270Y-108725933D01*
X201237980Y-108742291D01*
X201235144Y-108773888D01*
X201234797Y-108819223D01*
X201236976Y-108876806D01*
X201238985Y-108909177D01*
X201240672Y-108955675D01*
X201240399Y-109011701D01*
X201238311Y-109070009D01*
X201234811Y-109120513D01*
X201231171Y-109165677D01*
X201228685Y-109206933D01*
X201227537Y-109240285D01*
X201227907Y-109261740D01*
X201228228Y-109264581D01*
X201231838Y-109282133D01*
X201238498Y-109285987D01*
X201253483Y-109278358D01*
X201256554Y-109276494D01*
X201272883Y-109267686D01*
X201279451Y-109269012D01*
X201280400Y-109279059D01*
X201280156Y-109292688D01*
X201279719Y-109320265D01*
X201279133Y-109358830D01*
X201278445Y-109405427D01*
X201277697Y-109457100D01*
X201277668Y-109459132D01*
X201276920Y-109510923D01*
X201276229Y-109557736D01*
X201275639Y-109596618D01*
X201275196Y-109624617D01*
X201274945Y-109638779D01*
X201274940Y-109639010D01*
X201275988Y-109648083D01*
X201282092Y-109650344D01*
X201296818Y-109645550D01*
X201318135Y-109636040D01*
X201341768Y-109625423D01*
X201357817Y-109618731D01*
X201362263Y-109617413D01*
X201362225Y-109625903D01*
X201361775Y-109648426D01*
X201360980Y-109682112D01*
X201359907Y-109724096D01*
X201359098Y-109754231D01*
X201358186Y-109800343D01*
X201358053Y-109840302D01*
X201358658Y-109871152D01*
X201359957Y-109889937D01*
X201361120Y-109894252D01*
X201372473Y-109895173D01*
X201388257Y-109891259D01*
X201405380Y-109886083D01*
X201417137Y-109886192D01*
X201423983Y-109893622D01*
X201426375Y-109910418D01*
X201424772Y-109938617D01*
X201419631Y-109980260D01*
X201415200Y-110011421D01*
X201408967Y-110054704D01*
X201403759Y-110091485D01*
X201399988Y-110118794D01*
X201398067Y-110133663D01*
X201397916Y-110135502D01*
X201405870Y-110135650D01*
X201426096Y-110134644D01*
X201450953Y-110132935D01*
X201478521Y-110131699D01*
X201498174Y-110132426D01*
X201505201Y-110134615D01*
X201504558Y-110144697D01*
X201501536Y-110167978D01*
X201496622Y-110200999D01*
X201490304Y-110240299D01*
X201490263Y-110240545D01*
X201483242Y-110285842D01*
X201480219Y-110316711D01*
X201481724Y-110335266D01*
X201488288Y-110343627D01*
X201500442Y-110343908D01*
X201515101Y-110339544D01*
X201536171Y-110340346D01*
X201549323Y-110349521D01*
X201558697Y-110362175D01*
X201560763Y-110377342D01*
X201556161Y-110401261D01*
X201555073Y-110405467D01*
X201545749Y-110433694D01*
X201531515Y-110468896D01*
X201516352Y-110501585D01*
X201500548Y-110531454D01*
X201488352Y-110549068D01*
X201476842Y-110557766D01*
X201464598Y-110560736D01*
X201437589Y-110559847D01*
X201417437Y-110548202D01*
X201399360Y-110523479D01*
X201389620Y-110505095D01*
X201389694Y-110495553D01*
X201400307Y-110489436D01*
X201404122Y-110488014D01*
X201425159Y-110480358D01*
X201375615Y-110444599D01*
X201343303Y-110420916D01*
X201323699Y-110404793D01*
X201315673Y-110394080D01*
X201318092Y-110386625D01*
X201329827Y-110380281D01*
X201339794Y-110376502D01*
X201371570Y-110364936D01*
X201352182Y-110334692D01*
X201336523Y-110314469D01*
X201312628Y-110288324D01*
X201285142Y-110261282D01*
X201279584Y-110256172D01*
X201248679Y-110226234D01*
X201228371Y-110201226D01*
X201215201Y-110176684D01*
X201212329Y-110169308D01*
X201204575Y-110145708D01*
X201204059Y-110132139D01*
X201211614Y-110122991D01*
X201220008Y-110117508D01*
X201241730Y-110104296D01*
X201153509Y-110020914D01*
X201119064Y-109988249D01*
X201095305Y-109965040D01*
X201080629Y-109949133D01*
X201073432Y-109938377D01*
X201072111Y-109930619D01*
X201075061Y-109923705D01*
X201077938Y-109919462D01*
X201090588Y-109901390D01*
X201004015Y-109781797D01*
X200973512Y-109739726D01*
X200944427Y-109699728D01*
X200919056Y-109664953D01*
X200899696Y-109638553D01*
X200891027Y-109626843D01*
X200864612Y-109591482D01*
X200868933Y-109760815D01*
X200870290Y-109813559D01*
X200871541Y-109861273D01*
X200872608Y-109901093D01*
X200873413Y-109930155D01*
X200873882Y-109945597D01*
X200873917Y-109946536D01*
X200876680Y-109957277D01*
X200886092Y-109953964D01*
X200889324Y-109951566D01*
X200901703Y-109945152D01*
X200906401Y-109946711D01*
X200907010Y-109957037D01*
X200907133Y-109981138D01*
X200906791Y-110015894D01*
X200906006Y-110058183D01*
X200905480Y-110080107D01*
X200904397Y-110124459D01*
X200903573Y-110162347D01*
X200903065Y-110190784D01*
X200902932Y-110206783D01*
X200903021Y-110209181D01*
X200910497Y-110208197D01*
X200927396Y-110202781D01*
X200927643Y-110202692D01*
X200943716Y-110198391D01*
X200953049Y-110203163D01*
X200961033Y-110220325D01*
X200962423Y-110224107D01*
X200968084Y-110250029D01*
X200967898Y-110282984D01*
X200961627Y-110325845D01*
X200949423Y-110379918D01*
X200941940Y-110416291D01*
X200941973Y-110438756D01*
X200950291Y-110448900D01*
X200967663Y-110448315D01*
X200980559Y-110444287D01*
X201002836Y-110438090D01*
X201012298Y-110440742D01*
X201012872Y-110443770D01*
X201012374Y-110456820D01*
X201011298Y-110482337D01*
X201009831Y-110515902D01*
X201008997Y-110534622D01*
X201007841Y-110570515D01*
X201007712Y-110600550D01*
X201008590Y-110620341D01*
X201009421Y-110625081D01*
X201019566Y-110631322D01*
X201039806Y-110633067D01*
X201045896Y-110632620D01*
X201066667Y-110631519D01*
X201078123Y-110636694D01*
X201086107Y-110652207D01*
X201089996Y-110663267D01*
X201096141Y-110695791D01*
X201090499Y-110729371D01*
X201088624Y-110735086D01*
X201076789Y-110764924D01*
X201066909Y-110778651D01*
X201058113Y-110776824D01*
X201049574Y-110760115D01*
X201039253Y-110739292D01*
X201022318Y-110712245D01*
X201007433Y-110691500D01*
X200989239Y-110663935D01*
X200966927Y-110624071D01*
X200942375Y-110575416D01*
X200922539Y-110532869D01*
X200888851Y-110460512D01*
X200851090Y-110383701D01*
X200810505Y-110304658D01*
X200768343Y-110225603D01*
X200725855Y-110148758D01*
X200684289Y-110076345D01*
X200644896Y-110010583D01*
X200608922Y-109953696D01*
X200577617Y-109907903D01*
X200554034Y-109877504D01*
X200468124Y-109789861D01*
X200368583Y-109710903D01*
X200256885Y-109641721D01*
X200189345Y-109607548D01*
X200085270Y-109565799D01*
X199967710Y-109531293D01*
X199838544Y-109504219D01*
X199699649Y-109484767D01*
X199552902Y-109473127D01*
X199400181Y-109469485D01*
X199243364Y-109474032D01*
X199084330Y-109486955D01*
X199040853Y-109491954D01*
X198958034Y-109502921D01*
X198874750Y-109515739D01*
X198789034Y-109530833D01*
X198698916Y-109548629D01*
X198602430Y-109569553D01*
X198497604Y-109594029D01*
X198382472Y-109622485D01*
X198255066Y-109655345D01*
X198123589Y-109690297D01*
X198018975Y-109718613D01*
X197921246Y-109745496D01*
X197828657Y-109771501D01*
X197739460Y-109797184D01*
X197651912Y-109823100D01*
X197564262Y-109849802D01*
X197474769Y-109877846D01*
X197381684Y-109907786D01*
X197283261Y-109940177D01*
X197177755Y-109975575D01*
X197063419Y-110014534D01*
X196938508Y-110057609D01*
X196801274Y-110105354D01*
X196649971Y-110158325D01*
X196644097Y-110160386D01*
X196543065Y-110195798D01*
X196445972Y-110229734D01*
X196354095Y-110261755D01*
X196268711Y-110291420D01*
X196191102Y-110318286D01*
X196122542Y-110341914D01*
X196064313Y-110361861D01*
X196017691Y-110377686D01*
X195983954Y-110388949D01*
X195964383Y-110395208D01*
X195960849Y-110396201D01*
X195938536Y-110401896D01*
X195904381Y-110410922D01*
X195862837Y-110422093D01*
X195818352Y-110434217D01*
X195813282Y-110435610D01*
X195682717Y-110468891D01*
X195563402Y-110493916D01*
X195455934Y-110510621D01*
X195360914Y-110518942D01*
X195278939Y-110518818D01*
X195210608Y-110510184D01*
X195180954Y-110502403D01*
X195137555Y-110480313D01*
X195104559Y-110446873D01*
X195082932Y-110404754D01*
X195073634Y-110356628D01*
X195077630Y-110305168D01*
X195093141Y-110258741D01*
X195128111Y-110198279D01*
X195179215Y-110132800D01*
X195246443Y-110062308D01*
X195329790Y-109986812D01*
X195429247Y-109906317D01*
X195544806Y-109820830D01*
X195676459Y-109730357D01*
X195824200Y-109634904D01*
X195925000Y-109572541D01*
X196089037Y-109474957D01*
X196267538Y-109373160D01*
X196458833Y-109267975D01*
X196661252Y-109160231D01*
X196873123Y-109050757D01*
X197092774Y-108940378D01*
X197318536Y-108829923D01*
X197548738Y-108720218D01*
X197781707Y-108612093D01*
X198015774Y-108506375D01*
X198249267Y-108403890D01*
X198480517Y-108305467D01*
X198498352Y-108298009D01*
X198547222Y-108278155D01*
X198609782Y-108253634D01*
X198684602Y-108224958D01*
X198770253Y-108192637D01*
X198865305Y-108157183D01*
X198968329Y-108119106D01*
X199077895Y-108078920D01*
X199192575Y-108037134D01*
X199310937Y-107994260D01*
X199431554Y-107950810D01*
X199552995Y-107907295D01*
X199673830Y-107864226D01*
X199792631Y-107822114D01*
X199907969Y-107781471D01*
X200018412Y-107742809D01*
X200122533Y-107706638D01*
X200218900Y-107673470D01*
X200306087Y-107643815D01*
X200382661Y-107618187D01*
X200447194Y-107597095D01*
X200498257Y-107581051D01*
X200523883Y-107573477D01*
X200798143Y-107498553D01*
X201059566Y-107433134D01*
X201308077Y-107377219D01*
X201543602Y-107330812D01*
X201766063Y-107293912D01*
X201975388Y-107266523D01*
X202171500Y-107248645D01*
X202354323Y-107240280D01*
X202523784Y-107241429D01*
G37*
G36*
X190152035Y-99179167D02*
G01*
X190157755Y-99179806D01*
X190166538Y-99180810D01*
X190177842Y-99182116D01*
X190191135Y-99183659D01*
X190205871Y-99185380D01*
X190206589Y-99185463D01*
X190221393Y-99187252D01*
X190234778Y-99188980D01*
X190246206Y-99190568D01*
X190255138Y-99191932D01*
X190261028Y-99193000D01*
X190263343Y-99193693D01*
X190263354Y-99193714D01*
X190263193Y-99195976D01*
X190262549Y-99202088D01*
X190261463Y-99211768D01*
X190259964Y-99224730D01*
X190258087Y-99240685D01*
X190255865Y-99259356D01*
X190253337Y-99280452D01*
X190250531Y-99303691D01*
X190247485Y-99328788D01*
X190244228Y-99355461D01*
X190240797Y-99383420D01*
X190239326Y-99395378D01*
X190235825Y-99423837D01*
X190232471Y-99451152D01*
X190229298Y-99477041D01*
X190226343Y-99501212D01*
X190223643Y-99523381D01*
X190221228Y-99543256D01*
X190219137Y-99560553D01*
X190217403Y-99574983D01*
X190216060Y-99586254D01*
X190215146Y-99594084D01*
X190214693Y-99598185D01*
X190214651Y-99598718D01*
X190215609Y-99599700D01*
X190218696Y-99600773D01*
X190224198Y-99601984D01*
X190232399Y-99603374D01*
X190243582Y-99604988D01*
X190258033Y-99606870D01*
X190276039Y-99609064D01*
X190297882Y-99611614D01*
X190299957Y-99611852D01*
X190385304Y-99621635D01*
X190247758Y-99804352D01*
X190229403Y-99828710D01*
X190211739Y-99852102D01*
X190194926Y-99874318D01*
X190179127Y-99895142D01*
X190164508Y-99914367D01*
X190151226Y-99931779D01*
X190139443Y-99947166D01*
X190129324Y-99960316D01*
X190121027Y-99971015D01*
X190114719Y-99979056D01*
X190110561Y-99984224D01*
X190108711Y-99986305D01*
X190108639Y-99986338D01*
X190107680Y-99984372D01*
X190105263Y-99978859D01*
X190101513Y-99970097D01*
X190096554Y-99958387D01*
X190090512Y-99944035D01*
X190083510Y-99927342D01*
X190075681Y-99908612D01*
X190067141Y-99888150D01*
X190058022Y-99866252D01*
X190048446Y-99843224D01*
X190038540Y-99819372D01*
X190028426Y-99794994D01*
X190018234Y-99770395D01*
X190008088Y-99745877D01*
X189998111Y-99721742D01*
X189988434Y-99698296D01*
X189979176Y-99675839D01*
X189970466Y-99654674D01*
X189962429Y-99635103D01*
X189955188Y-99617432D01*
X189948871Y-99601960D01*
X189943604Y-99588991D01*
X189939508Y-99578829D01*
X189936713Y-99571773D01*
X189935343Y-99568130D01*
X189935226Y-99567687D01*
X189937284Y-99567751D01*
X189943028Y-99568318D01*
X189952017Y-99569337D01*
X189963801Y-99570750D01*
X189977940Y-99572508D01*
X189993987Y-99574553D01*
X190011504Y-99576837D01*
X190016428Y-99577487D01*
X190034315Y-99579838D01*
X190050897Y-99581987D01*
X190065723Y-99583876D01*
X190078342Y-99585452D01*
X190088303Y-99586654D01*
X190095153Y-99587429D01*
X190098444Y-99587722D01*
X190098659Y-99587711D01*
X190099079Y-99585635D01*
X190099957Y-99579764D01*
X190101253Y-99570439D01*
X190102920Y-99558000D01*
X190104916Y-99542791D01*
X190107199Y-99525151D01*
X190109729Y-99505422D01*
X190112459Y-99483945D01*
X190115347Y-99461063D01*
X190118352Y-99437119D01*
X190121430Y-99412450D01*
X190124540Y-99387398D01*
X190127634Y-99362304D01*
X190130679Y-99337515D01*
X190133624Y-99313365D01*
X190136428Y-99290200D01*
X190139049Y-99268360D01*
X190141444Y-99248185D01*
X190143572Y-99230019D01*
X190145117Y-99216601D01*
X190146506Y-99204636D01*
X190147765Y-99194235D01*
X190148808Y-99186055D01*
X190149556Y-99180744D01*
X190149914Y-99178951D01*
X190152035Y-99179167D01*
G37*
G36*
X189542070Y-99110005D02*
G01*
X189550942Y-99110620D01*
X189562309Y-99111618D01*
X189575627Y-99112954D01*
X189590347Y-99114584D01*
X189590511Y-99114603D01*
X189605241Y-99116314D01*
X189618562Y-99117881D01*
X189629930Y-99119233D01*
X189638800Y-99120306D01*
X189644625Y-99121038D01*
X189646862Y-99121359D01*
X189646864Y-99121360D01*
X189646952Y-99122791D01*
X189646675Y-99126944D01*
X189646023Y-99133942D01*
X189644979Y-99143906D01*
X189643530Y-99156953D01*
X189641663Y-99173209D01*
X189639360Y-99192792D01*
X189636611Y-99215822D01*
X189633399Y-99242421D01*
X189629712Y-99272706D01*
X189625534Y-99306801D01*
X189620852Y-99344827D01*
X189617329Y-99373356D01*
X189614252Y-99398316D01*
X189611339Y-99422068D01*
X189608631Y-99444289D01*
X189606166Y-99464656D01*
X189603982Y-99482846D01*
X189602120Y-99498535D01*
X189600615Y-99511401D01*
X189599508Y-99521116D01*
X189598837Y-99527362D01*
X189598640Y-99529814D01*
X189598643Y-99529834D01*
X189600752Y-99530357D01*
X189606565Y-99531287D01*
X189615645Y-99532564D01*
X189627556Y-99534132D01*
X189641864Y-99535936D01*
X189658127Y-99537916D01*
X189675913Y-99540016D01*
X189683907Y-99540941D01*
X189702136Y-99543091D01*
X189718966Y-99545180D01*
X189733969Y-99547150D01*
X189746722Y-99548937D01*
X189756796Y-99550482D01*
X189763771Y-99551725D01*
X189767217Y-99552604D01*
X189767505Y-99552863D01*
X189766075Y-99554848D01*
X189762327Y-99559878D01*
X189756459Y-99567686D01*
X189748672Y-99578007D01*
X189739166Y-99590581D01*
X189728145Y-99605139D01*
X189715808Y-99621419D01*
X189702355Y-99639156D01*
X189687990Y-99658088D01*
X189672911Y-99677947D01*
X189657319Y-99698470D01*
X189641418Y-99719396D01*
X189625406Y-99740456D01*
X189609485Y-99761387D01*
X189593857Y-99781927D01*
X189578720Y-99801808D01*
X189564277Y-99820771D01*
X189550728Y-99838545D01*
X189538276Y-99854871D01*
X189527120Y-99869483D01*
X189517462Y-99882116D01*
X189509502Y-99892507D01*
X189503441Y-99900390D01*
X189499480Y-99905502D01*
X189497821Y-99907578D01*
X189497795Y-99907606D01*
X189496660Y-99905972D01*
X189493922Y-99900513D01*
X189489585Y-99891233D01*
X189483654Y-99878154D01*
X189476142Y-99861286D01*
X189467047Y-99840643D01*
X189456383Y-99816238D01*
X189444148Y-99788089D01*
X189430353Y-99756204D01*
X189415001Y-99720600D01*
X189407629Y-99703463D01*
X189395715Y-99675738D01*
X189384280Y-99649099D01*
X189373426Y-99623794D01*
X189363266Y-99600069D01*
X189353900Y-99578175D01*
X189345436Y-99558359D01*
X189337981Y-99540871D01*
X189331641Y-99525956D01*
X189326518Y-99513865D01*
X189322723Y-99504847D01*
X189320361Y-99499149D01*
X189319536Y-99497020D01*
X189319537Y-99497013D01*
X189321606Y-99497070D01*
X189327378Y-99497567D01*
X189336420Y-99498457D01*
X189348292Y-99499694D01*
X189362561Y-99501235D01*
X189378791Y-99503029D01*
X189396544Y-99505034D01*
X189404463Y-99505941D01*
X189422744Y-99508011D01*
X189439695Y-99509872D01*
X189454879Y-99511478D01*
X189467859Y-99512788D01*
X189478196Y-99513755D01*
X189485455Y-99514340D01*
X189489199Y-99514496D01*
X189489617Y-99514422D01*
X189489913Y-99512220D01*
X189490619Y-99506156D01*
X189491705Y-99496519D01*
X189493136Y-99483587D01*
X189494887Y-99467654D01*
X189496922Y-99448997D01*
X189499211Y-99427899D01*
X189501725Y-99404647D01*
X189504432Y-99379527D01*
X189507300Y-99352822D01*
X189510300Y-99324815D01*
X189511605Y-99312596D01*
X189514657Y-99284104D01*
X189517599Y-99256780D01*
X189520398Y-99230912D01*
X189523025Y-99206783D01*
X189525445Y-99184678D01*
X189527629Y-99164884D01*
X189529547Y-99147687D01*
X189531164Y-99133373D01*
X189532449Y-99122224D01*
X189533373Y-99114528D01*
X189533901Y-99110570D01*
X189533997Y-99110092D01*
X189536240Y-99109814D01*
X189542070Y-99110005D01*
G37*
G36*
X190412463Y-97568905D02*
G01*
X190522103Y-97870133D01*
X190567098Y-97993759D01*
X191203348Y-97762183D01*
X191839599Y-97530606D01*
X191878434Y-97637309D01*
X191917270Y-97744013D01*
X191281022Y-97975587D01*
X190644771Y-98207164D01*
X190810808Y-98663344D01*
X190826079Y-98705323D01*
X190840963Y-98746264D01*
X190855393Y-98785994D01*
X190869312Y-98824340D01*
X190882654Y-98861136D01*
X190895360Y-98896205D01*
X190907365Y-98929377D01*
X190918608Y-98960479D01*
X190929027Y-98989338D01*
X190938560Y-99015785D01*
X190947146Y-99039647D01*
X190954722Y-99060752D01*
X190961226Y-99078927D01*
X190966597Y-99094003D01*
X190970771Y-99105807D01*
X190973687Y-99114165D01*
X190975285Y-99118905D01*
X190975580Y-99119984D01*
X190973449Y-99119789D01*
X190967302Y-99119152D01*
X190957255Y-99118089D01*
X190943438Y-99116613D01*
X190925970Y-99114734D01*
X190904974Y-99112469D01*
X190880575Y-99109831D01*
X190852894Y-99106833D01*
X190822054Y-99103488D01*
X190788180Y-99099809D01*
X190751393Y-99095811D01*
X190711814Y-99091504D01*
X190669571Y-99086907D01*
X190624784Y-99082028D01*
X190577577Y-99076883D01*
X190528071Y-99071485D01*
X190476391Y-99065848D01*
X190422660Y-99059984D01*
X190366998Y-99053906D01*
X190309529Y-99047630D01*
X190250381Y-99041167D01*
X190189670Y-99034531D01*
X190127523Y-99027739D01*
X190064061Y-99020796D01*
X189999408Y-99013723D01*
X189933687Y-99006531D01*
X189917692Y-99004781D01*
X189851717Y-98997557D01*
X189786776Y-98990451D01*
X189722992Y-98983472D01*
X189660487Y-98976633D01*
X189599383Y-98969947D01*
X189539808Y-98963431D01*
X189481880Y-98957094D01*
X189425724Y-98950954D01*
X189371465Y-98945022D01*
X189319224Y-98939311D01*
X189269126Y-98933834D01*
X189221293Y-98928607D01*
X189175846Y-98923642D01*
X189132914Y-98918953D01*
X189092612Y-98914552D01*
X189055070Y-98910453D01*
X189020409Y-98906670D01*
X188988753Y-98903216D01*
X188960223Y-98900107D01*
X188934943Y-98897353D01*
X188913038Y-98894967D01*
X188894628Y-98892968D01*
X188879841Y-98891364D01*
X188868796Y-98890168D01*
X188861618Y-98889396D01*
X188858428Y-98889062D01*
X188858271Y-98889048D01*
X188858187Y-98889724D01*
X188858661Y-98891862D01*
X188859740Y-98895592D01*
X188861470Y-98901048D01*
X188863900Y-98908365D01*
X188867078Y-98917675D01*
X188871052Y-98929114D01*
X188875867Y-98942811D01*
X188881573Y-98958905D01*
X188888219Y-98977526D01*
X188895850Y-98998810D01*
X188904515Y-99022887D01*
X188914263Y-99049893D01*
X188925139Y-99079962D01*
X188937192Y-99113226D01*
X188950468Y-99149821D01*
X188965019Y-99189878D01*
X188980889Y-99233531D01*
X188998128Y-99280915D01*
X189004840Y-99299363D01*
X189154207Y-99709742D01*
X189046534Y-99748932D01*
X188938862Y-99788121D01*
X188784583Y-99364247D01*
X188630304Y-98940369D01*
X187924556Y-99197242D01*
X187218809Y-99454114D01*
X187179970Y-99347409D01*
X187141134Y-99240708D01*
X187846884Y-98983838D01*
X188552633Y-98726965D01*
X188534177Y-98676257D01*
X189022552Y-98676257D01*
X189024661Y-98676570D01*
X189030741Y-98677312D01*
X189040620Y-98678471D01*
X189054126Y-98680023D01*
X189071088Y-98681951D01*
X189091336Y-98684237D01*
X189114695Y-98686859D01*
X189140998Y-98689801D01*
X189170068Y-98693047D01*
X189201738Y-98696571D01*
X189235835Y-98700359D01*
X189272187Y-98704391D01*
X189310625Y-98708649D01*
X189350971Y-98713112D01*
X189393061Y-98717764D01*
X189436719Y-98722585D01*
X189481776Y-98727557D01*
X189528057Y-98732657D01*
X189575394Y-98737869D01*
X189623614Y-98743179D01*
X189672545Y-98748562D01*
X189722016Y-98753997D01*
X189771856Y-98759473D01*
X189821893Y-98764967D01*
X189871956Y-98770461D01*
X189921872Y-98775932D01*
X189971470Y-98781368D01*
X190020579Y-98786746D01*
X190069028Y-98792047D01*
X190116643Y-98797254D01*
X190163258Y-98802347D01*
X190208693Y-98807310D01*
X190252784Y-98812119D01*
X190295355Y-98816760D01*
X190336239Y-98821211D01*
X190375257Y-98825455D01*
X190412245Y-98829473D01*
X190447028Y-98833242D01*
X190479436Y-98836750D01*
X190509295Y-98839975D01*
X190536435Y-98842898D01*
X190560684Y-98845500D01*
X190581871Y-98847763D01*
X190599824Y-98849668D01*
X190614373Y-98851195D01*
X190625345Y-98852327D01*
X190632568Y-98853044D01*
X190635871Y-98853326D01*
X190636068Y-98853326D01*
X190635474Y-98851358D01*
X190633513Y-98845647D01*
X190630250Y-98836366D01*
X190625746Y-98823687D01*
X190620067Y-98807784D01*
X190613272Y-98788825D01*
X190605425Y-98766986D01*
X190596589Y-98742437D01*
X190586827Y-98715352D01*
X190576198Y-98685903D01*
X190564768Y-98654262D01*
X190552600Y-98620601D01*
X190539755Y-98585093D01*
X190526296Y-98547909D01*
X190512285Y-98509222D01*
X190497785Y-98469203D01*
X190482859Y-98428027D01*
X190467570Y-98385866D01*
X190451981Y-98342889D01*
X190436151Y-98299270D01*
X190420146Y-98255184D01*
X190404027Y-98210797D01*
X190387858Y-98166290D01*
X190371701Y-98121828D01*
X190355618Y-98077586D01*
X190339672Y-98033736D01*
X190323927Y-97990450D01*
X190308443Y-97947899D01*
X190293284Y-97906259D01*
X190278512Y-97865700D01*
X190264188Y-97826394D01*
X190250381Y-97788514D01*
X190237145Y-97752231D01*
X190224550Y-97717717D01*
X190212655Y-97685147D01*
X190201521Y-97654692D01*
X190191213Y-97626524D01*
X190181794Y-97600814D01*
X190173323Y-97577736D01*
X190165868Y-97557461D01*
X190159488Y-97540164D01*
X190154247Y-97526014D01*
X190150206Y-97515185D01*
X190147430Y-97507849D01*
X190145978Y-97504179D01*
X190145779Y-97503770D01*
X190145729Y-97503593D01*
X190145781Y-97503321D01*
X190145853Y-97503042D01*
X190145869Y-97502837D01*
X190145738Y-97502789D01*
X190145387Y-97502987D01*
X190144733Y-97503512D01*
X190143691Y-97504452D01*
X190142185Y-97505890D01*
X190140131Y-97507907D01*
X190137449Y-97510591D01*
X190134055Y-97514027D01*
X190129870Y-97518299D01*
X190124812Y-97523490D01*
X190118797Y-97529686D01*
X190111749Y-97536972D01*
X190103582Y-97545433D01*
X190094221Y-97555148D01*
X190083579Y-97566208D01*
X190071577Y-97578695D01*
X190058130Y-97592693D01*
X190043160Y-97608288D01*
X190026587Y-97625562D01*
X190008328Y-97644601D01*
X189988300Y-97665492D01*
X189966426Y-97688318D01*
X189942620Y-97713160D01*
X189916804Y-97740106D01*
X189888895Y-97769241D01*
X189858813Y-97800646D01*
X189826476Y-97834409D01*
X189791802Y-97870612D01*
X189754711Y-97909343D01*
X189715120Y-97950682D01*
X189672951Y-97994718D01*
X189628118Y-98041532D01*
X189580545Y-98091211D01*
X189544700Y-98128639D01*
X189506050Y-98169006D01*
X189468144Y-98208605D01*
X189431087Y-98247333D01*
X189394980Y-98285079D01*
X189359922Y-98321740D01*
X189326015Y-98357210D01*
X189293362Y-98391383D01*
X189262062Y-98424153D01*
X189232218Y-98455413D01*
X189203926Y-98485059D01*
X189177294Y-98512981D01*
X189152417Y-98539077D01*
X189129400Y-98563241D01*
X189108343Y-98585364D01*
X189089346Y-98605342D01*
X189072513Y-98623069D01*
X189057943Y-98638437D01*
X189045735Y-98651344D01*
X189035992Y-98661681D01*
X189028816Y-98669341D01*
X189024309Y-98674222D01*
X189022569Y-98676214D01*
X189022552Y-98676257D01*
X188534177Y-98676257D01*
X188397997Y-98302111D01*
X188243363Y-97877255D01*
X188351031Y-97838068D01*
X188458700Y-97798880D01*
X188608717Y-98209514D01*
X188758736Y-98620149D01*
X189442224Y-97906187D01*
X190125713Y-97192225D01*
X190191770Y-97168136D01*
X190257828Y-97144051D01*
X190412463Y-97568905D01*
G37*
G36*
X185636123Y-125150417D02*
G01*
X185640094Y-125154584D01*
X185646177Y-125160998D01*
X185653998Y-125169264D01*
X185663188Y-125178990D01*
X185673370Y-125189781D01*
X185673867Y-125190306D01*
X185684056Y-125201193D01*
X185693200Y-125211120D01*
X185700935Y-125219681D01*
X185706899Y-125226469D01*
X185710725Y-125231074D01*
X185712053Y-125233092D01*
X185712048Y-125233115D01*
X185710469Y-125234744D01*
X185706048Y-125239013D01*
X185698994Y-125245729D01*
X185689515Y-125254695D01*
X185677820Y-125265711D01*
X185664118Y-125278586D01*
X185648620Y-125293121D01*
X185631533Y-125309120D01*
X185613066Y-125326387D01*
X185593427Y-125344726D01*
X185572827Y-125363940D01*
X185564014Y-125372155D01*
X185543039Y-125391704D01*
X185522911Y-125410472D01*
X185503840Y-125428265D01*
X185486040Y-125444882D01*
X185469721Y-125460128D01*
X185455096Y-125473803D01*
X185442376Y-125485708D01*
X185431772Y-125495647D01*
X185423498Y-125503419D01*
X185417765Y-125508829D01*
X185414782Y-125511679D01*
X185414407Y-125512060D01*
X185414510Y-125513427D01*
X185416185Y-125516235D01*
X185419621Y-125520699D01*
X185425010Y-125527034D01*
X185432539Y-125535460D01*
X185442400Y-125546190D01*
X185454783Y-125559445D01*
X185469876Y-125575438D01*
X185471313Y-125576955D01*
X185530404Y-125639309D01*
X185307590Y-125690866D01*
X185277872Y-125697727D01*
X185249305Y-125704292D01*
X185222145Y-125710503D01*
X185196657Y-125716300D01*
X185173100Y-125721630D01*
X185151732Y-125726431D01*
X185132817Y-125730643D01*
X185116612Y-125734213D01*
X185103379Y-125737076D01*
X185093378Y-125739181D01*
X185086871Y-125740466D01*
X185084116Y-125740872D01*
X185084040Y-125740850D01*
X185084569Y-125738729D01*
X185086261Y-125732952D01*
X185089021Y-125723828D01*
X185092749Y-125711671D01*
X185097346Y-125696793D01*
X185102712Y-125679506D01*
X185108753Y-125660125D01*
X185115366Y-125638960D01*
X185122455Y-125616323D01*
X185129921Y-125592528D01*
X185137665Y-125567888D01*
X185145587Y-125542713D01*
X185153591Y-125517318D01*
X185161579Y-125492014D01*
X185169450Y-125467114D01*
X185177107Y-125442931D01*
X185184451Y-125419778D01*
X185191383Y-125397966D01*
X185197806Y-125377808D01*
X185203618Y-125359616D01*
X185208724Y-125343704D01*
X185213025Y-125330383D01*
X185216421Y-125319966D01*
X185218814Y-125312764D01*
X185220107Y-125309093D01*
X185220301Y-125308678D01*
X185221837Y-125310050D01*
X185225874Y-125314177D01*
X185232104Y-125320735D01*
X185240222Y-125329392D01*
X185249924Y-125339826D01*
X185260902Y-125351710D01*
X185272853Y-125364718D01*
X185276207Y-125368381D01*
X185288398Y-125381680D01*
X185299720Y-125393984D01*
X185309863Y-125404961D01*
X185318516Y-125414279D01*
X185325374Y-125421603D01*
X185330123Y-125426601D01*
X185332455Y-125428940D01*
X185332627Y-125429070D01*
X185334284Y-125427750D01*
X185338731Y-125423817D01*
X185345717Y-125417506D01*
X185354989Y-125409049D01*
X185366295Y-125398681D01*
X185379382Y-125386636D01*
X185394002Y-125373149D01*
X185409898Y-125358452D01*
X185426819Y-125342780D01*
X185444512Y-125326368D01*
X185462727Y-125309449D01*
X185481212Y-125292257D01*
X185499713Y-125275024D01*
X185517979Y-125257991D01*
X185535758Y-125241384D01*
X185552797Y-125225441D01*
X185568844Y-125210395D01*
X185583647Y-125196480D01*
X185596953Y-125183932D01*
X185606761Y-125174646D01*
X185615516Y-125166373D01*
X185623165Y-125159215D01*
X185629223Y-125153619D01*
X185633210Y-125150031D01*
X185634637Y-125148888D01*
X185636123Y-125150417D01*
G37*
G36*
X185208976Y-124701464D02*
G01*
X185213319Y-124705358D01*
X185219719Y-124711532D01*
X185227786Y-124719603D01*
X185237130Y-124729187D01*
X185247358Y-124739897D01*
X185247471Y-124740017D01*
X185257655Y-124750796D01*
X185266853Y-124760559D01*
X185274692Y-124768902D01*
X185280797Y-124775426D01*
X185284789Y-124779730D01*
X185286296Y-124781414D01*
X185286297Y-124781416D01*
X185285445Y-124782568D01*
X185282563Y-124785572D01*
X185277565Y-124790514D01*
X185270361Y-124797476D01*
X185260864Y-124806540D01*
X185248984Y-124817792D01*
X185234633Y-124831313D01*
X185217724Y-124847188D01*
X185198166Y-124865499D01*
X185175875Y-124886329D01*
X185150758Y-124909762D01*
X185122729Y-124935882D01*
X185101692Y-124955472D01*
X185083290Y-124972614D01*
X185065792Y-124988937D01*
X185049433Y-125004218D01*
X185034454Y-125018236D01*
X185021089Y-125030767D01*
X185009578Y-125041588D01*
X185000155Y-125050476D01*
X184993062Y-125057207D01*
X184988533Y-125061562D01*
X184986806Y-125063313D01*
X184986796Y-125063330D01*
X184988075Y-125065087D01*
X184991930Y-125069535D01*
X184998066Y-125076350D01*
X185006181Y-125085208D01*
X185015982Y-125095785D01*
X185027168Y-125107756D01*
X185039442Y-125120797D01*
X185044972Y-125126645D01*
X185057555Y-125140010D01*
X185069103Y-125152427D01*
X185079331Y-125163580D01*
X185087952Y-125173146D01*
X185094676Y-125180806D01*
X185099220Y-125186241D01*
X185101295Y-125189130D01*
X185101349Y-125189513D01*
X185098977Y-125190116D01*
X185092873Y-125191559D01*
X185083359Y-125193768D01*
X185070759Y-125196669D01*
X185055395Y-125200191D01*
X185037595Y-125204259D01*
X185017678Y-125208800D01*
X184995973Y-125213741D01*
X184972799Y-125219009D01*
X184948483Y-125224529D01*
X184923347Y-125230230D01*
X184897715Y-125236038D01*
X184871912Y-125241878D01*
X184846262Y-125247679D01*
X184821087Y-125253368D01*
X184796712Y-125258868D01*
X184773459Y-125264110D01*
X184751655Y-125269017D01*
X184731622Y-125273519D01*
X184713685Y-125277542D01*
X184698165Y-125281011D01*
X184685388Y-125283854D01*
X184675678Y-125285996D01*
X184669358Y-125287367D01*
X184666752Y-125287891D01*
X184666714Y-125287895D01*
X184666894Y-125285915D01*
X184668307Y-125279972D01*
X184670949Y-125270076D01*
X184674814Y-125256245D01*
X184679901Y-125238495D01*
X184686203Y-125216835D01*
X184693720Y-125191285D01*
X184702442Y-125161857D01*
X184712370Y-125128564D01*
X184723496Y-125091423D01*
X184728864Y-125073556D01*
X184737558Y-125044659D01*
X184745922Y-125016902D01*
X184753874Y-124990541D01*
X184761340Y-124965835D01*
X184768239Y-124943043D01*
X184774492Y-124922423D01*
X184780023Y-124904233D01*
X184784752Y-124888733D01*
X184788600Y-124876178D01*
X184791490Y-124866831D01*
X184793343Y-124860947D01*
X184794080Y-124858785D01*
X184794085Y-124858781D01*
X184795633Y-124860155D01*
X184799736Y-124864247D01*
X184806090Y-124870740D01*
X184814389Y-124879319D01*
X184824329Y-124889670D01*
X184835608Y-124901478D01*
X184847920Y-124914425D01*
X184853403Y-124920210D01*
X184866077Y-124933547D01*
X184877866Y-124945868D01*
X184888465Y-124956858D01*
X184897567Y-124966205D01*
X184904863Y-124973591D01*
X184910048Y-124978705D01*
X184912816Y-124981231D01*
X184913184Y-124981444D01*
X184914826Y-124979946D01*
X184919264Y-124975755D01*
X184926291Y-124969070D01*
X184935700Y-124960085D01*
X184947283Y-124949003D01*
X184960834Y-124936019D01*
X184976149Y-124921329D01*
X184993021Y-124905133D01*
X185011241Y-124887630D01*
X185030604Y-124869016D01*
X185050905Y-124849490D01*
X185059760Y-124840969D01*
X185080411Y-124821104D01*
X185100228Y-124802064D01*
X185119000Y-124784047D01*
X185136522Y-124767252D01*
X185152585Y-124751874D01*
X185166981Y-124738115D01*
X185179504Y-124726173D01*
X185189945Y-124716248D01*
X185198095Y-124708534D01*
X185203750Y-124703232D01*
X185206698Y-124700539D01*
X185207080Y-124700235D01*
X185208976Y-124701464D01*
G37*
G36*
X185118516Y-122965412D02*
G01*
X185226184Y-123004601D01*
X185077154Y-123415594D01*
X184928124Y-123826589D01*
X185910632Y-123719000D01*
X186893141Y-123611411D01*
X186959227Y-123635420D01*
X187025312Y-123659430D01*
X186870679Y-124084284D01*
X186761041Y-124385514D01*
X186716045Y-124509139D01*
X187352295Y-124740715D01*
X187988545Y-124972291D01*
X187949708Y-125078993D01*
X187910871Y-125185696D01*
X187274622Y-124954120D01*
X186638372Y-124722544D01*
X186472337Y-125178725D01*
X186457052Y-125220698D01*
X186442136Y-125261628D01*
X186427654Y-125301339D01*
X186413667Y-125339661D01*
X186400236Y-125376424D01*
X186387427Y-125411455D01*
X186375301Y-125444582D01*
X186363922Y-125475635D01*
X186353353Y-125504440D01*
X186343656Y-125530827D01*
X186334895Y-125554626D01*
X186327133Y-125575663D01*
X186320432Y-125593767D01*
X186314856Y-125608768D01*
X186310466Y-125620492D01*
X186307328Y-125628769D01*
X186305504Y-125633428D01*
X186305037Y-125634444D01*
X186303530Y-125632925D01*
X186299230Y-125628485D01*
X186292217Y-125621214D01*
X186282582Y-125611202D01*
X186270407Y-125598533D01*
X186255780Y-125583303D01*
X186238785Y-125565599D01*
X186219507Y-125545509D01*
X186198033Y-125523123D01*
X186174449Y-125498531D01*
X186148838Y-125471821D01*
X186121287Y-125443082D01*
X186091883Y-125412407D01*
X186060709Y-125379881D01*
X186027854Y-125345596D01*
X185993400Y-125309639D01*
X185957434Y-125272101D01*
X185920043Y-125233070D01*
X185881310Y-125192637D01*
X185841321Y-125150889D01*
X185800164Y-125107918D01*
X185757923Y-125063810D01*
X185714682Y-125018659D01*
X185670530Y-124972549D01*
X185625549Y-124925573D01*
X185579827Y-124877817D01*
X185568699Y-124866195D01*
X185522802Y-124818255D01*
X185477623Y-124771068D01*
X185433247Y-124724722D01*
X185389762Y-124679305D01*
X185347251Y-124634907D01*
X185305802Y-124591621D01*
X185265500Y-124549532D01*
X185226430Y-124508732D01*
X185188678Y-124469310D01*
X185152329Y-124431356D01*
X185117472Y-124394958D01*
X185084189Y-124360207D01*
X185052567Y-124327191D01*
X185022692Y-124296003D01*
X184994649Y-124266726D01*
X184968524Y-124239455D01*
X184944405Y-124214277D01*
X184922374Y-124191283D01*
X184902518Y-124170562D01*
X184884923Y-124152203D01*
X184869676Y-124136296D01*
X184856860Y-124122930D01*
X184846563Y-124112195D01*
X184838870Y-124104181D01*
X184833867Y-124098975D01*
X184831638Y-124096669D01*
X184831527Y-124096557D01*
X184831028Y-124097021D01*
X184830017Y-124098964D01*
X184828446Y-124102514D01*
X184826264Y-124107806D01*
X184823422Y-124114973D01*
X184819873Y-124124148D01*
X184815564Y-124135464D01*
X184810448Y-124149053D01*
X184804474Y-124165049D01*
X184797596Y-124183585D01*
X184789762Y-124204795D01*
X184780922Y-124228809D01*
X184771030Y-124255763D01*
X184760034Y-124285788D01*
X184747885Y-124319018D01*
X184734533Y-124355584D01*
X184719931Y-124395622D01*
X184704029Y-124439264D01*
X184686776Y-124486643D01*
X184680061Y-124505089D01*
X184530695Y-124915469D01*
X184423022Y-124876280D01*
X184315350Y-124837089D01*
X184469627Y-124413214D01*
X184605776Y-124039148D01*
X185094153Y-124039148D01*
X185095568Y-124040743D01*
X185099747Y-124045220D01*
X185106571Y-124052458D01*
X185115919Y-124062328D01*
X185127675Y-124074708D01*
X185141715Y-124089473D01*
X185157924Y-124106498D01*
X185176182Y-124125659D01*
X185196365Y-124146831D01*
X185218360Y-124169888D01*
X185242045Y-124194707D01*
X185267300Y-124221162D01*
X185294008Y-124249130D01*
X185322047Y-124278484D01*
X185351299Y-124309102D01*
X185381644Y-124340858D01*
X185412964Y-124373628D01*
X185445139Y-124407285D01*
X185478051Y-124441706D01*
X185511577Y-124476768D01*
X185545600Y-124512344D01*
X185580003Y-124548307D01*
X185614663Y-124584538D01*
X185649462Y-124620910D01*
X185684282Y-124657299D01*
X185719002Y-124693575D01*
X185753503Y-124729620D01*
X185787665Y-124765307D01*
X185821372Y-124800510D01*
X185854501Y-124835105D01*
X185886934Y-124868970D01*
X185918551Y-124901977D01*
X185949235Y-124934002D01*
X185978863Y-124964921D01*
X186007320Y-124994609D01*
X186034483Y-125022943D01*
X186060235Y-125049795D01*
X186084457Y-125075042D01*
X186107027Y-125098560D01*
X186127828Y-125120223D01*
X186146740Y-125139907D01*
X186163643Y-125157487D01*
X186178419Y-125172840D01*
X186190947Y-125185839D01*
X186201111Y-125196361D01*
X186208788Y-125204281D01*
X186213860Y-125209473D01*
X186216209Y-125211812D01*
X186216360Y-125211938D01*
X186217169Y-125210048D01*
X186219339Y-125204414D01*
X186222805Y-125195207D01*
X186227505Y-125182600D01*
X186233377Y-125166766D01*
X186240358Y-125147875D01*
X186248385Y-125126101D01*
X186257396Y-125101616D01*
X186267327Y-125074593D01*
X186278115Y-125045201D01*
X186289697Y-125013616D01*
X186302013Y-124980009D01*
X186314997Y-124944551D01*
X186328588Y-124907415D01*
X186342723Y-124868773D01*
X186357339Y-124828797D01*
X186372372Y-124787660D01*
X186387761Y-124745535D01*
X186403443Y-124702592D01*
X186419355Y-124659003D01*
X186435433Y-124614943D01*
X186451615Y-124570581D01*
X186467839Y-124526092D01*
X186484041Y-124481647D01*
X186500159Y-124437417D01*
X186516131Y-124393576D01*
X186531892Y-124350297D01*
X186547382Y-124307748D01*
X186562535Y-124266106D01*
X186577290Y-124225540D01*
X186591584Y-124186224D01*
X186605355Y-124148330D01*
X186618539Y-124112028D01*
X186631075Y-124077493D01*
X186642898Y-124044897D01*
X186653945Y-124014410D01*
X186664155Y-123986206D01*
X186673465Y-123960457D01*
X186681811Y-123937334D01*
X186689131Y-123917010D01*
X186695363Y-123899658D01*
X186700444Y-123885450D01*
X186704309Y-123874557D01*
X186706898Y-123867153D01*
X186708146Y-123863408D01*
X186708255Y-123862967D01*
X186708330Y-123862799D01*
X186708544Y-123862624D01*
X186708780Y-123862456D01*
X186708923Y-123862309D01*
X186708854Y-123862189D01*
X186708458Y-123862115D01*
X186707620Y-123862097D01*
X186706218Y-123862148D01*
X186704140Y-123862281D01*
X186701270Y-123862506D01*
X186697489Y-123862838D01*
X186692681Y-123863288D01*
X186686729Y-123863871D01*
X186679517Y-123864596D01*
X186670927Y-123865477D01*
X186660845Y-123866527D01*
X186649151Y-123867759D01*
X186635734Y-123869184D01*
X186620473Y-123870816D01*
X186603252Y-123872666D01*
X186583953Y-123874746D01*
X186562461Y-123877070D01*
X186538662Y-123879650D01*
X186512437Y-123882498D01*
X186483666Y-123885628D01*
X186452238Y-123889052D01*
X186418034Y-123892781D01*
X186380936Y-123896828D01*
X186340829Y-123901207D01*
X186297598Y-123905929D01*
X186251124Y-123911007D01*
X186201291Y-123916452D01*
X186147982Y-123922280D01*
X186091082Y-123928500D01*
X186030472Y-123935127D01*
X185966038Y-123942171D01*
X185897661Y-123949647D01*
X185846144Y-123955278D01*
X185790589Y-123961357D01*
X185736097Y-123967326D01*
X185682817Y-123973174D01*
X185630894Y-123978880D01*
X185580473Y-123984429D01*
X185531699Y-123989807D01*
X185484719Y-123994995D01*
X185439678Y-123999979D01*
X185396721Y-124004742D01*
X185355993Y-124009266D01*
X185317643Y-124013537D01*
X185281813Y-124017537D01*
X185248649Y-124021253D01*
X185218298Y-124024665D01*
X185190904Y-124027759D01*
X185166614Y-124030518D01*
X185145574Y-124032925D01*
X185127926Y-124034965D01*
X185113818Y-124036621D01*
X185103397Y-124037877D01*
X185096807Y-124038718D01*
X185094194Y-124039126D01*
X185094153Y-124039148D01*
X184605776Y-124039148D01*
X184623906Y-123989337D01*
X183918157Y-123732467D01*
X183212409Y-123475596D01*
X183251245Y-123368892D01*
X183290081Y-123262190D01*
X183995830Y-123519062D01*
X184701579Y-123775933D01*
X184856213Y-123351079D01*
X185010848Y-122926224D01*
X185118516Y-122965412D01*
G37*
G36*
X214746705Y-113398004D02*
G01*
X214853408Y-113436840D01*
X214621832Y-114073090D01*
X214390256Y-114709340D01*
X214846437Y-114875376D01*
X214888410Y-114890660D01*
X214929340Y-114905576D01*
X214969051Y-114920058D01*
X215007373Y-114934045D01*
X215044136Y-114947476D01*
X215079167Y-114960285D01*
X215112294Y-114972411D01*
X215143347Y-114983790D01*
X215172152Y-114994359D01*
X215198539Y-115004056D01*
X215222338Y-115012817D01*
X215243375Y-115020579D01*
X215261479Y-115027280D01*
X215276480Y-115032856D01*
X215288204Y-115037246D01*
X215296481Y-115040384D01*
X215301140Y-115042208D01*
X215302156Y-115042675D01*
X215300637Y-115044182D01*
X215296197Y-115048482D01*
X215288926Y-115055495D01*
X215278913Y-115065130D01*
X215266245Y-115077305D01*
X215251015Y-115091932D01*
X215233311Y-115108927D01*
X215213221Y-115128205D01*
X215190835Y-115149679D01*
X215166243Y-115173263D01*
X215139533Y-115198874D01*
X215110795Y-115226425D01*
X215080119Y-115255829D01*
X215047593Y-115287003D01*
X215013308Y-115319858D01*
X214977351Y-115354312D01*
X214939813Y-115390278D01*
X214900782Y-115427669D01*
X214860349Y-115466402D01*
X214818601Y-115506391D01*
X214775630Y-115547548D01*
X214731522Y-115589789D01*
X214686370Y-115633030D01*
X214640261Y-115677182D01*
X214593285Y-115722163D01*
X214545529Y-115767885D01*
X214533907Y-115779013D01*
X214485967Y-115824910D01*
X214438780Y-115870089D01*
X214392433Y-115914465D01*
X214347017Y-115957950D01*
X214302619Y-116000461D01*
X214259333Y-116041910D01*
X214217244Y-116082212D01*
X214176444Y-116121282D01*
X214137022Y-116159034D01*
X214099068Y-116195383D01*
X214062670Y-116230240D01*
X214027919Y-116263523D01*
X213994903Y-116295145D01*
X213963714Y-116325020D01*
X213934438Y-116353063D01*
X213907167Y-116379188D01*
X213881989Y-116403307D01*
X213858995Y-116425338D01*
X213838274Y-116445194D01*
X213819915Y-116462789D01*
X213804008Y-116478036D01*
X213790642Y-116490851D01*
X213779907Y-116501149D01*
X213771893Y-116508842D01*
X213766687Y-116513845D01*
X213764381Y-116516074D01*
X213764269Y-116516185D01*
X213764734Y-116516684D01*
X213766676Y-116517695D01*
X213770226Y-116519266D01*
X213775519Y-116521448D01*
X213782685Y-116524290D01*
X213791860Y-116527839D01*
X213803176Y-116532148D01*
X213816765Y-116537264D01*
X213832761Y-116543238D01*
X213851297Y-116550116D01*
X213872507Y-116557950D01*
X213896521Y-116566790D01*
X213923475Y-116576682D01*
X213953500Y-116587678D01*
X213986730Y-116599827D01*
X214023297Y-116613179D01*
X214063334Y-116627780D01*
X214106976Y-116643683D01*
X214154354Y-116660936D01*
X214172801Y-116667651D01*
X214583181Y-116817017D01*
X214543992Y-116924690D01*
X214504801Y-117032362D01*
X214080926Y-116878085D01*
X213657050Y-116723806D01*
X213400179Y-117429555D01*
X213143308Y-118135303D01*
X213036604Y-118096467D01*
X212929902Y-118057631D01*
X213186774Y-117351882D01*
X213443645Y-116646133D01*
X213018790Y-116491499D01*
X212593936Y-116336864D01*
X212633124Y-116229196D01*
X212672313Y-116121528D01*
X213083306Y-116270558D01*
X213494301Y-116419588D01*
X213386712Y-115437080D01*
X213299438Y-114640092D01*
X213529809Y-114640092D01*
X213529860Y-114641494D01*
X213529993Y-114643572D01*
X213530218Y-114646442D01*
X213530550Y-114650223D01*
X213531000Y-114655031D01*
X213531583Y-114660983D01*
X213532308Y-114668196D01*
X213533189Y-114676785D01*
X213534239Y-114686867D01*
X213535471Y-114698560D01*
X213536896Y-114711978D01*
X213538528Y-114727239D01*
X213540377Y-114744460D01*
X213542458Y-114763759D01*
X213544782Y-114785251D01*
X213547362Y-114809050D01*
X213550210Y-114835276D01*
X213553340Y-114864046D01*
X213556764Y-114895475D01*
X213560493Y-114929678D01*
X213564540Y-114966776D01*
X213568919Y-115006882D01*
X213573641Y-115050114D01*
X213578719Y-115096588D01*
X213584164Y-115146421D01*
X213589992Y-115199730D01*
X213596212Y-115256630D01*
X213602839Y-115317240D01*
X213609883Y-115381674D01*
X213617359Y-115450051D01*
X213622991Y-115501568D01*
X213629069Y-115557123D01*
X213635038Y-115611615D01*
X213640886Y-115664895D01*
X213646592Y-115716818D01*
X213652141Y-115767239D01*
X213657519Y-115816013D01*
X213662707Y-115862993D01*
X213667691Y-115908034D01*
X213672454Y-115950991D01*
X213676978Y-115991719D01*
X213681249Y-116030069D01*
X213685249Y-116065899D01*
X213688965Y-116099063D01*
X213692377Y-116129414D01*
X213695471Y-116156808D01*
X213698230Y-116181098D01*
X213700637Y-116202139D01*
X213702677Y-116219786D01*
X213704333Y-116233894D01*
X213705589Y-116244315D01*
X213706430Y-116250905D01*
X213706838Y-116253518D01*
X213706860Y-116253559D01*
X213708454Y-116252144D01*
X213712932Y-116247965D01*
X213720170Y-116241141D01*
X213730040Y-116231793D01*
X213742420Y-116220037D01*
X213757185Y-116205997D01*
X213774210Y-116189788D01*
X213793371Y-116171531D01*
X213814543Y-116151346D01*
X213837600Y-116129352D01*
X213862419Y-116105667D01*
X213888874Y-116080412D01*
X213916842Y-116053704D01*
X213946197Y-116025665D01*
X213976814Y-115996413D01*
X214008570Y-115966068D01*
X214041340Y-115934748D01*
X214074997Y-115902573D01*
X214109418Y-115869661D01*
X214144479Y-115836135D01*
X214180055Y-115802112D01*
X214216019Y-115767709D01*
X214252250Y-115733049D01*
X214288622Y-115698250D01*
X214325010Y-115663430D01*
X214361287Y-115628710D01*
X214397332Y-115594210D01*
X214433019Y-115560047D01*
X214468222Y-115526340D01*
X214502817Y-115493211D01*
X214536682Y-115460778D01*
X214569689Y-115429161D01*
X214601714Y-115398477D01*
X214632633Y-115368849D01*
X214662321Y-115340392D01*
X214690655Y-115313229D01*
X214717507Y-115287477D01*
X214742754Y-115263255D01*
X214766272Y-115240685D01*
X214787935Y-115219884D01*
X214807619Y-115200972D01*
X214825199Y-115184069D01*
X214840552Y-115169293D01*
X214853551Y-115156764D01*
X214864073Y-115146601D01*
X214871993Y-115138924D01*
X214877185Y-115133852D01*
X214879524Y-115131503D01*
X214879650Y-115131352D01*
X214877760Y-115130543D01*
X214872126Y-115128373D01*
X214862919Y-115124907D01*
X214850312Y-115120207D01*
X214834478Y-115114335D01*
X214815587Y-115107354D01*
X214793813Y-115099327D01*
X214769328Y-115090316D01*
X214742304Y-115080385D01*
X214712913Y-115069597D01*
X214681328Y-115058014D01*
X214647721Y-115045699D01*
X214612263Y-115032715D01*
X214575127Y-115019124D01*
X214536485Y-115004989D01*
X214496509Y-114990373D01*
X214455372Y-114975340D01*
X214413247Y-114959951D01*
X214370304Y-114944269D01*
X214326715Y-114928357D01*
X214282655Y-114912279D01*
X214238293Y-114896097D01*
X214193804Y-114879873D01*
X214149359Y-114863671D01*
X214105129Y-114847553D01*
X214061288Y-114831581D01*
X214018009Y-114815820D01*
X213975461Y-114800330D01*
X213933818Y-114785177D01*
X213893252Y-114770422D01*
X213853936Y-114756128D01*
X213816042Y-114742357D01*
X213779740Y-114729173D01*
X213745205Y-114716637D01*
X213712609Y-114704814D01*
X213682122Y-114693767D01*
X213653918Y-114683557D01*
X213628169Y-114674247D01*
X213605046Y-114665901D01*
X213584722Y-114658581D01*
X213567370Y-114652349D01*
X213553162Y-114647268D01*
X213542269Y-114643403D01*
X213534865Y-114640814D01*
X213531120Y-114639566D01*
X213530679Y-114639457D01*
X213530511Y-114639382D01*
X213530336Y-114639168D01*
X213530168Y-114638932D01*
X213530020Y-114638789D01*
X213529901Y-114638858D01*
X213529827Y-114639254D01*
X213529809Y-114640092D01*
X213299438Y-114640092D01*
X213279123Y-114454571D01*
X213303133Y-114388485D01*
X213327142Y-114322399D01*
X213751996Y-114477033D01*
X214053226Y-114586671D01*
X214176851Y-114631667D01*
X214408427Y-113995417D01*
X214640003Y-113359167D01*
X214746705Y-113398004D01*
G37*
G36*
X214450280Y-116062267D02*
G01*
X214453284Y-116065149D01*
X214458226Y-116070147D01*
X214465188Y-116077351D01*
X214474252Y-116086848D01*
X214485504Y-116098728D01*
X214499025Y-116113079D01*
X214514900Y-116129988D01*
X214533211Y-116149546D01*
X214554041Y-116171837D01*
X214577474Y-116196954D01*
X214603594Y-116224983D01*
X214623184Y-116246020D01*
X214640326Y-116264422D01*
X214656649Y-116281920D01*
X214671930Y-116298279D01*
X214685948Y-116313258D01*
X214698479Y-116326623D01*
X214709300Y-116338134D01*
X214718188Y-116347557D01*
X214724919Y-116354650D01*
X214729274Y-116359179D01*
X214731025Y-116360906D01*
X214731042Y-116360916D01*
X214732799Y-116359637D01*
X214737247Y-116355782D01*
X214744062Y-116349646D01*
X214752920Y-116341531D01*
X214763497Y-116331730D01*
X214775468Y-116320544D01*
X214788510Y-116308270D01*
X214794357Y-116302740D01*
X214807722Y-116290157D01*
X214820139Y-116278609D01*
X214831292Y-116268381D01*
X214840858Y-116259760D01*
X214848518Y-116253036D01*
X214853953Y-116248492D01*
X214856842Y-116246417D01*
X214857225Y-116246363D01*
X214857828Y-116248735D01*
X214859271Y-116254839D01*
X214861480Y-116264353D01*
X214864381Y-116276953D01*
X214867903Y-116292317D01*
X214871971Y-116310117D01*
X214876512Y-116330034D01*
X214881453Y-116351739D01*
X214886721Y-116374913D01*
X214892241Y-116399229D01*
X214897942Y-116424365D01*
X214903750Y-116449997D01*
X214909590Y-116475800D01*
X214915391Y-116501451D01*
X214921080Y-116526625D01*
X214926580Y-116551000D01*
X214931822Y-116574253D01*
X214936729Y-116596057D01*
X214941231Y-116616090D01*
X214945254Y-116634027D01*
X214948723Y-116649547D01*
X214951565Y-116662324D01*
X214953708Y-116672034D01*
X214955079Y-116678354D01*
X214955603Y-116680960D01*
X214955607Y-116680998D01*
X214953627Y-116680818D01*
X214947684Y-116679405D01*
X214937788Y-116676763D01*
X214923957Y-116672898D01*
X214906207Y-116667811D01*
X214884548Y-116661509D01*
X214858997Y-116653992D01*
X214829569Y-116645270D01*
X214796276Y-116635342D01*
X214759135Y-116624216D01*
X214741268Y-116618848D01*
X214712371Y-116610154D01*
X214684614Y-116601790D01*
X214658253Y-116593838D01*
X214633547Y-116586372D01*
X214610755Y-116579473D01*
X214590135Y-116573220D01*
X214571945Y-116567689D01*
X214556445Y-116562960D01*
X214543890Y-116559112D01*
X214534543Y-116556222D01*
X214528659Y-116554369D01*
X214526497Y-116553632D01*
X214526493Y-116553627D01*
X214527867Y-116552079D01*
X214531959Y-116547976D01*
X214538452Y-116541622D01*
X214547031Y-116533323D01*
X214557382Y-116523383D01*
X214569190Y-116512104D01*
X214582137Y-116499792D01*
X214587922Y-116494309D01*
X214601259Y-116481635D01*
X214613580Y-116469846D01*
X214624570Y-116459247D01*
X214633917Y-116450145D01*
X214641303Y-116442849D01*
X214646417Y-116437664D01*
X214648943Y-116434896D01*
X214649156Y-116434528D01*
X214647658Y-116432885D01*
X214643467Y-116428447D01*
X214636782Y-116421421D01*
X214627797Y-116412012D01*
X214616715Y-116400429D01*
X214603730Y-116386878D01*
X214589041Y-116371563D01*
X214572845Y-116354691D01*
X214555343Y-116336471D01*
X214536728Y-116317108D01*
X214517202Y-116296807D01*
X214508681Y-116287952D01*
X214488816Y-116267301D01*
X214469776Y-116247484D01*
X214451758Y-116228712D01*
X214434963Y-116211190D01*
X214419586Y-116195127D01*
X214405827Y-116180731D01*
X214393885Y-116168208D01*
X214383960Y-116157767D01*
X214376245Y-116149617D01*
X214370944Y-116143963D01*
X214368251Y-116141014D01*
X214367947Y-116140632D01*
X214369176Y-116138736D01*
X214373070Y-116134393D01*
X214379244Y-116127993D01*
X214387315Y-116119926D01*
X214396899Y-116110582D01*
X214407609Y-116100354D01*
X214407729Y-116100241D01*
X214418508Y-116090058D01*
X214428271Y-116080859D01*
X214436614Y-116073020D01*
X214443138Y-116066915D01*
X214447442Y-116062923D01*
X214449126Y-116061416D01*
X214449128Y-116061415D01*
X214450280Y-116062267D01*
G37*
G36*
X214900827Y-115635664D02*
G01*
X214902456Y-115637243D01*
X214906726Y-115641664D01*
X214913441Y-115648719D01*
X214922407Y-115658197D01*
X214933423Y-115669892D01*
X214946298Y-115683594D01*
X214960833Y-115699092D01*
X214976832Y-115716179D01*
X214994099Y-115734646D01*
X215012438Y-115754285D01*
X215031652Y-115774885D01*
X215039867Y-115783698D01*
X215059415Y-115804673D01*
X215078184Y-115824801D01*
X215095977Y-115843872D01*
X215112594Y-115861672D01*
X215127840Y-115877991D01*
X215141515Y-115892616D01*
X215153420Y-115905336D01*
X215163358Y-115915940D01*
X215171131Y-115924214D01*
X215176541Y-115929947D01*
X215179391Y-115932930D01*
X215179772Y-115933305D01*
X215181139Y-115933202D01*
X215183947Y-115931528D01*
X215188411Y-115928091D01*
X215194746Y-115922702D01*
X215203172Y-115915174D01*
X215213902Y-115905312D01*
X215227157Y-115892929D01*
X215243150Y-115877836D01*
X215244667Y-115876399D01*
X215307022Y-115817308D01*
X215358578Y-116040122D01*
X215365439Y-116069840D01*
X215372004Y-116098407D01*
X215378215Y-116125567D01*
X215384013Y-116151055D01*
X215389342Y-116174613D01*
X215394143Y-116195980D01*
X215398355Y-116214896D01*
X215401925Y-116231100D01*
X215404789Y-116244333D01*
X215406893Y-116254334D01*
X215408178Y-116260841D01*
X215408584Y-116263596D01*
X215408562Y-116263672D01*
X215406441Y-116263143D01*
X215400664Y-116261451D01*
X215391540Y-116258691D01*
X215379383Y-116254963D01*
X215364505Y-116250366D01*
X215347218Y-116245000D01*
X215327837Y-116238959D01*
X215306672Y-116232345D01*
X215284035Y-116225257D01*
X215260240Y-116217791D01*
X215235600Y-116210047D01*
X215210425Y-116202125D01*
X215185030Y-116194121D01*
X215159726Y-116186133D01*
X215134826Y-116178262D01*
X215110643Y-116170605D01*
X215087490Y-116163261D01*
X215065678Y-116156329D01*
X215045520Y-116149907D01*
X215027328Y-116144094D01*
X215011416Y-116138988D01*
X214998095Y-116134687D01*
X214987678Y-116131291D01*
X214980476Y-116128898D01*
X214976805Y-116127605D01*
X214976390Y-116127411D01*
X214977762Y-116125875D01*
X214981889Y-116121838D01*
X214988446Y-116115608D01*
X214997104Y-116107490D01*
X215007538Y-116097788D01*
X215019422Y-116086810D01*
X215032430Y-116074859D01*
X215036093Y-116071505D01*
X215049392Y-116059314D01*
X215061696Y-116047992D01*
X215072673Y-116037849D01*
X215081991Y-116029196D01*
X215089315Y-116022338D01*
X215094313Y-116017589D01*
X215096652Y-116015257D01*
X215096782Y-116015085D01*
X215095462Y-116013428D01*
X215091529Y-116008981D01*
X215085218Y-116001995D01*
X215076761Y-115992723D01*
X215066393Y-115981417D01*
X215054348Y-115968329D01*
X215040861Y-115953710D01*
X215026164Y-115937814D01*
X215010492Y-115920893D01*
X214994080Y-115903200D01*
X214977161Y-115884985D01*
X214959969Y-115866500D01*
X214942737Y-115847999D01*
X214925703Y-115829733D01*
X214909096Y-115811954D01*
X214893153Y-115794915D01*
X214878107Y-115778868D01*
X214864192Y-115764065D01*
X214851644Y-115750758D01*
X214842358Y-115740951D01*
X214834085Y-115732196D01*
X214826927Y-115724547D01*
X214821331Y-115718489D01*
X214817743Y-115714502D01*
X214816600Y-115713075D01*
X214818129Y-115711589D01*
X214822296Y-115707618D01*
X214828711Y-115701535D01*
X214836976Y-115693713D01*
X214846702Y-115684524D01*
X214857493Y-115674341D01*
X214858018Y-115673845D01*
X214868905Y-115663656D01*
X214878832Y-115654512D01*
X214887393Y-115646777D01*
X214894181Y-115640814D01*
X214898786Y-115636987D01*
X214900804Y-115635659D01*
X214900827Y-115635664D01*
G37*
D12*
%TO.C,SW1*%
X206714703Y-138121174D02*
X201546394Y-140002285D01*
X198981243Y-132954590D01*
X204149552Y-131073479D01*
X206714703Y-138121174D01*
X207964675Y-129684888D02*
X195457395Y-134237165D01*
X193618995Y-129186202D01*
X206126275Y-124633925D01*
X207964675Y-129684888D01*
%TD*%
M02*
