%TF.GenerationSoftware,KiCad,Pcbnew,9.0.1*%
%TF.CreationDate,2025-05-11T16:48:53+02:00*%
%TF.ProjectId,Freilab_Blinkies,46726569-6c61-4625-9f42-6c696e6b6965,rev?*%
%TF.SameCoordinates,Original*%
%TF.FileFunction,Legend,Top*%
%TF.FilePolarity,Positive*%
%FSLAX46Y46*%
G04 Gerber Fmt 4.6, Leading zero omitted, Abs format (unit mm)*
G04 Created by KiCad (PCBNEW 9.0.1) date 2025-05-11 16:48:53*
%MOMM*%
%LPD*%
G01*
G04 APERTURE LIST*
%ADD10C,0.300000*%
%ADD11C,0.100000*%
%ADD12C,0.150000*%
%ADD13C,0.000000*%
G04 APERTURE END LIST*
D10*
X189945489Y-121729400D02*
X188802632Y-121729400D01*
X189374060Y-122300828D02*
X189374060Y-121157971D01*
X209804143Y-111898586D02*
X208661286Y-111898586D01*
X209232714Y-112470014D02*
X209232714Y-111327157D01*
X194867471Y-102374507D02*
X193724614Y-102374507D01*
X194296042Y-102945935D02*
X194296042Y-101803078D01*
D11*
X192037135Y-103817723D02*
X192379155Y-104757416D01*
X192379155Y-104757416D02*
X192155419Y-104838849D01*
X192155419Y-104838849D02*
X192004891Y-104842962D01*
X192004891Y-104842962D02*
X191882823Y-104786040D01*
X191882823Y-104786040D02*
X191805502Y-104712833D01*
X191805502Y-104712833D02*
X191695608Y-104550130D01*
X191695608Y-104550130D02*
X191646748Y-104415888D01*
X191646748Y-104415888D02*
X191626349Y-104220613D01*
X191626349Y-104220613D02*
X191638523Y-104114831D01*
X191638523Y-104114831D02*
X191695444Y-103992764D01*
X191695444Y-103992764D02*
X191813399Y-103899156D01*
X191813399Y-103899156D02*
X192037135Y-103817723D01*
X190605223Y-104338896D02*
X191142190Y-104143456D01*
X190873706Y-104241176D02*
X191215726Y-105180869D01*
X191215726Y-105180869D02*
X191256361Y-105014054D01*
X191256361Y-105014054D02*
X191313282Y-104891986D01*
X191313282Y-104891986D02*
X191386490Y-104814665D01*
X187565328Y-116986138D02*
X187907348Y-116046445D01*
X187907348Y-116046445D02*
X188131084Y-116127878D01*
X188131084Y-116127878D02*
X188249039Y-116221486D01*
X188249039Y-116221486D02*
X188305961Y-116343553D01*
X188305961Y-116343553D02*
X188318134Y-116449335D01*
X188318134Y-116449335D02*
X188297735Y-116644610D01*
X188297735Y-116644610D02*
X188248875Y-116778852D01*
X188248875Y-116778852D02*
X188138981Y-116941555D01*
X188138981Y-116941555D02*
X188061660Y-117014762D01*
X188061660Y-117014762D02*
X187939593Y-117071684D01*
X187939593Y-117071684D02*
X187789064Y-117067571D01*
X187789064Y-117067571D02*
X187565328Y-116986138D01*
X188769720Y-116461673D02*
X188830754Y-116433212D01*
X188830754Y-116433212D02*
X188936535Y-116421038D01*
X188936535Y-116421038D02*
X189160271Y-116502472D01*
X189160271Y-116502472D02*
X189233479Y-116579792D01*
X189233479Y-116579792D02*
X189261940Y-116640826D01*
X189261940Y-116640826D02*
X189274114Y-116746608D01*
X189274114Y-116746608D02*
X189241540Y-116836102D01*
X189241540Y-116836102D02*
X189147933Y-116954057D01*
X189147933Y-116954057D02*
X188415526Y-117295584D01*
X188415526Y-117295584D02*
X188997240Y-117507311D01*
X208486138Y-114494977D02*
X207546445Y-114152957D01*
X207546445Y-114152957D02*
X207627878Y-113929221D01*
X207627878Y-113929221D02*
X207721486Y-113811266D01*
X207721486Y-113811266D02*
X207843553Y-113754344D01*
X207843553Y-113754344D02*
X207949335Y-113742171D01*
X207949335Y-113742171D02*
X208144610Y-113762570D01*
X208144610Y-113762570D02*
X208278852Y-113811430D01*
X208278852Y-113811430D02*
X208441555Y-113921324D01*
X208441555Y-113921324D02*
X208514762Y-113998645D01*
X208514762Y-113998645D02*
X208571684Y-114120712D01*
X208571684Y-114120712D02*
X208567571Y-114271241D01*
X208567571Y-114271241D02*
X208486138Y-114494977D01*
X207855892Y-113302759D02*
X208067618Y-112721045D01*
X208067618Y-112721045D02*
X208311590Y-113164569D01*
X208311590Y-113164569D02*
X208360450Y-113030327D01*
X208360450Y-113030327D02*
X208437771Y-112957119D01*
X208437771Y-112957119D02*
X208498804Y-112928659D01*
X208498804Y-112928659D02*
X208604586Y-112916485D01*
X208604586Y-112916485D02*
X208828322Y-112997918D01*
X208828322Y-112997918D02*
X208901530Y-113075239D01*
X208901530Y-113075239D02*
X208929990Y-113136273D01*
X208929990Y-113136273D02*
X208942164Y-113242054D01*
X208942164Y-113242054D02*
X208844444Y-113510537D01*
X208844444Y-113510537D02*
X208767124Y-113583745D01*
X208767124Y-113583745D02*
X208706090Y-113612206D01*
D12*
X200225892Y-124760927D02*
X200075363Y-124765040D01*
X200075363Y-124765040D02*
X199851627Y-124846473D01*
X199851627Y-124846473D02*
X199778419Y-124923794D01*
X199778419Y-124923794D02*
X199749959Y-124984828D01*
X199749959Y-124984828D02*
X199737785Y-125090609D01*
X199737785Y-125090609D02*
X199770358Y-125180103D01*
X199770358Y-125180103D02*
X199847679Y-125253311D01*
X199847679Y-125253311D02*
X199908713Y-125281772D01*
X199908713Y-125281772D02*
X200014494Y-125293946D01*
X200014494Y-125293946D02*
X200209770Y-125273546D01*
X200209770Y-125273546D02*
X200315551Y-125285720D01*
X200315551Y-125285720D02*
X200376585Y-125314181D01*
X200376585Y-125314181D02*
X200453905Y-125387389D01*
X200453905Y-125387389D02*
X200486479Y-125476883D01*
X200486479Y-125476883D02*
X200474305Y-125582664D01*
X200474305Y-125582664D02*
X200445844Y-125643698D01*
X200445844Y-125643698D02*
X200372636Y-125721019D01*
X200372636Y-125721019D02*
X200148900Y-125802452D01*
X200148900Y-125802452D02*
X199998371Y-125806565D01*
X199701427Y-125965319D02*
X199135671Y-125107060D01*
X199135671Y-125107060D02*
X199200982Y-125843416D01*
X199200982Y-125843416D02*
X198777693Y-125237353D01*
X198777693Y-125237353D02*
X198895976Y-126258479D01*
X197703758Y-125628233D02*
X198240726Y-125432793D01*
X197972242Y-125530513D02*
X198314262Y-126470206D01*
X198314262Y-126470206D02*
X198354897Y-126303391D01*
X198354897Y-126303391D02*
X198411818Y-126181323D01*
X198411818Y-126181323D02*
X198485026Y-126104002D01*
D13*
%TO.C,G\u002A\u002A\u002A*%
G36*
X190152035Y-99179167D02*
G01*
X190157755Y-99179806D01*
X190166538Y-99180810D01*
X190177842Y-99182116D01*
X190191135Y-99183659D01*
X190205871Y-99185380D01*
X190206589Y-99185463D01*
X190221393Y-99187252D01*
X190234778Y-99188980D01*
X190246206Y-99190568D01*
X190255138Y-99191931D01*
X190261028Y-99193000D01*
X190263343Y-99193694D01*
X190263354Y-99193714D01*
X190263193Y-99195976D01*
X190262549Y-99202088D01*
X190261463Y-99211768D01*
X190259964Y-99224730D01*
X190258087Y-99240685D01*
X190255865Y-99259356D01*
X190253337Y-99280452D01*
X190250531Y-99303691D01*
X190247486Y-99328788D01*
X190244228Y-99355461D01*
X190240797Y-99383419D01*
X190239325Y-99395378D01*
X190235825Y-99423837D01*
X190232471Y-99451152D01*
X190229298Y-99477041D01*
X190226343Y-99501212D01*
X190223643Y-99523381D01*
X190221228Y-99543256D01*
X190219137Y-99560553D01*
X190217403Y-99574983D01*
X190216060Y-99586255D01*
X190215146Y-99594084D01*
X190214693Y-99598185D01*
X190214651Y-99598718D01*
X190215609Y-99599700D01*
X190218695Y-99600773D01*
X190224198Y-99601984D01*
X190232398Y-99603374D01*
X190243582Y-99604988D01*
X190258033Y-99606870D01*
X190276039Y-99609064D01*
X190297882Y-99611614D01*
X190299957Y-99611852D01*
X190385304Y-99621636D01*
X190247758Y-99804352D01*
X190229403Y-99828710D01*
X190211739Y-99852102D01*
X190194926Y-99874318D01*
X190179127Y-99895141D01*
X190164508Y-99914367D01*
X190151226Y-99931779D01*
X190139443Y-99947166D01*
X190129324Y-99960316D01*
X190121027Y-99971015D01*
X190114719Y-99979056D01*
X190110561Y-99984224D01*
X190108711Y-99986305D01*
X190108639Y-99986338D01*
X190107680Y-99984372D01*
X190105263Y-99978859D01*
X190101513Y-99970097D01*
X190096554Y-99958387D01*
X190090512Y-99944035D01*
X190083510Y-99927342D01*
X190075681Y-99908612D01*
X190067142Y-99888150D01*
X190058022Y-99866252D01*
X190048446Y-99843224D01*
X190038540Y-99819372D01*
X190028426Y-99794994D01*
X190018234Y-99770395D01*
X190008088Y-99745877D01*
X189998111Y-99721743D01*
X189988434Y-99698296D01*
X189979176Y-99675839D01*
X189970466Y-99654674D01*
X189962429Y-99635103D01*
X189955188Y-99617432D01*
X189948871Y-99601960D01*
X189943604Y-99588991D01*
X189939508Y-99578829D01*
X189936713Y-99571773D01*
X189935343Y-99568130D01*
X189935226Y-99567687D01*
X189937284Y-99567751D01*
X189943028Y-99568318D01*
X189952017Y-99569337D01*
X189963801Y-99570750D01*
X189977940Y-99572508D01*
X189993987Y-99574553D01*
X190011504Y-99576837D01*
X190016428Y-99577487D01*
X190034315Y-99579838D01*
X190050897Y-99581987D01*
X190065723Y-99583876D01*
X190078342Y-99585452D01*
X190088303Y-99586654D01*
X190095153Y-99587429D01*
X190098444Y-99587722D01*
X190098659Y-99587711D01*
X190099079Y-99585635D01*
X190099957Y-99579764D01*
X190101253Y-99570439D01*
X190102920Y-99558000D01*
X190104916Y-99542791D01*
X190107199Y-99525151D01*
X190109729Y-99505422D01*
X190112459Y-99483945D01*
X190115347Y-99461063D01*
X190118352Y-99437119D01*
X190121431Y-99412450D01*
X190124540Y-99387398D01*
X190127634Y-99362304D01*
X190130679Y-99337515D01*
X190133624Y-99313365D01*
X190136428Y-99290200D01*
X190139049Y-99268360D01*
X190141443Y-99248185D01*
X190143572Y-99230019D01*
X190145117Y-99216601D01*
X190146506Y-99204636D01*
X190147765Y-99194235D01*
X190148808Y-99186055D01*
X190149556Y-99180744D01*
X190149914Y-99178951D01*
X190152035Y-99179167D01*
G37*
G36*
X189542070Y-99110005D02*
G01*
X189550942Y-99110620D01*
X189562309Y-99111619D01*
X189575627Y-99112954D01*
X189590347Y-99114584D01*
X189590511Y-99114603D01*
X189605241Y-99116314D01*
X189618562Y-99117881D01*
X189629930Y-99119233D01*
X189638800Y-99120306D01*
X189644625Y-99121038D01*
X189646862Y-99121359D01*
X189646864Y-99121360D01*
X189646952Y-99122791D01*
X189646675Y-99126944D01*
X189646023Y-99133942D01*
X189644978Y-99143906D01*
X189643531Y-99156953D01*
X189641663Y-99173209D01*
X189639360Y-99192792D01*
X189636611Y-99215822D01*
X189633399Y-99242421D01*
X189629712Y-99272706D01*
X189625534Y-99306801D01*
X189620852Y-99344827D01*
X189617329Y-99373356D01*
X189614252Y-99398316D01*
X189611339Y-99422068D01*
X189608631Y-99444289D01*
X189606166Y-99464656D01*
X189603982Y-99482846D01*
X189602120Y-99498535D01*
X189600615Y-99511401D01*
X189599508Y-99521116D01*
X189598837Y-99527360D01*
X189598640Y-99529814D01*
X189598643Y-99529834D01*
X189600752Y-99530357D01*
X189606565Y-99531287D01*
X189615645Y-99532564D01*
X189627556Y-99534132D01*
X189641864Y-99535936D01*
X189658127Y-99537916D01*
X189675913Y-99540016D01*
X189683907Y-99540941D01*
X189702136Y-99543091D01*
X189718966Y-99545180D01*
X189733969Y-99547150D01*
X189746722Y-99548937D01*
X189756796Y-99550482D01*
X189763771Y-99551725D01*
X189767217Y-99552604D01*
X189767505Y-99552863D01*
X189766075Y-99554848D01*
X189762327Y-99559878D01*
X189756459Y-99567686D01*
X189748672Y-99578007D01*
X189739165Y-99590581D01*
X189728145Y-99605139D01*
X189715808Y-99621419D01*
X189702355Y-99639156D01*
X189687990Y-99658088D01*
X189672911Y-99677947D01*
X189657319Y-99698470D01*
X189641418Y-99719396D01*
X189625406Y-99740456D01*
X189609485Y-99761387D01*
X189593857Y-99781927D01*
X189578720Y-99801808D01*
X189564277Y-99820771D01*
X189550728Y-99838545D01*
X189538276Y-99854871D01*
X189527120Y-99869483D01*
X189517462Y-99882116D01*
X189509502Y-99892507D01*
X189503442Y-99900390D01*
X189499480Y-99905502D01*
X189497821Y-99907578D01*
X189497795Y-99907606D01*
X189496660Y-99905972D01*
X189493923Y-99900513D01*
X189489585Y-99891233D01*
X189483654Y-99878154D01*
X189476142Y-99861286D01*
X189467047Y-99840643D01*
X189456383Y-99816238D01*
X189444148Y-99788089D01*
X189430353Y-99756204D01*
X189415001Y-99720600D01*
X189407629Y-99703463D01*
X189395715Y-99675737D01*
X189384280Y-99649099D01*
X189373426Y-99623794D01*
X189363266Y-99600069D01*
X189353900Y-99578175D01*
X189345436Y-99558359D01*
X189337981Y-99540871D01*
X189331641Y-99525956D01*
X189326518Y-99513865D01*
X189322723Y-99504847D01*
X189320361Y-99499149D01*
X189319536Y-99497020D01*
X189319537Y-99497013D01*
X189321606Y-99497070D01*
X189327378Y-99497567D01*
X189336420Y-99498457D01*
X189348292Y-99499694D01*
X189362561Y-99501235D01*
X189378791Y-99503029D01*
X189396544Y-99505034D01*
X189404463Y-99505941D01*
X189422744Y-99508011D01*
X189439695Y-99509872D01*
X189454879Y-99511478D01*
X189467859Y-99512788D01*
X189478196Y-99513755D01*
X189485455Y-99514340D01*
X189489199Y-99514496D01*
X189489617Y-99514422D01*
X189489913Y-99512220D01*
X189490619Y-99506156D01*
X189491705Y-99496519D01*
X189493136Y-99483587D01*
X189494887Y-99467654D01*
X189496922Y-99448997D01*
X189499211Y-99427899D01*
X189501725Y-99404647D01*
X189504432Y-99379528D01*
X189507300Y-99352822D01*
X189510300Y-99324815D01*
X189511605Y-99312596D01*
X189514657Y-99284104D01*
X189517599Y-99256780D01*
X189520398Y-99230912D01*
X189523025Y-99206783D01*
X189525445Y-99184678D01*
X189527629Y-99164884D01*
X189529547Y-99147687D01*
X189531164Y-99133373D01*
X189532449Y-99122224D01*
X189533373Y-99114528D01*
X189533901Y-99110570D01*
X189533997Y-99110092D01*
X189536240Y-99109814D01*
X189542070Y-99110005D01*
G37*
G36*
X190412463Y-97568905D02*
G01*
X190522103Y-97870133D01*
X190567098Y-97993759D01*
X191203348Y-97762183D01*
X191839599Y-97530606D01*
X191878434Y-97637309D01*
X191917270Y-97744013D01*
X191281022Y-97975587D01*
X190644771Y-98207164D01*
X190810808Y-98663344D01*
X190826079Y-98705323D01*
X190840963Y-98746265D01*
X190855393Y-98785994D01*
X190869312Y-98824340D01*
X190882654Y-98861136D01*
X190895360Y-98896205D01*
X190907365Y-98929377D01*
X190918608Y-98960479D01*
X190929027Y-98989338D01*
X190938560Y-99015785D01*
X190947146Y-99039647D01*
X190954722Y-99060751D01*
X190961226Y-99078927D01*
X190966597Y-99094003D01*
X190970771Y-99105807D01*
X190973687Y-99114165D01*
X190975285Y-99118905D01*
X190975580Y-99119984D01*
X190973449Y-99119789D01*
X190967302Y-99119152D01*
X190957255Y-99118089D01*
X190943438Y-99116613D01*
X190925970Y-99114734D01*
X190904974Y-99112469D01*
X190880575Y-99109831D01*
X190852894Y-99106833D01*
X190822054Y-99103488D01*
X190788180Y-99099809D01*
X190751393Y-99095811D01*
X190711814Y-99091504D01*
X190669571Y-99086907D01*
X190624784Y-99082028D01*
X190577577Y-99076883D01*
X190528071Y-99071485D01*
X190476391Y-99065848D01*
X190422660Y-99059984D01*
X190366998Y-99053906D01*
X190309529Y-99047630D01*
X190250381Y-99041167D01*
X190189670Y-99034531D01*
X190127523Y-99027739D01*
X190064061Y-99020796D01*
X189999408Y-99013723D01*
X189933687Y-99006531D01*
X189917692Y-99004781D01*
X189851717Y-98997557D01*
X189786776Y-98990451D01*
X189722992Y-98983473D01*
X189660487Y-98976633D01*
X189599383Y-98969947D01*
X189539808Y-98963432D01*
X189481880Y-98957094D01*
X189425724Y-98950954D01*
X189371465Y-98945022D01*
X189319224Y-98939311D01*
X189269126Y-98933834D01*
X189221293Y-98928607D01*
X189175846Y-98923642D01*
X189132914Y-98918953D01*
X189092612Y-98914552D01*
X189055070Y-98910453D01*
X189020409Y-98906670D01*
X188988753Y-98903216D01*
X188960224Y-98900107D01*
X188934943Y-98897353D01*
X188913038Y-98894967D01*
X188894628Y-98892968D01*
X188879841Y-98891364D01*
X188868796Y-98890168D01*
X188861618Y-98889396D01*
X188858428Y-98889062D01*
X188858271Y-98889048D01*
X188858187Y-98889724D01*
X188858661Y-98891862D01*
X188859740Y-98895592D01*
X188861470Y-98901048D01*
X188863900Y-98908365D01*
X188867078Y-98917675D01*
X188871052Y-98929114D01*
X188875867Y-98942811D01*
X188881573Y-98958905D01*
X188888219Y-98977526D01*
X188895850Y-98998810D01*
X188904515Y-99022887D01*
X188914263Y-99049893D01*
X188925139Y-99079962D01*
X188937192Y-99113226D01*
X188950468Y-99149821D01*
X188965019Y-99189878D01*
X188980889Y-99233531D01*
X188998128Y-99280914D01*
X189004840Y-99299364D01*
X189154207Y-99709742D01*
X189046534Y-99748932D01*
X188938862Y-99788121D01*
X188784583Y-99364247D01*
X188630304Y-98940369D01*
X187924556Y-99197242D01*
X187218809Y-99454114D01*
X187179970Y-99347409D01*
X187141134Y-99240708D01*
X187846884Y-98983838D01*
X188552633Y-98726965D01*
X188534177Y-98676257D01*
X189022552Y-98676257D01*
X189024661Y-98676570D01*
X189030741Y-98677312D01*
X189040620Y-98678471D01*
X189054126Y-98680023D01*
X189071088Y-98681951D01*
X189091336Y-98684238D01*
X189114695Y-98686859D01*
X189140998Y-98689801D01*
X189170068Y-98693047D01*
X189201738Y-98696571D01*
X189235835Y-98700359D01*
X189272187Y-98704391D01*
X189310625Y-98708649D01*
X189350972Y-98713112D01*
X189393061Y-98717764D01*
X189436719Y-98722585D01*
X189481776Y-98727557D01*
X189528057Y-98732657D01*
X189575394Y-98737869D01*
X189623614Y-98743179D01*
X189672545Y-98748561D01*
X189722016Y-98753997D01*
X189771856Y-98759473D01*
X189821893Y-98764967D01*
X189871956Y-98770461D01*
X189921872Y-98775932D01*
X189971470Y-98781368D01*
X190020579Y-98786746D01*
X190069028Y-98792047D01*
X190116643Y-98797253D01*
X190163259Y-98802347D01*
X190208693Y-98807310D01*
X190252784Y-98812119D01*
X190295355Y-98816760D01*
X190336239Y-98821211D01*
X190375257Y-98825455D01*
X190412245Y-98829473D01*
X190447028Y-98833242D01*
X190479436Y-98836750D01*
X190509295Y-98839975D01*
X190536435Y-98842898D01*
X190560684Y-98845500D01*
X190581871Y-98847763D01*
X190599824Y-98849668D01*
X190614373Y-98851195D01*
X190625345Y-98852327D01*
X190632568Y-98853044D01*
X190635871Y-98853326D01*
X190636068Y-98853326D01*
X190635474Y-98851358D01*
X190633513Y-98845647D01*
X190630250Y-98836366D01*
X190625746Y-98823687D01*
X190620067Y-98807784D01*
X190613272Y-98788825D01*
X190605425Y-98766986D01*
X190596589Y-98742437D01*
X190586827Y-98715352D01*
X190576198Y-98685903D01*
X190564769Y-98654262D01*
X190552600Y-98620601D01*
X190539755Y-98585093D01*
X190526296Y-98547909D01*
X190512285Y-98509222D01*
X190497785Y-98469203D01*
X190482859Y-98428027D01*
X190467570Y-98385866D01*
X190451981Y-98342889D01*
X190436152Y-98299270D01*
X190420146Y-98255184D01*
X190404027Y-98210797D01*
X190387858Y-98166290D01*
X190371701Y-98121828D01*
X190355618Y-98077586D01*
X190339672Y-98033736D01*
X190323927Y-97990450D01*
X190308443Y-97947899D01*
X190293284Y-97906259D01*
X190278512Y-97865700D01*
X190264188Y-97826394D01*
X190250381Y-97788514D01*
X190237145Y-97752231D01*
X190224550Y-97717717D01*
X190212655Y-97685147D01*
X190201521Y-97654692D01*
X190191213Y-97626524D01*
X190181794Y-97600814D01*
X190173323Y-97577736D01*
X190165868Y-97557461D01*
X190159488Y-97540164D01*
X190154247Y-97526014D01*
X190150206Y-97515185D01*
X190147430Y-97507849D01*
X190145978Y-97504180D01*
X190145779Y-97503770D01*
X190145729Y-97503593D01*
X190145781Y-97503321D01*
X190145853Y-97503042D01*
X190145869Y-97502837D01*
X190145738Y-97502789D01*
X190145387Y-97502987D01*
X190144733Y-97503512D01*
X190143691Y-97504452D01*
X190142185Y-97505890D01*
X190140131Y-97507907D01*
X190137450Y-97510591D01*
X190134055Y-97514027D01*
X190129870Y-97518299D01*
X190124812Y-97523490D01*
X190118798Y-97529686D01*
X190111749Y-97536972D01*
X190103582Y-97545433D01*
X190094221Y-97555148D01*
X190083579Y-97566208D01*
X190071577Y-97578695D01*
X190058131Y-97592693D01*
X190043160Y-97608288D01*
X190026587Y-97625562D01*
X190008328Y-97644601D01*
X189988300Y-97665492D01*
X189966426Y-97688318D01*
X189942620Y-97713160D01*
X189916804Y-97740106D01*
X189888895Y-97769241D01*
X189858813Y-97800646D01*
X189826476Y-97834409D01*
X189791802Y-97870612D01*
X189754711Y-97909343D01*
X189715120Y-97950682D01*
X189672951Y-97994718D01*
X189628118Y-98041532D01*
X189580545Y-98091211D01*
X189544700Y-98128639D01*
X189506050Y-98169006D01*
X189468144Y-98208605D01*
X189431087Y-98247333D01*
X189394980Y-98285079D01*
X189359922Y-98321740D01*
X189326015Y-98357210D01*
X189293362Y-98391383D01*
X189262062Y-98424153D01*
X189232219Y-98455413D01*
X189203926Y-98485059D01*
X189177294Y-98512981D01*
X189152417Y-98539077D01*
X189129400Y-98563241D01*
X189108343Y-98585364D01*
X189089346Y-98605342D01*
X189072513Y-98623069D01*
X189057943Y-98638437D01*
X189045735Y-98651344D01*
X189035992Y-98661681D01*
X189028816Y-98669341D01*
X189024309Y-98674222D01*
X189022569Y-98676214D01*
X189022552Y-98676257D01*
X188534177Y-98676257D01*
X188397998Y-98302111D01*
X188243363Y-97877255D01*
X188351031Y-97838068D01*
X188458700Y-97798880D01*
X188608717Y-98209513D01*
X188758736Y-98620149D01*
X189442224Y-97906187D01*
X190125713Y-97192225D01*
X190191770Y-97168136D01*
X190257828Y-97144051D01*
X190412463Y-97568905D01*
G37*
G36*
X186435577Y-123197020D02*
G01*
X186439548Y-123201187D01*
X186445631Y-123207601D01*
X186453452Y-123215867D01*
X186462642Y-123225593D01*
X186472824Y-123236384D01*
X186473321Y-123236909D01*
X186483510Y-123247796D01*
X186492654Y-123257723D01*
X186500389Y-123266284D01*
X186506353Y-123273072D01*
X186510179Y-123277677D01*
X186511507Y-123279695D01*
X186511502Y-123279718D01*
X186509923Y-123281347D01*
X186505502Y-123285615D01*
X186498448Y-123292332D01*
X186488969Y-123301298D01*
X186477274Y-123312314D01*
X186463572Y-123325189D01*
X186448074Y-123339724D01*
X186430987Y-123355723D01*
X186412520Y-123372990D01*
X186392881Y-123391329D01*
X186372281Y-123410543D01*
X186363468Y-123418758D01*
X186342493Y-123438307D01*
X186322365Y-123457075D01*
X186303294Y-123474868D01*
X186285494Y-123491485D01*
X186269175Y-123506731D01*
X186254550Y-123520406D01*
X186241830Y-123532311D01*
X186231226Y-123542250D01*
X186222952Y-123550022D01*
X186217219Y-123555432D01*
X186214236Y-123558282D01*
X186213861Y-123558663D01*
X186213964Y-123560030D01*
X186215639Y-123562838D01*
X186219075Y-123567302D01*
X186224464Y-123573637D01*
X186231993Y-123582063D01*
X186241854Y-123592793D01*
X186254237Y-123606048D01*
X186269330Y-123622041D01*
X186270767Y-123623558D01*
X186329858Y-123685912D01*
X186107044Y-123737469D01*
X186077326Y-123744330D01*
X186048759Y-123750895D01*
X186021599Y-123757106D01*
X185996111Y-123762903D01*
X185972554Y-123768233D01*
X185951186Y-123773034D01*
X185932271Y-123777246D01*
X185916066Y-123780816D01*
X185902833Y-123783679D01*
X185892832Y-123785784D01*
X185886325Y-123787069D01*
X185883570Y-123787475D01*
X185883494Y-123787453D01*
X185884023Y-123785332D01*
X185885715Y-123779555D01*
X185888475Y-123770431D01*
X185892203Y-123758274D01*
X185896800Y-123743396D01*
X185902166Y-123726109D01*
X185908207Y-123706728D01*
X185914820Y-123685563D01*
X185921909Y-123662926D01*
X185929375Y-123639131D01*
X185937119Y-123614491D01*
X185945041Y-123589316D01*
X185953045Y-123563921D01*
X185961033Y-123538617D01*
X185968904Y-123513717D01*
X185976561Y-123489534D01*
X185983905Y-123466381D01*
X185990837Y-123444569D01*
X185997260Y-123424411D01*
X186003072Y-123406219D01*
X186008178Y-123390307D01*
X186012479Y-123376986D01*
X186015875Y-123366569D01*
X186018268Y-123359367D01*
X186019561Y-123355696D01*
X186019755Y-123355281D01*
X186021291Y-123356653D01*
X186025328Y-123360780D01*
X186031558Y-123367338D01*
X186039676Y-123375995D01*
X186049378Y-123386429D01*
X186060356Y-123398313D01*
X186072307Y-123411321D01*
X186075661Y-123414984D01*
X186087852Y-123428283D01*
X186099174Y-123440587D01*
X186109317Y-123451564D01*
X186117970Y-123460882D01*
X186124828Y-123468206D01*
X186129577Y-123473204D01*
X186131909Y-123475543D01*
X186132081Y-123475673D01*
X186133738Y-123474353D01*
X186138185Y-123470420D01*
X186145171Y-123464109D01*
X186154443Y-123455652D01*
X186165749Y-123445284D01*
X186178836Y-123433239D01*
X186193456Y-123419752D01*
X186209352Y-123405055D01*
X186226273Y-123389383D01*
X186243966Y-123372971D01*
X186262181Y-123356052D01*
X186280666Y-123338860D01*
X186299167Y-123321626D01*
X186317433Y-123304594D01*
X186335212Y-123287987D01*
X186352251Y-123272044D01*
X186368298Y-123256998D01*
X186383101Y-123243083D01*
X186396407Y-123230535D01*
X186406215Y-123221249D01*
X186414970Y-123212976D01*
X186422619Y-123205818D01*
X186428677Y-123200222D01*
X186432664Y-123196634D01*
X186434091Y-123195491D01*
X186435577Y-123197020D01*
G37*
G36*
X186008430Y-122748067D02*
G01*
X186012773Y-122751961D01*
X186019173Y-122758135D01*
X186027240Y-122766206D01*
X186036584Y-122775790D01*
X186046812Y-122786500D01*
X186046925Y-122786620D01*
X186057109Y-122797399D01*
X186066307Y-122807162D01*
X186074146Y-122815505D01*
X186080251Y-122822029D01*
X186084243Y-122826333D01*
X186085750Y-122828017D01*
X186085751Y-122828019D01*
X186084899Y-122829171D01*
X186082017Y-122832175D01*
X186077019Y-122837117D01*
X186069815Y-122844079D01*
X186060318Y-122853143D01*
X186048438Y-122864395D01*
X186034087Y-122877916D01*
X186017178Y-122893791D01*
X185997620Y-122912102D01*
X185975329Y-122932932D01*
X185950212Y-122956365D01*
X185922183Y-122982485D01*
X185901146Y-123002075D01*
X185882744Y-123019217D01*
X185865246Y-123035540D01*
X185848887Y-123050821D01*
X185833908Y-123064839D01*
X185820543Y-123077370D01*
X185809032Y-123088191D01*
X185799609Y-123097079D01*
X185792516Y-123103810D01*
X185787987Y-123108165D01*
X185786260Y-123109916D01*
X185786250Y-123109933D01*
X185787529Y-123111690D01*
X185791384Y-123116138D01*
X185797520Y-123122953D01*
X185805635Y-123131811D01*
X185815436Y-123142388D01*
X185826622Y-123154359D01*
X185838896Y-123167400D01*
X185844426Y-123173248D01*
X185857009Y-123186613D01*
X185868557Y-123199030D01*
X185878785Y-123210183D01*
X185887406Y-123219749D01*
X185894130Y-123227409D01*
X185898674Y-123232844D01*
X185900749Y-123235733D01*
X185900803Y-123236116D01*
X185898431Y-123236719D01*
X185892327Y-123238162D01*
X185882813Y-123240371D01*
X185870213Y-123243272D01*
X185854849Y-123246794D01*
X185837049Y-123250862D01*
X185817132Y-123255403D01*
X185795427Y-123260344D01*
X185772253Y-123265612D01*
X185747937Y-123271132D01*
X185722801Y-123276833D01*
X185697169Y-123282641D01*
X185671366Y-123288481D01*
X185645716Y-123294282D01*
X185620541Y-123299971D01*
X185596166Y-123305471D01*
X185572913Y-123310713D01*
X185551109Y-123315620D01*
X185531076Y-123320122D01*
X185513139Y-123324145D01*
X185497619Y-123327614D01*
X185484842Y-123330457D01*
X185475132Y-123332599D01*
X185468812Y-123333970D01*
X185466206Y-123334494D01*
X185466168Y-123334498D01*
X185466348Y-123332518D01*
X185467761Y-123326575D01*
X185470403Y-123316679D01*
X185474268Y-123302848D01*
X185479355Y-123285098D01*
X185485657Y-123263438D01*
X185493174Y-123237888D01*
X185501896Y-123208460D01*
X185511824Y-123175167D01*
X185522950Y-123138026D01*
X185528318Y-123120159D01*
X185537012Y-123091262D01*
X185545376Y-123063505D01*
X185553328Y-123037144D01*
X185560794Y-123012438D01*
X185567693Y-122989646D01*
X185573946Y-122969026D01*
X185579477Y-122950836D01*
X185584206Y-122935336D01*
X185588054Y-122922781D01*
X185590944Y-122913434D01*
X185592797Y-122907550D01*
X185593534Y-122905388D01*
X185593539Y-122905384D01*
X185595087Y-122906758D01*
X185599190Y-122910850D01*
X185605544Y-122917343D01*
X185613843Y-122925922D01*
X185623783Y-122936273D01*
X185635062Y-122948081D01*
X185647374Y-122961028D01*
X185652857Y-122966813D01*
X185665531Y-122980150D01*
X185677320Y-122992471D01*
X185687919Y-123003461D01*
X185697021Y-123012808D01*
X185704317Y-123020194D01*
X185709502Y-123025308D01*
X185712270Y-123027834D01*
X185712638Y-123028047D01*
X185714280Y-123026549D01*
X185718718Y-123022358D01*
X185725745Y-123015673D01*
X185735154Y-123006688D01*
X185746737Y-122995606D01*
X185760288Y-122982622D01*
X185775603Y-122967932D01*
X185792475Y-122951736D01*
X185810695Y-122934233D01*
X185830058Y-122915619D01*
X185850359Y-122896093D01*
X185859214Y-122887572D01*
X185879865Y-122867707D01*
X185899682Y-122848667D01*
X185918454Y-122830650D01*
X185935976Y-122813855D01*
X185952039Y-122798477D01*
X185966435Y-122784718D01*
X185978958Y-122772776D01*
X185989399Y-122762851D01*
X185997549Y-122755137D01*
X186003204Y-122749835D01*
X186006152Y-122747142D01*
X186006534Y-122746838D01*
X186008430Y-122748067D01*
G37*
G36*
X185917970Y-121012015D02*
G01*
X186025638Y-121051204D01*
X185876608Y-121462197D01*
X185727578Y-121873192D01*
X186710086Y-121765603D01*
X187692595Y-121658014D01*
X187758681Y-121682023D01*
X187824766Y-121706033D01*
X187670133Y-122130887D01*
X187560495Y-122432117D01*
X187515499Y-122555742D01*
X188151749Y-122787318D01*
X188787999Y-123018894D01*
X188749162Y-123125596D01*
X188710325Y-123232299D01*
X188074076Y-123000723D01*
X187437826Y-122769147D01*
X187271791Y-123225328D01*
X187256506Y-123267301D01*
X187241590Y-123308231D01*
X187227108Y-123347942D01*
X187213121Y-123386264D01*
X187199690Y-123423027D01*
X187186881Y-123458058D01*
X187174755Y-123491185D01*
X187163376Y-123522238D01*
X187152807Y-123551043D01*
X187143110Y-123577430D01*
X187134349Y-123601229D01*
X187126587Y-123622266D01*
X187119886Y-123640370D01*
X187114310Y-123655371D01*
X187109920Y-123667095D01*
X187106782Y-123675372D01*
X187104958Y-123680031D01*
X187104491Y-123681047D01*
X187102984Y-123679528D01*
X187098684Y-123675088D01*
X187091671Y-123667817D01*
X187082036Y-123657805D01*
X187069861Y-123645136D01*
X187055234Y-123629906D01*
X187038239Y-123612202D01*
X187018961Y-123592112D01*
X186997487Y-123569726D01*
X186973903Y-123545134D01*
X186948292Y-123518424D01*
X186920741Y-123489685D01*
X186891337Y-123459010D01*
X186860163Y-123426484D01*
X186827308Y-123392199D01*
X186792854Y-123356242D01*
X186756888Y-123318704D01*
X186719497Y-123279673D01*
X186680764Y-123239240D01*
X186640775Y-123197492D01*
X186599618Y-123154521D01*
X186557377Y-123110413D01*
X186514136Y-123065262D01*
X186469984Y-123019152D01*
X186425003Y-122972176D01*
X186379281Y-122924420D01*
X186368153Y-122912798D01*
X186322256Y-122864858D01*
X186277077Y-122817671D01*
X186232701Y-122771325D01*
X186189216Y-122725908D01*
X186146705Y-122681510D01*
X186105256Y-122638224D01*
X186064954Y-122596135D01*
X186025884Y-122555335D01*
X185988132Y-122515913D01*
X185951783Y-122477959D01*
X185916926Y-122441561D01*
X185883643Y-122406810D01*
X185852021Y-122373794D01*
X185822146Y-122342606D01*
X185794103Y-122313329D01*
X185767978Y-122286058D01*
X185743859Y-122260880D01*
X185721828Y-122237886D01*
X185701972Y-122217165D01*
X185684377Y-122198806D01*
X185669130Y-122182899D01*
X185656314Y-122169533D01*
X185646017Y-122158798D01*
X185638324Y-122150784D01*
X185633321Y-122145578D01*
X185631092Y-122143272D01*
X185630981Y-122143160D01*
X185630482Y-122143624D01*
X185629471Y-122145567D01*
X185627900Y-122149117D01*
X185625718Y-122154409D01*
X185622876Y-122161576D01*
X185619327Y-122170751D01*
X185615018Y-122182067D01*
X185609902Y-122195656D01*
X185603928Y-122211652D01*
X185597050Y-122230188D01*
X185589216Y-122251398D01*
X185580376Y-122275412D01*
X185570484Y-122302366D01*
X185559488Y-122332391D01*
X185547339Y-122365621D01*
X185533987Y-122402187D01*
X185519385Y-122442225D01*
X185503483Y-122485867D01*
X185486230Y-122533246D01*
X185479515Y-122551692D01*
X185330149Y-122962072D01*
X185222476Y-122922883D01*
X185114804Y-122883692D01*
X185269081Y-122459817D01*
X185405230Y-122085751D01*
X185893607Y-122085751D01*
X185895022Y-122087346D01*
X185899201Y-122091823D01*
X185906025Y-122099061D01*
X185915373Y-122108931D01*
X185927129Y-122121311D01*
X185941169Y-122136076D01*
X185957378Y-122153101D01*
X185975636Y-122172262D01*
X185995819Y-122193434D01*
X186017814Y-122216491D01*
X186041499Y-122241310D01*
X186066754Y-122267765D01*
X186093462Y-122295733D01*
X186121501Y-122325087D01*
X186150753Y-122355705D01*
X186181098Y-122387461D01*
X186212418Y-122420231D01*
X186244593Y-122453888D01*
X186277505Y-122488309D01*
X186311031Y-122523371D01*
X186345054Y-122558947D01*
X186379457Y-122594910D01*
X186414117Y-122631141D01*
X186448916Y-122667513D01*
X186483736Y-122703902D01*
X186518456Y-122740178D01*
X186552957Y-122776223D01*
X186587119Y-122811910D01*
X186620826Y-122847113D01*
X186653955Y-122881708D01*
X186686388Y-122915573D01*
X186718005Y-122948580D01*
X186748689Y-122980605D01*
X186778317Y-123011524D01*
X186806774Y-123041212D01*
X186833937Y-123069546D01*
X186859689Y-123096398D01*
X186883911Y-123121645D01*
X186906481Y-123145163D01*
X186927282Y-123166826D01*
X186946194Y-123186510D01*
X186963097Y-123204090D01*
X186977873Y-123219443D01*
X186990401Y-123232442D01*
X187000565Y-123242964D01*
X187008242Y-123250884D01*
X187013314Y-123256076D01*
X187015663Y-123258415D01*
X187015814Y-123258541D01*
X187016623Y-123256651D01*
X187018793Y-123251017D01*
X187022259Y-123241810D01*
X187026959Y-123229203D01*
X187032831Y-123213369D01*
X187039812Y-123194478D01*
X187047839Y-123172704D01*
X187056850Y-123148219D01*
X187066781Y-123121196D01*
X187077569Y-123091804D01*
X187089151Y-123060219D01*
X187101467Y-123026612D01*
X187114451Y-122991154D01*
X187128042Y-122954018D01*
X187142177Y-122915376D01*
X187156793Y-122875400D01*
X187171826Y-122834263D01*
X187187215Y-122792138D01*
X187202897Y-122749195D01*
X187218809Y-122705606D01*
X187234887Y-122661546D01*
X187251069Y-122617184D01*
X187267293Y-122572695D01*
X187283495Y-122528250D01*
X187299613Y-122484020D01*
X187315585Y-122440179D01*
X187331346Y-122396900D01*
X187346836Y-122354351D01*
X187361989Y-122312709D01*
X187376744Y-122272143D01*
X187391038Y-122232827D01*
X187404809Y-122194933D01*
X187417993Y-122158631D01*
X187430529Y-122124096D01*
X187442352Y-122091500D01*
X187453399Y-122061013D01*
X187463609Y-122032809D01*
X187472919Y-122007060D01*
X187481265Y-121983937D01*
X187488585Y-121963613D01*
X187494817Y-121946261D01*
X187499898Y-121932053D01*
X187503763Y-121921160D01*
X187506352Y-121913756D01*
X187507600Y-121910011D01*
X187507709Y-121909570D01*
X187507784Y-121909402D01*
X187507998Y-121909227D01*
X187508234Y-121909059D01*
X187508377Y-121908912D01*
X187508308Y-121908792D01*
X187507912Y-121908718D01*
X187507074Y-121908700D01*
X187505672Y-121908751D01*
X187503594Y-121908884D01*
X187500724Y-121909109D01*
X187496943Y-121909441D01*
X187492135Y-121909891D01*
X187486183Y-121910474D01*
X187478971Y-121911199D01*
X187470381Y-121912080D01*
X187460299Y-121913130D01*
X187448605Y-121914362D01*
X187435188Y-121915787D01*
X187419927Y-121917419D01*
X187402706Y-121919269D01*
X187383407Y-121921349D01*
X187361915Y-121923673D01*
X187338116Y-121926253D01*
X187311891Y-121929101D01*
X187283120Y-121932231D01*
X187251692Y-121935655D01*
X187217488Y-121939384D01*
X187180390Y-121943431D01*
X187140283Y-121947810D01*
X187097052Y-121952532D01*
X187050578Y-121957610D01*
X187000745Y-121963055D01*
X186947436Y-121968883D01*
X186890536Y-121975103D01*
X186829926Y-121981730D01*
X186765492Y-121988774D01*
X186697115Y-121996250D01*
X186645598Y-122001881D01*
X186590043Y-122007960D01*
X186535551Y-122013929D01*
X186482271Y-122019777D01*
X186430348Y-122025483D01*
X186379927Y-122031032D01*
X186331153Y-122036410D01*
X186284173Y-122041598D01*
X186239132Y-122046582D01*
X186196175Y-122051345D01*
X186155447Y-122055869D01*
X186117097Y-122060140D01*
X186081267Y-122064140D01*
X186048103Y-122067856D01*
X186017752Y-122071268D01*
X185990358Y-122074362D01*
X185966068Y-122077121D01*
X185945028Y-122079528D01*
X185927380Y-122081568D01*
X185913272Y-122083224D01*
X185902851Y-122084480D01*
X185896261Y-122085321D01*
X185893648Y-122085729D01*
X185893607Y-122085751D01*
X185405230Y-122085751D01*
X185423360Y-122035940D01*
X184717611Y-121779070D01*
X184011863Y-121522199D01*
X184050699Y-121415495D01*
X184089535Y-121308793D01*
X184795284Y-121565665D01*
X185501033Y-121822536D01*
X185655667Y-121397682D01*
X185810302Y-120972827D01*
X185917970Y-121012015D01*
G37*
G36*
X195871714Y-112177824D02*
G01*
X196238865Y-113186564D01*
X195960865Y-113287747D01*
X195682867Y-113388932D01*
X195315716Y-112380191D01*
X194948565Y-111371453D01*
X195226563Y-111270270D01*
X195504563Y-111169086D01*
X195871714Y-112177824D01*
G37*
G36*
X196258708Y-111906542D02*
G01*
X196578158Y-112784225D01*
X197062670Y-112607877D01*
X197547182Y-112431529D01*
X197589101Y-112546699D01*
X197631020Y-112661871D01*
X197007508Y-112888811D01*
X196383997Y-113115750D01*
X196022628Y-112122896D01*
X195661259Y-111130043D01*
X195800258Y-111079452D01*
X195939257Y-111028860D01*
X196258708Y-111906542D01*
G37*
G36*
X194813624Y-111717404D02*
G01*
X194909025Y-111979517D01*
X194404656Y-112163092D01*
X193900287Y-112346668D01*
X193936424Y-112445953D01*
X193972561Y-112545238D01*
X194445158Y-112373226D01*
X194917757Y-112201214D01*
X195013159Y-112463329D01*
X195108560Y-112725442D01*
X194635962Y-112897454D01*
X194163364Y-113069465D01*
X194208174Y-113192579D01*
X194252983Y-113315693D01*
X194777210Y-113124890D01*
X195301436Y-112934087D01*
X195396837Y-113196200D01*
X195492239Y-113458313D01*
X194690014Y-113750299D01*
X193887788Y-114042286D01*
X193520637Y-113033546D01*
X193153486Y-112024808D01*
X193935854Y-111740049D01*
X194718223Y-111455290D01*
X194813624Y-111717404D01*
G37*
G36*
X202490920Y-110275909D02*
G01*
X202501857Y-110282150D01*
X202520528Y-110296074D01*
X202542477Y-110313955D01*
X202563248Y-110332066D01*
X202578385Y-110346683D01*
X202583408Y-110353241D01*
X202579691Y-110362251D01*
X202568012Y-110381846D01*
X202550315Y-110408910D01*
X202533728Y-110432991D01*
X202507121Y-110470713D01*
X202488596Y-110496481D01*
X202476575Y-110512216D01*
X202469484Y-110519843D01*
X202465747Y-110521280D01*
X202463789Y-110518453D01*
X202463756Y-110518361D01*
X202463978Y-110505616D01*
X202467038Y-110491900D01*
X202466662Y-110466528D01*
X202456229Y-110440653D01*
X202445964Y-110415125D01*
X202444243Y-110389334D01*
X202447296Y-110367447D01*
X202455801Y-110332849D01*
X202466844Y-110303637D01*
X202478704Y-110283415D01*
X202489665Y-110275789D01*
X202490920Y-110275909D01*
G37*
G36*
X191104325Y-113067478D02*
G01*
X191199726Y-113329591D01*
X190739042Y-113497267D01*
X190278358Y-113664942D01*
X190314495Y-113764227D01*
X190350632Y-113863512D01*
X190747773Y-113718964D01*
X191144915Y-113574417D01*
X191243207Y-113844473D01*
X191341500Y-114114530D01*
X190945605Y-114258623D01*
X190549711Y-114402717D01*
X190592655Y-114536941D01*
X190611007Y-114593013D01*
X190633054Y-114658390D01*
X190656562Y-114726544D01*
X190679292Y-114790952D01*
X190689611Y-114819564D01*
X190709629Y-114875512D01*
X190730131Y-114934481D01*
X190749361Y-114991298D01*
X190765560Y-115040793D01*
X190773577Y-115066413D01*
X190803531Y-115164864D01*
X190530724Y-115264157D01*
X190257917Y-115363451D01*
X189890766Y-114354711D01*
X189523615Y-113345973D01*
X190266269Y-113075669D01*
X191008923Y-112805365D01*
X191104325Y-113067478D01*
G37*
G36*
X201272953Y-110786588D02*
G01*
X201288781Y-110801752D01*
X201310443Y-110824480D01*
X201326614Y-110842295D01*
X201355408Y-110873237D01*
X201384915Y-110902698D01*
X201410369Y-110925998D01*
X201419079Y-110933110D01*
X201443035Y-110952132D01*
X201454826Y-110963893D01*
X201456098Y-110970879D01*
X201448498Y-110975576D01*
X201447461Y-110975963D01*
X201441101Y-110984172D01*
X201443964Y-111002704D01*
X201447203Y-111012326D01*
X201466063Y-111048864D01*
X201496192Y-111082765D01*
X201531217Y-111110894D01*
X201557594Y-111132423D01*
X201568248Y-111147844D01*
X201563150Y-111157322D01*
X201542272Y-111161028D01*
X201522959Y-111160602D01*
X201474219Y-111150290D01*
X201418953Y-111125250D01*
X201358018Y-111085963D01*
X201292271Y-111032908D01*
X201287331Y-111028530D01*
X201266129Y-111008383D01*
X201255620Y-110993935D01*
X201253003Y-110980703D01*
X201253576Y-110974477D01*
X201252343Y-110953931D01*
X201240310Y-110938616D01*
X201232748Y-110929812D01*
X201229727Y-110918356D01*
X201231337Y-110900340D01*
X201237669Y-110871861D01*
X201242274Y-110853859D01*
X201251086Y-110821907D01*
X201258864Y-110797041D01*
X201264348Y-110783171D01*
X201265581Y-110781591D01*
X201272953Y-110786588D01*
G37*
G36*
X202073313Y-110377030D02*
G01*
X202090723Y-110386274D01*
X202115800Y-110402411D01*
X202141580Y-110420817D01*
X202174581Y-110448634D01*
X202198719Y-110475133D01*
X202212291Y-110497971D01*
X202213589Y-110514802D01*
X202211946Y-110517611D01*
X202210982Y-110526819D01*
X202221959Y-110540016D01*
X202236299Y-110551883D01*
X202258771Y-110572460D01*
X202270487Y-110593274D01*
X202274031Y-110607139D01*
X202280065Y-110627532D01*
X202291771Y-110642661D01*
X202313778Y-110658239D01*
X202317181Y-110660319D01*
X202338856Y-110674023D01*
X202348782Y-110683495D01*
X202349785Y-110693065D01*
X202345844Y-110704239D01*
X202335833Y-110722001D01*
X202317413Y-110748525D01*
X202292699Y-110781280D01*
X202263804Y-110817733D01*
X202232841Y-110855351D01*
X202201926Y-110891601D01*
X202173169Y-110923949D01*
X202148689Y-110949864D01*
X202130595Y-110966813D01*
X202122203Y-110972200D01*
X202106120Y-110975170D01*
X202095338Y-110976607D01*
X202077738Y-110976737D01*
X202068358Y-110970505D01*
X202066720Y-110955430D01*
X202072349Y-110929029D01*
X202080825Y-110901009D01*
X202102920Y-110831844D01*
X202072620Y-110840026D01*
X202058037Y-110843639D01*
X202048452Y-110843429D01*
X202043150Y-110836863D01*
X202041420Y-110821406D01*
X202042551Y-110794520D01*
X202045830Y-110753673D01*
X202046417Y-110746717D01*
X202048814Y-110710521D01*
X202048414Y-110688834D01*
X202045036Y-110679460D01*
X202040781Y-110679056D01*
X202032872Y-110681201D01*
X202028674Y-110678316D01*
X202027751Y-110667246D01*
X202029666Y-110644836D01*
X202032573Y-110619779D01*
X202035792Y-110590313D01*
X202036089Y-110573962D01*
X202032713Y-110567076D01*
X202024914Y-110566006D01*
X202021575Y-110566277D01*
X202014518Y-110565587D01*
X202010973Y-110560142D01*
X202011116Y-110547339D01*
X202015123Y-110524575D01*
X202023171Y-110489246D01*
X202028204Y-110468365D01*
X202038488Y-110426647D01*
X202046096Y-110398884D01*
X202052261Y-110382578D01*
X202058214Y-110375236D01*
X202065189Y-110374363D01*
X202073313Y-110377030D01*
G37*
G36*
X201701543Y-110568733D02*
G01*
X201725610Y-110582795D01*
X201759122Y-110609208D01*
X201769290Y-110617710D01*
X201801295Y-110645468D01*
X201821094Y-110664924D01*
X201830151Y-110677717D01*
X201829937Y-110685484D01*
X201828265Y-110694396D01*
X201840699Y-110701676D01*
X201845018Y-110703150D01*
X201860195Y-110709909D01*
X201867046Y-110721021D01*
X201869444Y-110742701D01*
X201871662Y-110761903D01*
X201878168Y-110776725D01*
X201892250Y-110792444D01*
X201910569Y-110808688D01*
X201933880Y-110829562D01*
X201953163Y-110848445D01*
X201961969Y-110858409D01*
X201968412Y-110871070D01*
X201960928Y-110878747D01*
X201953944Y-110881569D01*
X201937847Y-110889830D01*
X201934582Y-110899475D01*
X201944954Y-110912093D01*
X201969767Y-110929265D01*
X201981881Y-110936566D01*
X202007534Y-110952195D01*
X202026532Y-110964703D01*
X202034996Y-110971530D01*
X202035092Y-110971721D01*
X202029792Y-110978700D01*
X202014498Y-110989684D01*
X202011008Y-110991804D01*
X201985179Y-111007095D01*
X202010376Y-111024443D01*
X202026377Y-111036809D01*
X202033635Y-111045134D01*
X202033628Y-111045958D01*
X202025097Y-111052157D01*
X202004343Y-111063842D01*
X201974516Y-111079464D01*
X201938766Y-111097471D01*
X201900241Y-111116314D01*
X201862091Y-111134443D01*
X201827465Y-111150308D01*
X201799512Y-111162358D01*
X201788087Y-111166812D01*
X201760333Y-111175592D01*
X201738635Y-111180036D01*
X201728205Y-111179344D01*
X201726245Y-111168428D01*
X201730440Y-111147987D01*
X201734484Y-111136268D01*
X201742697Y-111113828D01*
X201747185Y-111098873D01*
X201747488Y-111095944D01*
X201739098Y-111093312D01*
X201719706Y-111091082D01*
X201711805Y-111090581D01*
X201677428Y-111088806D01*
X201704762Y-111035623D01*
X201732095Y-110982439D01*
X201706080Y-110971283D01*
X201686353Y-110960857D01*
X201677521Y-110948478D01*
X201678245Y-110929531D01*
X201686110Y-110902594D01*
X201692981Y-110870868D01*
X201691688Y-110844885D01*
X201682747Y-110828562D01*
X201675977Y-110825327D01*
X201663731Y-110815407D01*
X201661678Y-110794894D01*
X201669563Y-110768311D01*
X201677343Y-110749383D01*
X201677263Y-110741406D01*
X201668411Y-110739922D01*
X201663786Y-110740082D01*
X201647807Y-110737371D01*
X201642178Y-110732464D01*
X201642381Y-110720917D01*
X201645489Y-110697038D01*
X201650906Y-110665032D01*
X201654158Y-110647987D01*
X201663229Y-110606650D01*
X201672631Y-110580062D01*
X201684643Y-110567623D01*
X201701543Y-110568733D01*
G37*
G36*
X192539618Y-112315045D02*
G01*
X192596602Y-112320555D01*
X192651961Y-112328571D01*
X192699710Y-112338465D01*
X192713183Y-112342155D01*
X192768207Y-112364401D01*
X192827835Y-112398550D01*
X192888404Y-112441753D01*
X192946256Y-112491166D01*
X192997730Y-112543940D01*
X193036960Y-112593968D01*
X193060302Y-112633470D01*
X193084676Y-112683794D01*
X193108343Y-112740335D01*
X193129566Y-112798492D01*
X193146604Y-112853658D01*
X193157721Y-112901228D01*
X193160573Y-112921325D01*
X193162827Y-112993129D01*
X193156981Y-113068018D01*
X193143916Y-113141746D01*
X193124511Y-113210069D01*
X193099645Y-113268742D01*
X193082692Y-113297225D01*
X193065893Y-113321670D01*
X193169445Y-113419088D01*
X193222546Y-113471165D01*
X193276272Y-113528376D01*
X193333291Y-113593682D01*
X193396270Y-113670046D01*
X193403867Y-113679487D01*
X193470511Y-113762238D01*
X193527827Y-113832859D01*
X193576845Y-113892581D01*
X193618588Y-113942639D01*
X193654086Y-113984264D01*
X193684366Y-114018691D01*
X193707555Y-114044058D01*
X193752052Y-114091690D01*
X193448552Y-114202030D01*
X193145054Y-114312370D01*
X193086243Y-114232706D01*
X193062068Y-114200928D01*
X193030584Y-114160999D01*
X192993628Y-114115113D01*
X192953031Y-114065461D01*
X192910628Y-114014239D01*
X192868255Y-113963639D01*
X192827743Y-113915854D01*
X192790927Y-113873078D01*
X192759643Y-113837505D01*
X192735722Y-113811327D01*
X192723866Y-113799319D01*
X192677105Y-113761926D01*
X192630737Y-113739114D01*
X192582345Y-113729164D01*
X192565338Y-113728079D01*
X192549374Y-113728505D01*
X192531719Y-113731151D01*
X192509642Y-113736728D01*
X192480411Y-113745945D01*
X192441296Y-113759511D01*
X192389563Y-113778137D01*
X192378621Y-113782111D01*
X192221722Y-113839130D01*
X192351815Y-114196557D01*
X192481908Y-114553984D01*
X192207881Y-114653722D01*
X191933853Y-114753460D01*
X191566702Y-113744721D01*
X191433914Y-113379889D01*
X191314860Y-113052790D01*
X191935518Y-113052790D01*
X191981969Y-113180413D01*
X192028420Y-113308036D01*
X192259620Y-113220376D01*
X192334942Y-113191547D01*
X192395559Y-113167710D01*
X192442737Y-113148329D01*
X192477747Y-113132863D01*
X192501856Y-113120774D01*
X192516332Y-113111522D01*
X192517084Y-113110911D01*
X192538084Y-113089724D01*
X192554792Y-113066670D01*
X192556234Y-113064012D01*
X192561966Y-113050555D01*
X192563559Y-113036986D01*
X192560442Y-113019032D01*
X192552041Y-112992428D01*
X192543409Y-112968285D01*
X192528504Y-112929953D01*
X192515010Y-112905023D01*
X192499568Y-112890684D01*
X192478810Y-112884123D01*
X192449376Y-112882527D01*
X192440921Y-112882568D01*
X192426387Y-112883712D01*
X192407637Y-112887275D01*
X192382812Y-112893841D01*
X192350049Y-112903993D01*
X192307486Y-112918315D01*
X192253266Y-112937391D01*
X192185523Y-112961803D01*
X192168832Y-112967870D01*
X191935518Y-113052790D01*
X191314860Y-113052790D01*
X191199551Y-112735982D01*
X191717894Y-112547553D01*
X191835266Y-112504985D01*
X191938044Y-112467958D01*
X192027463Y-112436074D01*
X192104759Y-112408937D01*
X192171166Y-112386149D01*
X192227919Y-112367314D01*
X192276253Y-112352036D01*
X192317403Y-112339917D01*
X192352605Y-112330561D01*
X192383091Y-112323570D01*
X192410099Y-112318549D01*
X192434863Y-112315101D01*
X192444708Y-112314044D01*
X192486991Y-112312665D01*
X192539618Y-112315045D01*
G37*
G36*
X199138887Y-110255574D02*
G01*
X199165327Y-110327897D01*
X199190086Y-110395007D01*
X199212557Y-110455301D01*
X199232130Y-110507174D01*
X199248196Y-110549022D01*
X199260149Y-110579240D01*
X199267380Y-110596224D01*
X199269274Y-110599402D01*
X199275229Y-110591965D01*
X199288099Y-110572905D01*
X199306029Y-110545057D01*
X199327161Y-110511247D01*
X199328560Y-110508978D01*
X199374465Y-110439972D01*
X199419102Y-110385016D01*
X199464852Y-110341654D01*
X199514100Y-110307429D01*
X199535572Y-110295614D01*
X199628581Y-110256680D01*
X199723281Y-110234102D01*
X199818473Y-110227581D01*
X199912958Y-110236816D01*
X200005539Y-110261509D01*
X200095013Y-110301358D01*
X200180184Y-110356065D01*
X200259853Y-110425330D01*
X200319272Y-110491583D01*
X200374535Y-110570763D01*
X200424231Y-110662869D01*
X200467101Y-110764475D01*
X200501882Y-110872161D01*
X200527318Y-110982505D01*
X200542145Y-111092080D01*
X200542658Y-111098398D01*
X200544301Y-111159728D01*
X200541092Y-111229285D01*
X200533679Y-111300174D01*
X200522705Y-111365503D01*
X200514420Y-111400105D01*
X200484755Y-111482924D01*
X200443930Y-111560915D01*
X200394063Y-111631058D01*
X200337278Y-111690331D01*
X200280936Y-111732549D01*
X200254822Y-111746126D01*
X200216922Y-111762697D01*
X200171708Y-111780626D01*
X200123653Y-111798272D01*
X200077231Y-111813999D01*
X200036911Y-111826169D01*
X200007168Y-111833144D01*
X200005511Y-111833409D01*
X199928291Y-111837863D01*
X199841311Y-111829366D01*
X199787045Y-111818589D01*
X199705375Y-111799629D01*
X199720243Y-111847836D01*
X199735111Y-111896044D01*
X199604433Y-111943607D01*
X199473756Y-111991170D01*
X199229873Y-111321107D01*
X199112387Y-110998316D01*
X199062840Y-110862187D01*
X199372932Y-110862187D01*
X199373415Y-110872748D01*
X199376020Y-110887501D01*
X199381228Y-110907912D01*
X199389518Y-110935447D01*
X199401371Y-110971570D01*
X199417268Y-111017748D01*
X199437686Y-111075447D01*
X199463107Y-111146132D01*
X199491986Y-111225706D01*
X199612549Y-111556950D01*
X199660736Y-111578178D01*
X199694559Y-111589350D01*
X199740401Y-111599369D01*
X199793383Y-111607611D01*
X199848625Y-111613445D01*
X199901248Y-111616244D01*
X199946374Y-111615382D01*
X199948582Y-111615213D01*
X199992866Y-111607512D01*
X200044902Y-111591669D01*
X200064394Y-111584275D01*
X200101362Y-111568488D01*
X200128260Y-111553683D01*
X200151187Y-111535904D01*
X200174809Y-111512694D01*
X200219011Y-111455033D01*
X200250078Y-111387825D01*
X200268044Y-111310815D01*
X200272942Y-111223748D01*
X200264806Y-111126368D01*
X200243669Y-111018419D01*
X200240814Y-111006927D01*
X200210201Y-110905874D01*
X200171695Y-110811675D01*
X200126373Y-110725717D01*
X200075312Y-110649385D01*
X200019590Y-110584063D01*
X199960283Y-110531136D01*
X199898469Y-110491990D01*
X199835225Y-110468009D01*
X199818950Y-110464479D01*
X199796542Y-110461293D01*
X199775915Y-110461304D01*
X199752411Y-110465215D01*
X199721369Y-110473728D01*
X199688656Y-110484101D01*
X199630516Y-110505223D01*
X199584649Y-110527851D01*
X199546506Y-110555156D01*
X199511535Y-110590304D01*
X199480783Y-110628880D01*
X199453052Y-110670170D01*
X199426721Y-110716626D01*
X199403691Y-110764139D01*
X199385863Y-110808600D01*
X199375133Y-110845902D01*
X199372932Y-110862187D01*
X199062840Y-110862187D01*
X198751018Y-110005463D01*
X198882074Y-109957762D01*
X199013131Y-109910062D01*
X199138887Y-110255574D01*
G37*
G36*
X198333893Y-110796139D02*
G01*
X198411016Y-110811385D01*
X198481992Y-110840782D01*
X198547878Y-110885017D01*
X198609738Y-110944776D01*
X198658410Y-111006137D01*
X198666575Y-111017730D01*
X198674141Y-111029182D01*
X198681607Y-111041729D01*
X198689473Y-111056615D01*
X198698240Y-111075075D01*
X198708404Y-111098352D01*
X198720467Y-111127684D01*
X198734927Y-111164312D01*
X198752284Y-111209475D01*
X198773039Y-111264412D01*
X198797688Y-111330364D01*
X198826734Y-111408569D01*
X198860674Y-111500269D01*
X198896222Y-111596458D01*
X199093228Y-112129671D01*
X198966100Y-112175941D01*
X198838972Y-112222212D01*
X198813439Y-112159240D01*
X198787907Y-112096268D01*
X198728729Y-112168458D01*
X198690302Y-112214767D01*
X198659057Y-112250544D01*
X198631864Y-112278647D01*
X198605590Y-112301939D01*
X198577108Y-112323280D01*
X198543285Y-112345532D01*
X198517448Y-112361537D01*
X198436932Y-112406004D01*
X198355339Y-112442181D01*
X198276682Y-112468497D01*
X198206907Y-112483124D01*
X198118276Y-112488900D01*
X198033258Y-112482605D01*
X197953989Y-112464917D01*
X197882604Y-112436512D01*
X197821239Y-112398066D01*
X197772028Y-112350254D01*
X197766977Y-112343836D01*
X197732353Y-112288039D01*
X197703480Y-112221208D01*
X197702982Y-112219543D01*
X197681781Y-112148533D01*
X197668678Y-112075209D01*
X197666057Y-112016866D01*
X197940936Y-112016866D01*
X197948550Y-112072022D01*
X197966865Y-112123497D01*
X197993877Y-112166965D01*
X198023545Y-112195367D01*
X198068391Y-112219004D01*
X198123459Y-112235411D01*
X198183102Y-112243157D01*
X198213179Y-112243323D01*
X198260749Y-112236923D01*
X198315859Y-112222447D01*
X198372536Y-112201983D01*
X198424815Y-112177618D01*
X198458137Y-112157636D01*
X198509160Y-112117962D01*
X198558283Y-112071306D01*
X198602927Y-112020830D01*
X198640507Y-111969698D01*
X198668446Y-111921075D01*
X198683337Y-111881583D01*
X198694147Y-111838665D01*
X198640681Y-111683655D01*
X198587215Y-111528646D01*
X198411500Y-111597686D01*
X198332128Y-111629648D01*
X198266249Y-111658128D01*
X198211188Y-111684568D01*
X198164269Y-111710416D01*
X198122815Y-111737119D01*
X198084150Y-111766122D01*
X198055749Y-111789925D01*
X198010679Y-111837213D01*
X197975314Y-111890736D01*
X197951518Y-111946805D01*
X197941161Y-112001732D01*
X197940936Y-112016866D01*
X197666057Y-112016866D01*
X197665588Y-112006427D01*
X197667574Y-111980511D01*
X197677995Y-111934456D01*
X197697748Y-111881498D01*
X197724306Y-111826784D01*
X197755145Y-111775460D01*
X197787737Y-111732672D01*
X197790978Y-111729080D01*
X197841220Y-111678445D01*
X197895579Y-111632108D01*
X197956085Y-111588860D01*
X198024767Y-111547492D01*
X198103662Y-111506796D01*
X198194796Y-111465565D01*
X198300201Y-111422590D01*
X198317618Y-111415823D01*
X198516740Y-111338886D01*
X198496068Y-111282275D01*
X198463073Y-111204939D01*
X198425990Y-111143201D01*
X198384044Y-111096083D01*
X198336464Y-111062605D01*
X198314378Y-111052281D01*
X198287648Y-111041968D01*
X198264281Y-111035055D01*
X198241626Y-111031900D01*
X198217031Y-111032864D01*
X198187846Y-111038307D01*
X198151419Y-111048587D01*
X198105100Y-111064064D01*
X198046237Y-111085099D01*
X198030648Y-111090761D01*
X197974353Y-111111285D01*
X197931594Y-111127180D01*
X197900019Y-111139578D01*
X197877272Y-111149614D01*
X197860999Y-111158422D01*
X197848845Y-111167135D01*
X197838456Y-111176886D01*
X197827825Y-111188422D01*
X197792886Y-111236681D01*
X197770961Y-111290644D01*
X197761196Y-111353052D01*
X197761100Y-111402443D01*
X197763527Y-111453281D01*
X197632781Y-111500869D01*
X197502034Y-111548457D01*
X197487366Y-111492509D01*
X197472477Y-111406673D01*
X197473940Y-111325126D01*
X197491754Y-111247868D01*
X197525920Y-111174900D01*
X197576437Y-111106221D01*
X197643306Y-111041833D01*
X197726526Y-110981734D01*
X197826096Y-110925927D01*
X197942017Y-110874409D01*
X197990184Y-110856019D01*
X198066102Y-110829668D01*
X198130815Y-110810826D01*
X198187940Y-110798863D01*
X198241088Y-110793150D01*
X198293874Y-110793057D01*
X198333893Y-110796139D01*
G37*
G36*
X202523784Y-107241429D02*
G01*
X202679806Y-107252095D01*
X202822315Y-107272278D01*
X202951234Y-107301980D01*
X203066489Y-107341204D01*
X203168004Y-107389950D01*
X203255706Y-107448218D01*
X203329495Y-107515987D01*
X203372171Y-107571949D01*
X203409625Y-107639639D01*
X203440005Y-107714220D01*
X203461461Y-107790856D01*
X203472143Y-107864710D01*
X203472990Y-107891023D01*
X203472133Y-107938083D01*
X203469664Y-107983888D01*
X203465207Y-108030037D01*
X203458385Y-108078131D01*
X203448821Y-108129770D01*
X203436139Y-108186555D01*
X203419959Y-108250085D01*
X203399905Y-108321960D01*
X203375600Y-108403783D01*
X203346667Y-108497150D01*
X203312727Y-108603665D01*
X203284218Y-108691738D01*
X203241251Y-108822540D01*
X203200090Y-108945313D01*
X203161069Y-109059149D01*
X203124523Y-109163139D01*
X203090785Y-109256374D01*
X203060190Y-109337945D01*
X203033074Y-109406944D01*
X203009768Y-109462461D01*
X202990610Y-109503588D01*
X202975968Y-109529367D01*
X202958539Y-109554682D01*
X202942442Y-109510455D01*
X202933744Y-109485088D01*
X202931574Y-109470944D01*
X202936334Y-109463491D01*
X202947063Y-109458687D01*
X202960791Y-109451677D01*
X202960877Y-109441892D01*
X202954496Y-109431245D01*
X202942757Y-109416507D01*
X202922489Y-109393768D01*
X202897199Y-109366901D01*
X202884412Y-109353785D01*
X202850334Y-109316530D01*
X202820237Y-109276899D01*
X202790052Y-109229311D01*
X202776518Y-109205875D01*
X202754916Y-109168736D01*
X202734377Y-109135293D01*
X202717286Y-109109323D01*
X202706406Y-109094994D01*
X202687391Y-109074463D01*
X202697045Y-109118209D01*
X202702586Y-109156029D01*
X202706211Y-109210489D01*
X202707914Y-109281428D01*
X202707692Y-109368692D01*
X202706829Y-109419703D01*
X202706251Y-109458605D01*
X202706858Y-109483852D01*
X202709209Y-109498683D01*
X202713863Y-109506337D01*
X202721379Y-109510053D01*
X202722475Y-109510382D01*
X202741063Y-109514448D01*
X202749434Y-109515182D01*
X202752550Y-109523060D01*
X202753924Y-109545222D01*
X202753523Y-109579134D01*
X202751317Y-109622262D01*
X202750830Y-109629357D01*
X202742715Y-109743793D01*
X202772003Y-109754499D01*
X202796165Y-109768721D01*
X202810126Y-109791357D01*
X202814785Y-109824779D01*
X202812410Y-109860974D01*
X202807035Y-109887133D01*
X202797094Y-109920352D01*
X202784133Y-109956800D01*
X202769701Y-109992643D01*
X202755349Y-110024054D01*
X202742625Y-110047199D01*
X202733076Y-110058249D01*
X202732562Y-110058473D01*
X202724004Y-110053900D01*
X202707747Y-110039775D01*
X202687004Y-110019457D01*
X202664985Y-109996309D01*
X202644903Y-109973689D01*
X202629969Y-109954957D01*
X202623719Y-109944597D01*
X202628712Y-109936847D01*
X202644516Y-109928607D01*
X202644642Y-109928561D01*
X202668271Y-109919961D01*
X202619882Y-109863364D01*
X202591097Y-109829786D01*
X202572239Y-109806851D01*
X202562634Y-109792039D01*
X202561605Y-109782831D01*
X202568474Y-109776703D01*
X202582566Y-109771137D01*
X202594039Y-109767079D01*
X202618750Y-109756246D01*
X202630841Y-109746803D01*
X202631440Y-109743381D01*
X202623940Y-109734512D01*
X202606269Y-109717630D01*
X202581334Y-109695429D01*
X202560911Y-109677998D01*
X202527211Y-109648628D01*
X202503914Y-109625098D01*
X202487627Y-109603471D01*
X202474958Y-109579815D01*
X202473476Y-109576554D01*
X202453327Y-109531589D01*
X202484259Y-109517513D01*
X202515192Y-109503438D01*
X202422862Y-109393122D01*
X202389315Y-109352936D01*
X202365353Y-109323659D01*
X202349696Y-109303250D01*
X202341062Y-109289669D01*
X202338170Y-109280873D01*
X202339737Y-109274826D01*
X202344483Y-109269482D01*
X202344937Y-109269050D01*
X202356832Y-109257474D01*
X202361171Y-109252968D01*
X202357494Y-109245488D01*
X202346118Y-109227109D01*
X202328953Y-109200837D01*
X202313712Y-109178181D01*
X202292867Y-109147172D01*
X202275744Y-109121024D01*
X202264518Y-109103092D01*
X202261332Y-109097229D01*
X202266310Y-109089139D01*
X202282540Y-109080010D01*
X202286892Y-109078312D01*
X202306029Y-109068977D01*
X202309041Y-109060522D01*
X202308174Y-109059322D01*
X202301547Y-109050464D01*
X202286433Y-109029633D01*
X202264133Y-108998641D01*
X202235948Y-108959299D01*
X202203176Y-108913420D01*
X202167117Y-108862815D01*
X202158494Y-108850696D01*
X202122113Y-108799662D01*
X202088924Y-108753313D01*
X202060178Y-108713385D01*
X202037130Y-108681610D01*
X202021034Y-108659722D01*
X202013144Y-108649456D01*
X202012598Y-108648908D01*
X202008452Y-108654860D01*
X202003267Y-108671649D01*
X202002942Y-108673009D01*
X202002107Y-108696948D01*
X202007142Y-108732969D01*
X202015931Y-108771353D01*
X202029387Y-108835426D01*
X202033456Y-108894157D01*
X202028271Y-108954953D01*
X202020001Y-108999083D01*
X202006306Y-109062030D01*
X202039725Y-109055890D01*
X202061286Y-109053688D01*
X202074411Y-109055668D01*
X202075841Y-109057156D01*
X202076316Y-109067585D01*
X202076005Y-109092108D01*
X202074990Y-109127932D01*
X202073347Y-109172269D01*
X202071203Y-109221299D01*
X202068722Y-109276352D01*
X202067292Y-109316855D01*
X202067082Y-109345139D01*
X202068259Y-109363535D01*
X202070991Y-109374374D01*
X202075445Y-109379987D01*
X202081789Y-109382706D01*
X202082829Y-109382987D01*
X202109604Y-109391505D01*
X202125402Y-109402463D01*
X202135970Y-109420746D01*
X202140212Y-109431725D01*
X202145810Y-109455471D01*
X202147319Y-109486913D01*
X202144774Y-109529473D01*
X202141642Y-109559029D01*
X202137530Y-109597599D01*
X202134793Y-109630323D01*
X202133710Y-109653345D01*
X202134263Y-109662323D01*
X202144032Y-109666845D01*
X202164446Y-109662576D01*
X202165416Y-109662228D01*
X202184119Y-109656567D01*
X202192905Y-109660246D01*
X202197553Y-109676320D01*
X202198167Y-109679542D01*
X202205569Y-109730535D01*
X202206023Y-109773226D01*
X202199384Y-109814790D01*
X202195100Y-109831325D01*
X202184055Y-109872107D01*
X202178060Y-109899913D01*
X202177206Y-109917930D01*
X202181581Y-109929342D01*
X202191276Y-109937335D01*
X202198181Y-109941062D01*
X202215977Y-109952247D01*
X202225381Y-109962289D01*
X202225397Y-109962331D01*
X202224916Y-109973789D01*
X202221106Y-109998069D01*
X202214607Y-110031564D01*
X202206438Y-110069022D01*
X202198338Y-110107278D01*
X202192839Y-110139149D01*
X202190434Y-110161279D01*
X202191575Y-110170295D01*
X202192241Y-110174841D01*
X202180233Y-110179481D01*
X202159770Y-110183584D01*
X202135065Y-110186522D01*
X202110337Y-110187666D01*
X202089801Y-110186388D01*
X202087041Y-110185887D01*
X202052867Y-110172723D01*
X202017217Y-110149294D01*
X201986593Y-110120241D01*
X201976482Y-110107012D01*
X201969791Y-110095619D01*
X201970621Y-110087793D01*
X201981624Y-110080217D01*
X202005450Y-110069573D01*
X202006868Y-110068967D01*
X202050323Y-110050428D01*
X201958769Y-109959176D01*
X201926855Y-109927083D01*
X201899435Y-109898970D01*
X201878654Y-109877079D01*
X201866660Y-109863653D01*
X201864610Y-109860770D01*
X201870027Y-109853724D01*
X201886729Y-109844824D01*
X201893778Y-109842052D01*
X201913151Y-109833365D01*
X201922903Y-109825730D01*
X201923180Y-109823980D01*
X201915379Y-109816332D01*
X201897287Y-109802675D01*
X201874088Y-109786811D01*
X201837477Y-109757747D01*
X201808311Y-109724752D01*
X201788207Y-109690780D01*
X201778778Y-109658785D01*
X201781641Y-109631719D01*
X201785383Y-109624632D01*
X201787865Y-109616924D01*
X201784385Y-109606572D01*
X201773218Y-109590856D01*
X201752638Y-109567053D01*
X201740110Y-109553268D01*
X201707538Y-109516272D01*
X201686522Y-109487761D01*
X201676141Y-109464824D01*
X201675467Y-109444544D01*
X201683577Y-109424010D01*
X201693968Y-109407948D01*
X201697270Y-109401633D01*
X201696823Y-109394553D01*
X201691048Y-109384881D01*
X201678366Y-109370791D01*
X201657197Y-109350459D01*
X201625963Y-109322058D01*
X201598152Y-109297192D01*
X201563018Y-109265362D01*
X201532931Y-109237143D01*
X201509932Y-109214529D01*
X201496061Y-109199511D01*
X201492884Y-109194386D01*
X201501079Y-109187363D01*
X201520222Y-109177876D01*
X201533694Y-109172552D01*
X201557276Y-109162121D01*
X201569124Y-109152844D01*
X201569754Y-109149515D01*
X201563084Y-109140617D01*
X201546802Y-109121874D01*
X201523014Y-109095625D01*
X201493824Y-109064212D01*
X201477243Y-109046647D01*
X201407924Y-108968245D01*
X201346937Y-108888428D01*
X201296791Y-108810657D01*
X201270851Y-108762127D01*
X201257494Y-108737779D01*
X201247443Y-108725874D01*
X201243270Y-108725933D01*
X201237980Y-108742291D01*
X201235144Y-108773888D01*
X201234797Y-108819223D01*
X201236976Y-108876806D01*
X201238985Y-108909177D01*
X201240672Y-108955675D01*
X201240399Y-109011701D01*
X201238311Y-109070009D01*
X201234811Y-109120513D01*
X201231171Y-109165677D01*
X201228685Y-109206933D01*
X201227537Y-109240285D01*
X201227907Y-109261740D01*
X201228228Y-109264581D01*
X201231838Y-109282133D01*
X201238498Y-109285987D01*
X201253483Y-109278358D01*
X201256554Y-109276494D01*
X201272883Y-109267686D01*
X201279451Y-109269013D01*
X201280400Y-109279059D01*
X201280156Y-109292688D01*
X201279719Y-109320265D01*
X201279133Y-109358830D01*
X201278445Y-109405427D01*
X201277697Y-109457100D01*
X201277668Y-109459132D01*
X201276920Y-109510923D01*
X201276229Y-109557736D01*
X201275639Y-109596618D01*
X201275196Y-109624617D01*
X201274945Y-109638779D01*
X201274940Y-109639010D01*
X201275988Y-109648083D01*
X201282092Y-109650344D01*
X201296818Y-109645550D01*
X201318135Y-109636040D01*
X201341768Y-109625423D01*
X201357817Y-109618731D01*
X201362263Y-109617413D01*
X201362225Y-109625903D01*
X201361775Y-109648427D01*
X201360980Y-109682112D01*
X201359907Y-109724096D01*
X201359098Y-109754231D01*
X201358186Y-109800343D01*
X201358053Y-109840302D01*
X201358658Y-109871152D01*
X201359957Y-109889937D01*
X201361120Y-109894252D01*
X201372474Y-109895173D01*
X201388257Y-109891259D01*
X201405380Y-109886083D01*
X201417137Y-109886192D01*
X201423983Y-109893622D01*
X201426375Y-109910418D01*
X201424772Y-109938617D01*
X201419631Y-109980260D01*
X201415200Y-110011421D01*
X201408967Y-110054704D01*
X201403759Y-110091485D01*
X201399988Y-110118794D01*
X201398067Y-110133663D01*
X201397916Y-110135502D01*
X201405870Y-110135650D01*
X201426096Y-110134644D01*
X201450953Y-110132935D01*
X201478521Y-110131699D01*
X201498174Y-110132426D01*
X201505201Y-110134615D01*
X201504558Y-110144697D01*
X201501536Y-110167978D01*
X201496622Y-110200999D01*
X201490304Y-110240299D01*
X201490263Y-110240545D01*
X201483242Y-110285842D01*
X201480219Y-110316711D01*
X201481724Y-110335266D01*
X201488288Y-110343627D01*
X201500442Y-110343908D01*
X201515101Y-110339544D01*
X201536171Y-110340346D01*
X201549323Y-110349521D01*
X201558697Y-110362174D01*
X201560763Y-110377342D01*
X201556161Y-110401261D01*
X201555073Y-110405467D01*
X201545749Y-110433694D01*
X201531515Y-110468896D01*
X201516352Y-110501585D01*
X201500548Y-110531454D01*
X201488352Y-110549068D01*
X201476842Y-110557766D01*
X201464598Y-110560736D01*
X201437589Y-110559847D01*
X201417437Y-110548202D01*
X201399360Y-110523479D01*
X201389620Y-110505095D01*
X201389694Y-110495553D01*
X201400307Y-110489436D01*
X201404122Y-110488014D01*
X201425159Y-110480358D01*
X201375615Y-110444599D01*
X201343303Y-110420916D01*
X201323699Y-110404793D01*
X201315673Y-110394080D01*
X201318092Y-110386625D01*
X201329827Y-110380281D01*
X201339794Y-110376502D01*
X201371570Y-110364936D01*
X201352182Y-110334692D01*
X201336523Y-110314469D01*
X201312628Y-110288324D01*
X201285142Y-110261282D01*
X201279584Y-110256172D01*
X201248679Y-110226234D01*
X201228371Y-110201226D01*
X201215201Y-110176684D01*
X201212329Y-110169308D01*
X201204575Y-110145708D01*
X201204059Y-110132139D01*
X201211614Y-110122991D01*
X201220008Y-110117508D01*
X201241730Y-110104296D01*
X201153509Y-110020914D01*
X201119064Y-109988249D01*
X201095305Y-109965040D01*
X201080629Y-109949133D01*
X201073432Y-109938377D01*
X201072111Y-109930619D01*
X201075061Y-109923705D01*
X201077938Y-109919462D01*
X201090588Y-109901390D01*
X201004015Y-109781797D01*
X200973512Y-109739726D01*
X200944427Y-109699728D01*
X200919056Y-109664953D01*
X200899696Y-109638553D01*
X200891027Y-109626843D01*
X200864612Y-109591482D01*
X200868933Y-109760815D01*
X200870290Y-109813559D01*
X200871541Y-109861273D01*
X200872608Y-109901093D01*
X200873413Y-109930155D01*
X200873882Y-109945597D01*
X200873917Y-109946536D01*
X200876680Y-109957277D01*
X200886092Y-109953964D01*
X200889324Y-109951566D01*
X200901703Y-109945152D01*
X200906401Y-109946711D01*
X200907010Y-109957037D01*
X200907133Y-109981138D01*
X200906791Y-110015894D01*
X200906006Y-110058183D01*
X200905480Y-110080107D01*
X200904398Y-110124459D01*
X200903573Y-110162347D01*
X200903065Y-110190784D01*
X200902932Y-110206783D01*
X200903021Y-110209181D01*
X200910497Y-110208197D01*
X200927396Y-110202781D01*
X200927643Y-110202692D01*
X200943716Y-110198391D01*
X200953049Y-110203163D01*
X200961033Y-110220325D01*
X200962423Y-110224107D01*
X200968084Y-110250029D01*
X200967898Y-110282984D01*
X200961627Y-110325845D01*
X200949423Y-110379918D01*
X200941940Y-110416291D01*
X200941973Y-110438756D01*
X200950291Y-110448900D01*
X200967663Y-110448315D01*
X200980559Y-110444287D01*
X201002836Y-110438090D01*
X201012298Y-110440742D01*
X201012872Y-110443770D01*
X201012374Y-110456820D01*
X201011298Y-110482337D01*
X201009831Y-110515902D01*
X201008997Y-110534622D01*
X201007841Y-110570515D01*
X201007712Y-110600550D01*
X201008590Y-110620341D01*
X201009421Y-110625081D01*
X201019566Y-110631322D01*
X201039806Y-110633068D01*
X201045896Y-110632620D01*
X201066667Y-110631519D01*
X201078123Y-110636694D01*
X201086107Y-110652207D01*
X201089996Y-110663267D01*
X201096141Y-110695791D01*
X201090499Y-110729371D01*
X201088624Y-110735086D01*
X201076789Y-110764924D01*
X201066909Y-110778651D01*
X201058113Y-110776824D01*
X201049574Y-110760115D01*
X201039252Y-110739292D01*
X201022318Y-110712245D01*
X201007433Y-110691500D01*
X200989239Y-110663935D01*
X200966927Y-110624071D01*
X200942375Y-110575416D01*
X200922539Y-110532869D01*
X200888851Y-110460512D01*
X200851090Y-110383701D01*
X200810505Y-110304658D01*
X200768343Y-110225603D01*
X200725855Y-110148758D01*
X200684289Y-110076345D01*
X200644896Y-110010583D01*
X200608922Y-109953696D01*
X200577617Y-109907903D01*
X200554034Y-109877504D01*
X200468124Y-109789861D01*
X200368583Y-109710903D01*
X200256885Y-109641721D01*
X200189345Y-109607548D01*
X200085270Y-109565799D01*
X199967710Y-109531293D01*
X199838544Y-109504219D01*
X199699649Y-109484767D01*
X199552902Y-109473127D01*
X199400181Y-109469485D01*
X199243364Y-109474033D01*
X199084330Y-109486955D01*
X199040853Y-109491954D01*
X198958034Y-109502921D01*
X198874750Y-109515739D01*
X198789034Y-109530833D01*
X198698916Y-109548629D01*
X198602430Y-109569553D01*
X198497604Y-109594029D01*
X198382471Y-109622485D01*
X198255066Y-109655345D01*
X198123589Y-109690297D01*
X198018975Y-109718613D01*
X197921246Y-109745496D01*
X197828657Y-109771501D01*
X197739460Y-109797184D01*
X197651912Y-109823100D01*
X197564262Y-109849802D01*
X197474769Y-109877846D01*
X197381684Y-109907786D01*
X197283261Y-109940177D01*
X197177755Y-109975575D01*
X197063419Y-110014534D01*
X196938508Y-110057609D01*
X196801274Y-110105354D01*
X196649971Y-110158325D01*
X196644097Y-110160386D01*
X196543065Y-110195798D01*
X196445972Y-110229734D01*
X196354095Y-110261755D01*
X196268711Y-110291420D01*
X196191102Y-110318286D01*
X196122542Y-110341914D01*
X196064313Y-110361861D01*
X196017691Y-110377686D01*
X195983954Y-110388949D01*
X195964383Y-110395208D01*
X195960849Y-110396201D01*
X195938536Y-110401896D01*
X195904381Y-110410922D01*
X195862837Y-110422093D01*
X195818352Y-110434217D01*
X195813282Y-110435610D01*
X195682717Y-110468891D01*
X195563402Y-110493916D01*
X195455934Y-110510621D01*
X195360914Y-110518942D01*
X195278939Y-110518818D01*
X195210608Y-110510184D01*
X195180954Y-110502403D01*
X195137555Y-110480313D01*
X195104558Y-110446873D01*
X195082932Y-110404755D01*
X195073634Y-110356628D01*
X195077630Y-110305168D01*
X195093141Y-110258741D01*
X195128111Y-110198279D01*
X195179215Y-110132800D01*
X195246443Y-110062308D01*
X195329790Y-109986812D01*
X195429247Y-109906317D01*
X195544806Y-109820830D01*
X195676459Y-109730357D01*
X195824200Y-109634904D01*
X195925000Y-109572541D01*
X196089037Y-109474957D01*
X196267538Y-109373160D01*
X196458833Y-109267975D01*
X196661252Y-109160231D01*
X196873123Y-109050757D01*
X197092774Y-108940378D01*
X197318536Y-108829923D01*
X197548738Y-108720218D01*
X197781707Y-108612093D01*
X198015774Y-108506375D01*
X198249267Y-108403890D01*
X198480517Y-108305468D01*
X198498352Y-108298009D01*
X198547222Y-108278155D01*
X198609782Y-108253634D01*
X198684602Y-108224958D01*
X198770253Y-108192637D01*
X198865305Y-108157183D01*
X198968329Y-108119106D01*
X199077895Y-108078920D01*
X199192575Y-108037134D01*
X199310937Y-107994260D01*
X199431554Y-107950810D01*
X199552995Y-107907295D01*
X199673830Y-107864226D01*
X199792631Y-107822114D01*
X199907969Y-107781471D01*
X200018412Y-107742809D01*
X200122533Y-107706638D01*
X200218900Y-107673470D01*
X200306087Y-107643815D01*
X200382661Y-107618187D01*
X200447194Y-107597095D01*
X200498257Y-107581051D01*
X200523883Y-107573477D01*
X200798143Y-107498553D01*
X201059566Y-107433134D01*
X201308077Y-107377219D01*
X201543602Y-107330812D01*
X201766063Y-107293912D01*
X201975388Y-107266523D01*
X202171500Y-107248645D01*
X202354323Y-107240280D01*
X202523784Y-107241429D01*
G37*
D11*
%TO.C,SW1*%
X206714703Y-138121174D02*
X201546394Y-140002285D01*
X198981243Y-132954590D01*
X204149552Y-131073479D01*
X206714703Y-138121174D01*
X207964675Y-129684888D02*
X195457395Y-134237165D01*
X193618995Y-129186202D01*
X206126275Y-124633925D01*
X207964675Y-129684888D01*
D13*
%TO.C,G\u002A\u002A\u002A*%
G36*
X214900827Y-115635664D02*
G01*
X214902456Y-115637243D01*
X214906724Y-115641664D01*
X214913441Y-115648718D01*
X214922407Y-115658197D01*
X214933423Y-115669892D01*
X214946298Y-115683594D01*
X214960833Y-115699092D01*
X214976832Y-115716179D01*
X214994099Y-115734646D01*
X215012438Y-115754285D01*
X215031652Y-115774885D01*
X215039867Y-115783698D01*
X215059416Y-115804673D01*
X215078184Y-115824801D01*
X215095977Y-115843872D01*
X215112594Y-115861672D01*
X215127840Y-115877991D01*
X215141515Y-115892616D01*
X215153420Y-115905336D01*
X215163359Y-115915940D01*
X215171131Y-115924214D01*
X215176541Y-115929947D01*
X215179391Y-115932930D01*
X215179772Y-115933305D01*
X215181139Y-115933202D01*
X215183947Y-115931527D01*
X215188411Y-115928091D01*
X215194746Y-115922702D01*
X215203172Y-115915173D01*
X215213902Y-115905312D01*
X215227157Y-115892929D01*
X215243150Y-115877836D01*
X215244667Y-115876399D01*
X215307021Y-115817308D01*
X215358578Y-116040122D01*
X215365439Y-116069840D01*
X215372004Y-116098407D01*
X215378215Y-116125567D01*
X215384012Y-116151055D01*
X215389342Y-116174612D01*
X215394143Y-116195980D01*
X215398355Y-116214895D01*
X215401925Y-116231100D01*
X215404788Y-116244333D01*
X215406893Y-116254334D01*
X215408178Y-116260841D01*
X215408584Y-116263596D01*
X215408562Y-116263672D01*
X215406441Y-116263143D01*
X215400664Y-116261451D01*
X215391540Y-116258691D01*
X215379383Y-116254963D01*
X215364505Y-116250366D01*
X215347218Y-116245000D01*
X215327837Y-116238959D01*
X215306672Y-116232346D01*
X215284035Y-116225257D01*
X215260240Y-116217791D01*
X215235600Y-116210047D01*
X215210425Y-116202125D01*
X215185030Y-116194121D01*
X215159726Y-116186133D01*
X215134826Y-116178262D01*
X215110643Y-116170605D01*
X215087490Y-116163261D01*
X215065678Y-116156329D01*
X215045520Y-116149906D01*
X215027328Y-116144094D01*
X215011416Y-116138988D01*
X214998095Y-116134687D01*
X214987678Y-116131291D01*
X214980476Y-116128898D01*
X214976805Y-116127605D01*
X214976390Y-116127411D01*
X214977762Y-116125875D01*
X214981889Y-116121838D01*
X214988447Y-116115608D01*
X214997104Y-116107490D01*
X215007538Y-116097788D01*
X215019422Y-116086810D01*
X215032430Y-116074859D01*
X215036093Y-116071505D01*
X215049392Y-116059314D01*
X215061696Y-116047992D01*
X215072673Y-116037849D01*
X215081991Y-116029196D01*
X215089315Y-116022338D01*
X215094313Y-116017589D01*
X215096652Y-116015257D01*
X215096782Y-116015085D01*
X215095462Y-116013428D01*
X215091529Y-116008981D01*
X215085218Y-116001995D01*
X215076761Y-115992723D01*
X215066393Y-115981417D01*
X215054348Y-115968330D01*
X215040861Y-115953710D01*
X215026164Y-115937814D01*
X215010492Y-115920893D01*
X214994080Y-115903200D01*
X214977161Y-115884985D01*
X214959969Y-115866500D01*
X214942735Y-115847999D01*
X214925703Y-115829733D01*
X214909096Y-115811954D01*
X214893153Y-115794915D01*
X214878107Y-115778868D01*
X214864192Y-115764065D01*
X214851644Y-115750759D01*
X214842358Y-115740951D01*
X214834085Y-115732196D01*
X214826927Y-115724547D01*
X214821331Y-115718489D01*
X214817743Y-115714502D01*
X214816600Y-115713075D01*
X214818129Y-115711589D01*
X214822296Y-115707618D01*
X214828710Y-115701535D01*
X214836976Y-115693714D01*
X214846702Y-115684524D01*
X214857493Y-115674342D01*
X214858018Y-115673845D01*
X214868905Y-115663656D01*
X214878832Y-115654512D01*
X214887393Y-115646777D01*
X214894181Y-115640813D01*
X214898786Y-115636987D01*
X214900804Y-115635659D01*
X214900827Y-115635664D01*
G37*
G36*
X214450280Y-116062267D02*
G01*
X214453284Y-116065149D01*
X214458226Y-116070147D01*
X214465188Y-116077351D01*
X214474252Y-116086848D01*
X214485504Y-116098728D01*
X214499025Y-116113079D01*
X214514900Y-116129988D01*
X214533211Y-116149546D01*
X214554041Y-116171837D01*
X214577474Y-116196954D01*
X214603594Y-116224983D01*
X214623184Y-116246020D01*
X214640326Y-116264422D01*
X214656649Y-116281920D01*
X214671930Y-116298279D01*
X214685948Y-116313258D01*
X214698479Y-116326623D01*
X214709300Y-116338134D01*
X214718188Y-116347557D01*
X214724919Y-116354650D01*
X214729274Y-116359179D01*
X214731025Y-116360906D01*
X214731042Y-116360916D01*
X214732799Y-116359637D01*
X214737247Y-116355782D01*
X214744062Y-116349646D01*
X214752920Y-116341531D01*
X214763497Y-116331730D01*
X214775468Y-116320544D01*
X214788509Y-116308270D01*
X214794357Y-116302740D01*
X214807722Y-116290157D01*
X214820139Y-116278609D01*
X214831292Y-116268381D01*
X214840858Y-116259760D01*
X214848518Y-116253036D01*
X214853953Y-116248492D01*
X214856842Y-116246417D01*
X214857225Y-116246363D01*
X214857828Y-116248735D01*
X214859271Y-116254839D01*
X214861480Y-116264353D01*
X214864381Y-116276953D01*
X214867903Y-116292317D01*
X214871971Y-116310117D01*
X214876512Y-116330034D01*
X214881453Y-116351739D01*
X214886721Y-116374913D01*
X214892241Y-116399229D01*
X214897942Y-116424365D01*
X214903750Y-116449997D01*
X214909590Y-116475800D01*
X214915391Y-116501450D01*
X214921080Y-116526625D01*
X214926580Y-116551000D01*
X214931822Y-116574253D01*
X214936729Y-116596057D01*
X214941231Y-116616090D01*
X214945254Y-116634027D01*
X214948723Y-116649547D01*
X214951566Y-116662324D01*
X214953708Y-116672034D01*
X214955079Y-116678354D01*
X214955603Y-116680960D01*
X214955607Y-116680998D01*
X214953627Y-116680818D01*
X214947684Y-116679405D01*
X214937788Y-116676763D01*
X214923957Y-116672898D01*
X214906207Y-116667811D01*
X214884547Y-116661509D01*
X214858997Y-116653992D01*
X214829569Y-116645270D01*
X214796276Y-116635342D01*
X214759135Y-116624216D01*
X214741268Y-116618848D01*
X214712371Y-116610154D01*
X214684614Y-116601790D01*
X214658253Y-116593838D01*
X214633547Y-116586372D01*
X214610755Y-116579473D01*
X214590135Y-116573220D01*
X214571945Y-116567689D01*
X214556445Y-116562960D01*
X214543890Y-116559112D01*
X214534543Y-116556222D01*
X214528659Y-116554369D01*
X214526497Y-116553632D01*
X214526493Y-116553627D01*
X214527867Y-116552079D01*
X214531959Y-116547976D01*
X214538452Y-116541622D01*
X214547031Y-116533323D01*
X214557382Y-116523383D01*
X214569190Y-116512104D01*
X214582137Y-116499792D01*
X214587922Y-116494309D01*
X214601259Y-116481635D01*
X214613580Y-116469846D01*
X214624570Y-116459247D01*
X214633917Y-116450145D01*
X214641303Y-116442849D01*
X214646417Y-116437664D01*
X214648943Y-116434896D01*
X214649156Y-116434528D01*
X214647658Y-116432886D01*
X214643467Y-116428448D01*
X214636782Y-116421421D01*
X214627797Y-116412012D01*
X214616715Y-116400429D01*
X214603731Y-116386878D01*
X214589041Y-116371563D01*
X214572845Y-116354691D01*
X214555342Y-116336471D01*
X214536728Y-116317108D01*
X214517202Y-116296807D01*
X214508681Y-116287952D01*
X214488816Y-116267301D01*
X214469776Y-116247484D01*
X214451759Y-116228712D01*
X214434964Y-116211190D01*
X214419586Y-116195127D01*
X214405827Y-116180731D01*
X214393885Y-116168208D01*
X214383960Y-116157767D01*
X214376246Y-116149617D01*
X214370944Y-116143962D01*
X214368251Y-116141014D01*
X214367947Y-116140632D01*
X214369176Y-116138736D01*
X214373070Y-116134393D01*
X214379244Y-116127993D01*
X214387315Y-116119926D01*
X214396899Y-116110582D01*
X214407609Y-116100354D01*
X214407729Y-116100241D01*
X214418508Y-116090057D01*
X214428271Y-116080859D01*
X214436614Y-116073020D01*
X214443138Y-116066915D01*
X214447442Y-116062923D01*
X214449126Y-116061416D01*
X214449128Y-116061415D01*
X214450280Y-116062267D01*
G37*
G36*
X214746705Y-113398004D02*
G01*
X214853408Y-113436841D01*
X214621832Y-114073090D01*
X214390256Y-114709340D01*
X214846437Y-114875375D01*
X214888410Y-114890660D01*
X214929340Y-114905576D01*
X214969051Y-114920058D01*
X215007373Y-114934045D01*
X215044136Y-114947476D01*
X215079167Y-114960285D01*
X215112294Y-114972411D01*
X215143347Y-114983790D01*
X215172152Y-114994359D01*
X215198539Y-115004056D01*
X215222338Y-115012817D01*
X215243375Y-115020579D01*
X215261479Y-115027280D01*
X215276480Y-115032856D01*
X215288204Y-115037246D01*
X215296481Y-115040384D01*
X215301140Y-115042208D01*
X215302156Y-115042675D01*
X215300637Y-115044182D01*
X215296197Y-115048482D01*
X215288926Y-115055495D01*
X215278914Y-115065130D01*
X215266245Y-115077305D01*
X215251015Y-115091932D01*
X215233311Y-115108927D01*
X215213221Y-115128205D01*
X215190835Y-115149679D01*
X215166243Y-115173263D01*
X215139533Y-115198874D01*
X215110794Y-115226425D01*
X215080119Y-115255829D01*
X215047593Y-115287003D01*
X215013308Y-115319858D01*
X214977351Y-115354312D01*
X214939813Y-115390278D01*
X214900782Y-115427669D01*
X214860349Y-115466402D01*
X214818601Y-115506391D01*
X214775630Y-115547548D01*
X214731522Y-115589789D01*
X214686371Y-115633030D01*
X214640261Y-115677182D01*
X214593285Y-115722163D01*
X214545529Y-115767885D01*
X214533907Y-115779013D01*
X214485967Y-115824910D01*
X214438780Y-115870089D01*
X214392434Y-115914465D01*
X214347017Y-115957950D01*
X214302619Y-116000461D01*
X214259333Y-116041910D01*
X214217244Y-116082212D01*
X214176444Y-116121282D01*
X214137022Y-116159034D01*
X214099068Y-116195383D01*
X214062670Y-116230240D01*
X214027919Y-116263523D01*
X213994903Y-116295145D01*
X213963715Y-116325020D01*
X213934438Y-116353063D01*
X213907167Y-116379188D01*
X213881989Y-116403307D01*
X213858995Y-116425338D01*
X213838274Y-116445194D01*
X213819915Y-116462789D01*
X213804008Y-116478036D01*
X213790642Y-116490852D01*
X213779907Y-116501149D01*
X213771893Y-116508842D01*
X213766687Y-116513845D01*
X213764381Y-116516074D01*
X213764269Y-116516185D01*
X213764733Y-116516684D01*
X213766676Y-116517695D01*
X213770226Y-116519266D01*
X213775518Y-116521448D01*
X213782685Y-116524290D01*
X213791860Y-116527839D01*
X213803176Y-116532148D01*
X213816765Y-116537264D01*
X213832761Y-116543238D01*
X213851297Y-116550116D01*
X213872507Y-116557950D01*
X213896521Y-116566790D01*
X213923475Y-116576682D01*
X213953500Y-116587678D01*
X213986730Y-116599827D01*
X214023296Y-116613179D01*
X214063334Y-116627781D01*
X214106976Y-116643683D01*
X214154355Y-116660936D01*
X214172801Y-116667651D01*
X214583181Y-116817017D01*
X214543992Y-116924690D01*
X214504801Y-117032362D01*
X214080926Y-116878085D01*
X213657049Y-116723806D01*
X213400179Y-117429555D01*
X213143308Y-118135303D01*
X213036604Y-118096467D01*
X212929902Y-118057631D01*
X213186774Y-117351882D01*
X213443645Y-116646133D01*
X213018791Y-116491499D01*
X212593936Y-116336864D01*
X212633124Y-116229196D01*
X212672313Y-116121528D01*
X213083306Y-116270558D01*
X213494301Y-116419588D01*
X213386712Y-115437080D01*
X213299438Y-114640092D01*
X213529809Y-114640092D01*
X213529860Y-114641494D01*
X213529993Y-114643572D01*
X213530218Y-114646442D01*
X213530550Y-114650223D01*
X213531000Y-114655031D01*
X213531583Y-114660983D01*
X213532308Y-114668195D01*
X213533189Y-114676785D01*
X213534239Y-114686867D01*
X213535471Y-114698561D01*
X213536896Y-114711978D01*
X213538528Y-114727239D01*
X213540378Y-114744460D01*
X213542458Y-114763759D01*
X213544782Y-114785251D01*
X213547362Y-114809050D01*
X213550210Y-114835275D01*
X213553340Y-114864046D01*
X213556764Y-114895474D01*
X213560493Y-114929678D01*
X213564540Y-114966776D01*
X213568919Y-115006883D01*
X213573641Y-115050114D01*
X213578719Y-115096588D01*
X213584164Y-115146421D01*
X213589992Y-115199730D01*
X213596212Y-115256630D01*
X213602839Y-115317240D01*
X213609883Y-115381674D01*
X213617359Y-115450051D01*
X213622990Y-115501568D01*
X213629069Y-115557123D01*
X213635038Y-115611615D01*
X213640886Y-115664895D01*
X213646592Y-115716818D01*
X213652141Y-115767239D01*
X213657519Y-115816013D01*
X213662707Y-115862993D01*
X213667691Y-115908034D01*
X213672454Y-115950991D01*
X213676978Y-115991719D01*
X213681249Y-116030069D01*
X213685249Y-116065899D01*
X213688965Y-116099063D01*
X213692377Y-116129414D01*
X213695471Y-116156808D01*
X213698230Y-116181098D01*
X213700637Y-116202138D01*
X213702677Y-116219786D01*
X213704333Y-116233894D01*
X213705589Y-116244315D01*
X213706430Y-116250905D01*
X213706838Y-116253518D01*
X213706860Y-116253559D01*
X213708455Y-116252144D01*
X213712932Y-116247965D01*
X213720170Y-116241141D01*
X213730040Y-116231793D01*
X213742420Y-116220037D01*
X213757185Y-116205997D01*
X213774210Y-116189788D01*
X213793371Y-116171530D01*
X213814543Y-116151347D01*
X213837600Y-116129352D01*
X213862419Y-116105667D01*
X213888874Y-116080412D01*
X213916842Y-116053704D01*
X213946196Y-116025665D01*
X213976814Y-115996413D01*
X214008570Y-115966068D01*
X214041340Y-115934748D01*
X214074997Y-115902573D01*
X214109418Y-115869661D01*
X214144480Y-115836135D01*
X214180056Y-115802112D01*
X214216019Y-115767709D01*
X214252250Y-115733049D01*
X214288622Y-115698250D01*
X214325011Y-115663430D01*
X214361287Y-115628710D01*
X214397332Y-115594209D01*
X214433019Y-115560047D01*
X214468222Y-115526340D01*
X214502817Y-115493211D01*
X214536682Y-115460778D01*
X214569689Y-115429161D01*
X214601714Y-115398477D01*
X214632633Y-115368849D01*
X214662321Y-115340392D01*
X214690655Y-115313229D01*
X214717507Y-115287477D01*
X214742754Y-115263255D01*
X214766272Y-115240685D01*
X214787935Y-115219884D01*
X214807619Y-115200972D01*
X214825199Y-115184069D01*
X214840552Y-115169293D01*
X214853551Y-115156765D01*
X214864073Y-115146601D01*
X214871993Y-115138924D01*
X214877185Y-115133852D01*
X214879524Y-115131503D01*
X214879650Y-115131352D01*
X214877760Y-115130543D01*
X214872126Y-115128373D01*
X214862919Y-115124907D01*
X214850312Y-115120207D01*
X214834478Y-115114335D01*
X214815587Y-115107354D01*
X214793813Y-115099327D01*
X214769328Y-115090316D01*
X214742305Y-115080385D01*
X214712913Y-115069597D01*
X214681328Y-115058015D01*
X214647721Y-115045699D01*
X214612263Y-115032715D01*
X214575127Y-115019124D01*
X214536485Y-115004989D01*
X214496509Y-114990373D01*
X214455372Y-114975340D01*
X214413247Y-114959951D01*
X214370304Y-114944269D01*
X214326715Y-114928357D01*
X214282655Y-114912279D01*
X214238293Y-114896097D01*
X214193804Y-114879873D01*
X214149359Y-114863671D01*
X214105129Y-114847553D01*
X214061288Y-114831581D01*
X214018009Y-114815820D01*
X213975460Y-114800330D01*
X213933818Y-114785177D01*
X213893252Y-114770422D01*
X213853936Y-114756128D01*
X213816042Y-114742357D01*
X213779740Y-114729173D01*
X213745205Y-114716637D01*
X213712609Y-114704814D01*
X213682122Y-114693767D01*
X213653918Y-114683557D01*
X213628169Y-114674247D01*
X213605046Y-114665901D01*
X213584722Y-114658581D01*
X213567370Y-114652349D01*
X213553162Y-114647268D01*
X213542269Y-114643403D01*
X213534865Y-114640814D01*
X213531120Y-114639566D01*
X213530679Y-114639457D01*
X213530511Y-114639382D01*
X213530336Y-114639168D01*
X213530168Y-114638932D01*
X213530021Y-114638789D01*
X213529901Y-114638858D01*
X213529827Y-114639254D01*
X213529809Y-114640092D01*
X213299438Y-114640092D01*
X213279123Y-114454571D01*
X213303132Y-114388485D01*
X213327142Y-114322400D01*
X213751996Y-114477033D01*
X214053226Y-114586671D01*
X214176851Y-114631667D01*
X214408427Y-113995417D01*
X214640003Y-113359167D01*
X214746705Y-113398004D01*
G37*
%TD*%
M02*
