%TF.GenerationSoftware,KiCad,Pcbnew,9.0.1*%
%TF.CreationDate,2025-05-09T15:01:24+02:00*%
%TF.ProjectId,Freilab_Blinkies,46726569-6c61-4625-9f42-6c696e6b6965,rev?*%
%TF.SameCoordinates,Original*%
%TF.FileFunction,Legend,Bot*%
%TF.FilePolarity,Positive*%
%FSLAX46Y46*%
G04 Gerber Fmt 4.6, Leading zero omitted, Abs format (unit mm)*
G04 Created by KiCad (PCBNEW 9.0.1) date 2025-05-09 15:01:24*
%MOMM*%
%LPD*%
G01*
G04 APERTURE LIST*
%ADD10C,0.150000*%
%ADD11C,0.000000*%
%ADD12C,0.120000*%
G04 APERTURE END LIST*
D10*
X181987785Y-120488440D02*
X181869830Y-120582048D01*
X181869830Y-120582048D02*
X181841370Y-120643082D01*
X181841370Y-120643082D02*
X181829196Y-120748863D01*
X181829196Y-120748863D02*
X181878056Y-120883105D01*
X181878056Y-120883105D02*
X181955376Y-120956313D01*
X181955376Y-120956313D02*
X182016410Y-120984773D01*
X182016410Y-120984773D02*
X182122192Y-120996947D01*
X182122192Y-120996947D02*
X182480170Y-120866654D01*
X182480170Y-120866654D02*
X182138150Y-119926961D01*
X182138150Y-119926961D02*
X181824919Y-120040968D01*
X181824919Y-120040968D02*
X181751711Y-120118288D01*
X181751711Y-120118288D02*
X181723250Y-120179322D01*
X181723250Y-120179322D02*
X181711076Y-120285104D01*
X181711076Y-120285104D02*
X181743650Y-120374598D01*
X181743650Y-120374598D02*
X181820970Y-120447806D01*
X181820970Y-120447806D02*
X181882004Y-120476267D01*
X181882004Y-120476267D02*
X181987785Y-120488440D01*
X181987785Y-120488440D02*
X182301016Y-120374434D01*
X181332699Y-120220121D02*
X180795732Y-120415561D01*
X181406235Y-121257534D02*
X181064215Y-120317841D01*
X180332301Y-121648414D02*
X180869268Y-121452974D01*
X180600784Y-121550694D02*
X180258764Y-120611001D01*
X180258764Y-120611001D02*
X180397119Y-120712670D01*
X180397119Y-120712670D02*
X180519187Y-120769591D01*
X180519187Y-120769591D02*
X180624968Y-120781765D01*
D11*
%TO.C,G\u002A\u002A\u002A*%
G36*
X211475188Y-112262147D02*
G01*
X211488888Y-112262974D01*
X211503012Y-112264249D01*
X211580488Y-112275720D01*
X211663170Y-112299412D01*
X211734421Y-112334355D01*
X211795369Y-112381123D01*
X211847133Y-112440289D01*
X211869812Y-112473407D01*
X211896125Y-112519167D01*
X211917751Y-112568051D01*
X211935953Y-112623504D01*
X211951992Y-112688968D01*
X211967130Y-112767891D01*
X211975287Y-112818799D01*
X211988632Y-112944948D01*
X211990087Y-113059083D01*
X211979650Y-113161203D01*
X211957323Y-113251307D01*
X211923103Y-113329395D01*
X211876994Y-113395468D01*
X211818994Y-113449525D01*
X211749103Y-113491565D01*
X211667323Y-113521589D01*
X211611537Y-113536860D01*
X211587376Y-113399836D01*
X211563214Y-113262812D01*
X211608456Y-113239495D01*
X211651182Y-113214717D01*
X211700346Y-113175056D01*
X211736116Y-113129087D01*
X211760440Y-113074698D01*
X211765116Y-113059725D01*
X211768366Y-113045851D01*
X211769834Y-113030969D01*
X211769325Y-113012473D01*
X211766643Y-112987755D01*
X211761592Y-112954211D01*
X211753979Y-112909234D01*
X211743606Y-112850219D01*
X211740714Y-112833888D01*
X211729500Y-112772393D01*
X211719744Y-112724541D01*
X211710433Y-112687855D01*
X211700554Y-112659858D01*
X211689092Y-112638076D01*
X211675033Y-112620033D01*
X211657362Y-112603254D01*
X211635064Y-112585261D01*
X211615081Y-112571296D01*
X211562299Y-112546829D01*
X211500520Y-112534063D01*
X211428512Y-112532817D01*
X211345039Y-112542911D01*
X211285677Y-112553314D01*
X211318609Y-112764226D01*
X211321457Y-112782694D01*
X211336942Y-112895465D01*
X211346802Y-112995005D01*
X211351005Y-113083676D01*
X211349521Y-113163841D01*
X211342320Y-113237865D01*
X211329370Y-113308110D01*
X211310641Y-113376938D01*
X211309150Y-113381541D01*
X211288391Y-113431160D01*
X211259362Y-113483530D01*
X211225257Y-113533888D01*
X211189271Y-113577472D01*
X211154596Y-113609525D01*
X211133146Y-113624202D01*
X211072034Y-113655918D01*
X211001981Y-113681232D01*
X210929885Y-113698376D01*
X210928194Y-113698778D01*
X210855880Y-113707189D01*
X210790247Y-113705101D01*
X210782162Y-113703937D01*
X210716151Y-113685225D01*
X210652173Y-113651305D01*
X210591881Y-113603686D01*
X210536928Y-113543881D01*
X210488968Y-113473400D01*
X210449655Y-113393756D01*
X210427434Y-113326014D01*
X210410896Y-113244738D01*
X210401429Y-113155987D01*
X210399682Y-113064026D01*
X210400046Y-113052289D01*
X210605276Y-113052289D01*
X210610315Y-113109746D01*
X210620932Y-113169062D01*
X210635949Y-113224026D01*
X210654192Y-113268423D01*
X210669375Y-113294388D01*
X210705903Y-113342165D01*
X210747647Y-113381654D01*
X210790540Y-113408673D01*
X210829972Y-113420166D01*
X210881122Y-113421825D01*
X210934858Y-113411948D01*
X210986431Y-113390964D01*
X210999425Y-113383202D01*
X211041814Y-113346769D01*
X211078474Y-113298128D01*
X211107144Y-113240738D01*
X211125561Y-113178063D01*
X211131975Y-113141565D01*
X211137760Y-113093579D01*
X211140158Y-113044327D01*
X211139084Y-112990770D01*
X211134451Y-112929865D01*
X211126176Y-112858573D01*
X211114170Y-112773854D01*
X211086103Y-112587159D01*
X210925128Y-112618361D01*
X210764152Y-112649563D01*
X210732389Y-112680385D01*
X210705634Y-112713027D01*
X210677495Y-112761533D01*
X210652003Y-112819645D01*
X210630611Y-112883546D01*
X210614767Y-112949416D01*
X210605920Y-113013439D01*
X210605276Y-113052289D01*
X210400046Y-113052289D01*
X210400623Y-113033648D01*
X210402982Y-112993230D01*
X210407224Y-112957892D01*
X210414258Y-112923493D01*
X210425000Y-112885892D01*
X210440360Y-112840945D01*
X210461252Y-112784511D01*
X210494182Y-112697166D01*
X210426879Y-112706541D01*
X210359578Y-112715916D01*
X210336086Y-112582683D01*
X210312593Y-112449451D01*
X210872872Y-112353459D01*
X210973948Y-112336149D01*
X211070333Y-112319692D01*
X211152583Y-112305744D01*
X211222024Y-112294114D01*
X211279979Y-112284620D01*
X211327770Y-112277070D01*
X211366720Y-112271280D01*
X211398153Y-112267060D01*
X211423394Y-112264224D01*
X211443764Y-112262586D01*
X211460589Y-112261956D01*
X211475188Y-112262147D01*
G37*
G36*
X211118197Y-110568623D02*
G01*
X211205283Y-110586955D01*
X211305103Y-110621318D01*
X211395066Y-110667725D01*
X211474313Y-110725287D01*
X211541989Y-110793118D01*
X211597229Y-110870327D01*
X211639178Y-110956026D01*
X211666974Y-111049328D01*
X211679761Y-111149343D01*
X211680265Y-111173846D01*
X211675249Y-111233608D01*
X211660572Y-111294909D01*
X211635297Y-111361044D01*
X211598489Y-111435303D01*
X211597223Y-111437649D01*
X211578510Y-111472854D01*
X211563356Y-111502306D01*
X211553286Y-111522981D01*
X211549823Y-111531859D01*
X211553521Y-111531909D01*
X211571845Y-111529679D01*
X211603992Y-111524921D01*
X211648266Y-111517912D01*
X211702976Y-111508926D01*
X211766428Y-111498239D01*
X211836926Y-111486126D01*
X211912779Y-111472862D01*
X212274880Y-111409013D01*
X212299099Y-111546363D01*
X212323316Y-111683712D01*
X211282796Y-111867182D01*
X210944507Y-111926832D01*
X210242275Y-112050655D01*
X210218127Y-111913703D01*
X210193978Y-111776752D01*
X210243162Y-111765525D01*
X210292345Y-111754297D01*
X210235090Y-111693048D01*
X210198624Y-111651441D01*
X210147775Y-111580363D01*
X210113022Y-111511261D01*
X210112423Y-111509694D01*
X210103593Y-111480449D01*
X210093972Y-111439445D01*
X210084381Y-111391378D01*
X210075636Y-111340938D01*
X210068555Y-111292818D01*
X210065453Y-111265094D01*
X210293898Y-111265094D01*
X210294525Y-111295791D01*
X210299338Y-111335701D01*
X210302679Y-111356278D01*
X210314977Y-111409264D01*
X210330450Y-111451466D01*
X210331407Y-111453461D01*
X210353224Y-111492973D01*
X210381960Y-111537147D01*
X210414634Y-111582070D01*
X210448262Y-111623833D01*
X210479860Y-111658523D01*
X210506446Y-111682230D01*
X210548924Y-111713347D01*
X210896071Y-111652135D01*
X210979423Y-111637359D01*
X211053350Y-111624031D01*
X211113527Y-111612865D01*
X211161466Y-111603542D01*
X211198676Y-111595745D01*
X211226668Y-111589158D01*
X211246948Y-111583462D01*
X211261027Y-111578342D01*
X211270415Y-111573479D01*
X211283417Y-111563431D01*
X211310357Y-111535488D01*
X211339947Y-111497817D01*
X211369579Y-111454117D01*
X211396646Y-111408086D01*
X211418539Y-111363425D01*
X211436571Y-111317504D01*
X211449525Y-111269645D01*
X211454100Y-111222959D01*
X211450762Y-111171923D01*
X211439984Y-111111012D01*
X211432612Y-111077495D01*
X211424463Y-111046355D01*
X211416097Y-111024044D01*
X211405795Y-111006176D01*
X211391831Y-110988363D01*
X211380637Y-110976034D01*
X211328246Y-110933253D01*
X211263438Y-110899294D01*
X211187948Y-110874396D01*
X211103517Y-110858800D01*
X211011880Y-110852746D01*
X210914777Y-110856475D01*
X210813945Y-110870227D01*
X210711124Y-110894242D01*
X210699745Y-110897515D01*
X210595690Y-110933184D01*
X210507289Y-110974828D01*
X210434335Y-111022604D01*
X210376625Y-111076668D01*
X210333956Y-111137177D01*
X210306121Y-111204287D01*
X210297831Y-111236349D01*
X210293898Y-111265094D01*
X210065453Y-111265094D01*
X210063956Y-111251710D01*
X210062657Y-111222305D01*
X210071048Y-111152403D01*
X210093987Y-111073589D01*
X210129799Y-110995332D01*
X210176929Y-110920981D01*
X210233819Y-110853881D01*
X210259644Y-110829405D01*
X210310734Y-110787237D01*
X210368419Y-110745373D01*
X210427052Y-110707815D01*
X210480987Y-110678573D01*
X210486714Y-110675858D01*
X210589024Y-110633911D01*
X210697301Y-110600768D01*
X210807951Y-110577045D01*
X210917380Y-110563369D01*
X211021994Y-110560354D01*
X211118197Y-110568623D01*
G37*
G36*
X213906814Y-120566822D02*
G01*
X214044051Y-121345132D01*
X212986883Y-121531538D01*
X211929714Y-121717946D01*
X211879301Y-121432042D01*
X211828888Y-121146137D01*
X211929126Y-121122853D01*
X211955322Y-121116986D01*
X212006284Y-121106267D01*
X212065105Y-121094512D01*
X212126425Y-121082784D01*
X212184886Y-121072145D01*
X212214824Y-121066776D01*
X212281968Y-121054256D01*
X212352745Y-121040537D01*
X212420388Y-121026944D01*
X212478122Y-121014800D01*
X212615836Y-120984879D01*
X212542678Y-120569977D01*
X212469519Y-120155076D01*
X212752542Y-120105171D01*
X213035563Y-120055267D01*
X213108953Y-120471475D01*
X213182341Y-120887683D01*
X213286392Y-120869336D01*
X213390444Y-120850989D01*
X213305313Y-120368187D01*
X213220183Y-119885386D01*
X213494880Y-119836949D01*
X213769577Y-119788512D01*
X213906814Y-120566822D01*
G37*
G36*
X212938634Y-117926483D02*
G01*
X213001575Y-117935443D01*
X213073015Y-117953634D01*
X213144734Y-117979028D01*
X213212434Y-118009881D01*
X213271821Y-118044446D01*
X213318599Y-118080975D01*
X213328531Y-118090798D01*
X213360975Y-118127203D01*
X213395596Y-118171138D01*
X213428860Y-118217732D01*
X213457234Y-118262118D01*
X213477182Y-118299426D01*
X213481190Y-118308481D01*
X213490585Y-118331652D01*
X213499740Y-118357551D01*
X213508929Y-118387449D01*
X213518428Y-118422613D01*
X213528507Y-118464308D01*
X213539443Y-118513806D01*
X213551509Y-118572373D01*
X213564977Y-118641277D01*
X213580123Y-118721786D01*
X213597220Y-118815167D01*
X213616543Y-118922689D01*
X213638364Y-119045619D01*
X213734350Y-119588732D01*
X213059530Y-119707721D01*
X212677182Y-119775140D01*
X211620013Y-119961547D01*
X211569375Y-119674364D01*
X211518736Y-119387180D01*
X211893324Y-119321130D01*
X212267911Y-119255081D01*
X212238842Y-119090692D01*
X212236813Y-119079229D01*
X212227077Y-119025114D01*
X212219268Y-118984457D01*
X212212634Y-118954534D01*
X212206425Y-118932626D01*
X212199889Y-118916013D01*
X212192276Y-118901974D01*
X212182833Y-118887789D01*
X212150021Y-118850856D01*
X212107081Y-118822106D01*
X212051317Y-118800305D01*
X212034990Y-118796041D01*
X212000358Y-118788415D01*
X211953909Y-118779108D01*
X211898456Y-118768613D01*
X211836817Y-118757421D01*
X211771810Y-118746025D01*
X211706249Y-118734915D01*
X211642950Y-118724582D01*
X211584734Y-118715520D01*
X211534412Y-118708219D01*
X211494804Y-118703171D01*
X211396407Y-118692072D01*
X211389556Y-118653299D01*
X212749959Y-118653299D01*
X212751543Y-118680223D01*
X212755655Y-118718275D01*
X212762460Y-118768824D01*
X212772125Y-118833238D01*
X212784819Y-118912883D01*
X212824503Y-119156938D01*
X212958253Y-119133354D01*
X213092005Y-119109770D01*
X213048889Y-118865255D01*
X213045799Y-118847766D01*
X213033069Y-118776893D01*
X213022478Y-118720399D01*
X213013600Y-118676378D01*
X213006010Y-118642928D01*
X212999285Y-118618146D01*
X212992995Y-118600127D01*
X212986719Y-118586967D01*
X212982527Y-118579625D01*
X212966427Y-118554932D01*
X212950366Y-118540236D01*
X212930228Y-118534032D01*
X212901891Y-118534812D01*
X212861242Y-118541069D01*
X212836017Y-118545665D01*
X212808777Y-118551692D01*
X212791670Y-118557969D01*
X212780715Y-118566133D01*
X212771927Y-118577826D01*
X212770345Y-118580404D01*
X212758735Y-118606399D01*
X212750886Y-118635180D01*
X212750733Y-118636137D01*
X212749959Y-118653299D01*
X211389556Y-118653299D01*
X211340216Y-118374064D01*
X211284023Y-118056055D01*
X211347523Y-118070776D01*
X211381085Y-118078174D01*
X211426039Y-118087184D01*
X211479837Y-118097114D01*
X211544059Y-118108236D01*
X211620290Y-118120824D01*
X211710107Y-118135152D01*
X211815094Y-118151491D01*
X211827068Y-118153350D01*
X211924691Y-118169710D01*
X212009757Y-118186437D01*
X212086167Y-118204359D01*
X212157817Y-118224307D01*
X212293959Y-118265277D01*
X212306730Y-118238506D01*
X212322920Y-118209583D01*
X212361300Y-118158712D01*
X212410767Y-118107745D01*
X212468085Y-118059567D01*
X212530017Y-118017060D01*
X212593328Y-117983109D01*
X212612158Y-117975531D01*
X212658914Y-117961373D01*
X212715209Y-117948546D01*
X212776185Y-117937847D01*
X212836985Y-117930072D01*
X212892754Y-117926019D01*
X212938634Y-117926483D01*
G37*
G36*
X213228703Y-116721058D02*
G01*
X213373278Y-117540989D01*
X212316110Y-117727395D01*
X211258941Y-117913804D01*
X211110695Y-117073062D01*
X210962449Y-116232322D01*
X211237147Y-116183885D01*
X211511845Y-116135449D01*
X211608717Y-116684843D01*
X211705591Y-117234238D01*
X211834615Y-117211488D01*
X211963640Y-117188737D01*
X211876307Y-116693449D01*
X211788974Y-116198162D01*
X212063672Y-116149725D01*
X212338371Y-116101288D01*
X212425704Y-116596576D01*
X212513035Y-117091864D01*
X212617087Y-117073517D01*
X212721139Y-117055169D01*
X212627936Y-116526585D01*
X212534731Y-115998001D01*
X212809430Y-115949564D01*
X213084127Y-115901128D01*
X213228703Y-116721058D01*
G37*
G36*
X212990189Y-115368381D02*
G01*
X213041561Y-115659727D01*
X211984393Y-115846135D01*
X210927223Y-116032542D01*
X210875851Y-115741196D01*
X210824479Y-115449849D01*
X211881648Y-115263442D01*
X212938816Y-115077035D01*
X212990189Y-115368381D01*
G37*
G36*
X209854833Y-109326653D02*
G01*
X209875164Y-109336851D01*
X209901526Y-109351254D01*
X209913906Y-109358094D01*
X209941184Y-109370996D01*
X209957296Y-109373670D01*
X209964017Y-109366020D01*
X209963124Y-109347949D01*
X209962076Y-109340490D01*
X209964982Y-109330170D01*
X209979169Y-109329421D01*
X209992200Y-109332063D01*
X210018194Y-109339321D01*
X210047928Y-109349072D01*
X210071155Y-109356815D01*
X210091808Y-109361150D01*
X210107898Y-109359373D01*
X210125636Y-109351694D01*
X210145611Y-109342931D01*
X210158660Y-109343308D01*
X210172102Y-109353072D01*
X210175538Y-109356075D01*
X210188059Y-109363203D01*
X210194942Y-109357299D01*
X210201560Y-109353231D01*
X210217168Y-109354678D01*
X210243918Y-109362095D01*
X210283959Y-109375935D01*
X210296406Y-109380489D01*
X210336036Y-109396305D01*
X210360247Y-109410116D01*
X210369658Y-109424197D01*
X210364892Y-109440819D01*
X210346568Y-109462256D01*
X210315304Y-109490780D01*
X210302169Y-109502119D01*
X210277160Y-109522812D01*
X210258034Y-109537444D01*
X210248136Y-109543393D01*
X210241071Y-109540972D01*
X210230734Y-109528490D01*
X210228560Y-109524404D01*
X210222849Y-109517479D01*
X210215900Y-109521398D01*
X210203398Y-109537601D01*
X210184319Y-109557721D01*
X210165527Y-109566200D01*
X210150813Y-109560554D01*
X210144626Y-109556309D01*
X210126020Y-109556726D01*
X210102873Y-109568599D01*
X210078832Y-109590412D01*
X210059436Y-109610692D01*
X210043390Y-109620792D01*
X210028254Y-109619333D01*
X210009361Y-109607463D01*
X209986691Y-109590510D01*
X209954300Y-109640774D01*
X209921909Y-109691037D01*
X209903183Y-109662153D01*
X209898799Y-109655561D01*
X209887172Y-109639882D01*
X209880697Y-109633931D01*
X209878311Y-109635659D01*
X209867605Y-109647023D01*
X209852277Y-109665356D01*
X209844150Y-109674718D01*
X209828545Y-109688570D01*
X209818113Y-109692332D01*
X209812298Y-109683645D01*
X209805298Y-109662631D01*
X209799024Y-109634206D01*
X209797169Y-109622085D01*
X209793628Y-109591852D01*
X209790054Y-109553932D01*
X209786679Y-109511828D01*
X209783735Y-109469044D01*
X209781455Y-109429080D01*
X209780070Y-109395438D01*
X209779813Y-109371622D01*
X209780917Y-109361134D01*
X209781627Y-109360716D01*
X209792465Y-109362840D01*
X209811174Y-109370514D01*
X209838797Y-109383661D01*
X209839125Y-109353647D01*
X209839216Y-109349565D01*
X209841082Y-109330829D01*
X209844475Y-109322748D01*
X209844688Y-109322736D01*
X209854833Y-109326653D01*
G37*
G36*
X210913734Y-114447070D02*
G01*
X211003268Y-114954844D01*
X211923088Y-114792655D01*
X212842908Y-114630466D01*
X212868595Y-114776138D01*
X212894281Y-114921812D01*
X211853761Y-115105283D01*
X210813239Y-115288755D01*
X210698019Y-114635308D01*
X210582799Y-113981862D01*
X210703499Y-113960579D01*
X210824200Y-113939296D01*
X210913734Y-114447070D01*
G37*
G36*
X209950408Y-108910832D02*
G01*
X209973113Y-108922752D01*
X209976615Y-108924658D01*
X210001110Y-108935928D01*
X210020065Y-108938499D01*
X210040744Y-108933531D01*
X210054523Y-108929667D01*
X210078406Y-108929407D01*
X210107463Y-108938579D01*
X210124909Y-108945064D01*
X210141827Y-108947972D01*
X210149319Y-108942533D01*
X210150930Y-108939705D01*
X210166156Y-108932415D01*
X210192719Y-108932749D01*
X210227738Y-108940403D01*
X210268328Y-108955075D01*
X210297159Y-108968198D01*
X210323672Y-108981848D01*
X210340382Y-108992302D01*
X210346754Y-108998004D01*
X210349485Y-109004482D01*
X210346103Y-109013308D01*
X210335065Y-109026800D01*
X210314825Y-109047270D01*
X210283838Y-109077036D01*
X210268271Y-109091834D01*
X210241699Y-109116469D01*
X210223990Y-109131321D01*
X210212973Y-109137846D01*
X210206485Y-109137498D01*
X210202359Y-109131732D01*
X210200922Y-109128705D01*
X210196097Y-109122486D01*
X210188447Y-109123005D01*
X210174434Y-109131437D01*
X210150526Y-109148959D01*
X210130279Y-109164005D01*
X210111829Y-109176868D01*
X210101781Y-109181604D01*
X210097183Y-109179411D01*
X210095086Y-109171489D01*
X210092608Y-109168006D01*
X210082801Y-109169768D01*
X210063819Y-109180265D01*
X210033671Y-109200437D01*
X210027941Y-109204425D01*
X209994207Y-109227688D01*
X209971488Y-109242110D01*
X209957237Y-109248340D01*
X209948900Y-109247033D01*
X209943925Y-109238835D01*
X209939762Y-109224400D01*
X209931699Y-109194069D01*
X209882847Y-109247786D01*
X209862820Y-109269137D01*
X209842770Y-109287212D01*
X209828895Y-109293332D01*
X209818809Y-109288324D01*
X209810121Y-109273017D01*
X209805974Y-109262960D01*
X209800505Y-109247548D01*
X209800974Y-109237586D01*
X209806605Y-109213442D01*
X209816809Y-109179284D01*
X209830446Y-109138205D01*
X209846381Y-109093307D01*
X209863477Y-109047685D01*
X209880598Y-109004434D01*
X209896608Y-108966653D01*
X209910369Y-108937439D01*
X209920747Y-108919888D01*
X209928452Y-108910888D01*
X209937241Y-108906972D01*
X209950408Y-108910832D01*
G37*
G36*
X209944052Y-109816624D02*
G01*
X209975886Y-109828704D01*
X210017758Y-109844972D01*
X210062183Y-109854113D01*
X210103255Y-109852178D01*
X210113207Y-109850172D01*
X210130688Y-109843385D01*
X210134617Y-109833773D01*
X210134433Y-109832682D01*
X210134702Y-109823751D01*
X210141388Y-109821359D01*
X210157468Y-109825690D01*
X210185920Y-109836927D01*
X210196434Y-109840913D01*
X210229340Y-109851307D01*
X210269607Y-109862130D01*
X210310800Y-109871596D01*
X210334314Y-109876692D01*
X210364828Y-109884089D01*
X210385875Y-109890214D01*
X210393889Y-109894100D01*
X210393137Y-109895957D01*
X210383867Y-109907641D01*
X210366221Y-109926811D01*
X210342956Y-109950418D01*
X210329668Y-109963407D01*
X210308170Y-109983130D01*
X210293373Y-109993532D01*
X210281941Y-109996644D01*
X210270537Y-109994498D01*
X210251257Y-109991733D01*
X210232846Y-110000939D01*
X210227741Y-110004549D01*
X210214974Y-110008898D01*
X210197207Y-110007021D01*
X210169158Y-109998733D01*
X210162897Y-109996643D01*
X210084076Y-109966232D01*
X210019585Y-109933105D01*
X209970267Y-109897763D01*
X209936966Y-109860709D01*
X209926940Y-109844196D01*
X209919712Y-109824263D01*
X209925371Y-109815109D01*
X209944052Y-109816624D01*
G37*
G36*
X210114127Y-108539724D02*
G01*
X210134354Y-108545524D01*
X210160425Y-108554457D01*
X210186885Y-108564525D01*
X210208279Y-108573732D01*
X210219152Y-108580082D01*
X210219884Y-108581111D01*
X210218760Y-108594416D01*
X210207177Y-108614798D01*
X210187400Y-108638968D01*
X210161691Y-108663631D01*
X210144262Y-108677219D01*
X210121066Y-108688625D01*
X210093825Y-108692499D01*
X210066200Y-108696402D01*
X210044039Y-108708761D01*
X210033691Y-108718270D01*
X210022764Y-108724835D01*
X210022668Y-108724851D01*
X210019240Y-108724570D01*
X210018618Y-108720615D01*
X210021677Y-108710661D01*
X210029294Y-108692382D01*
X210042346Y-108663455D01*
X210061712Y-108621552D01*
X210074273Y-108595146D01*
X210088863Y-108566288D01*
X210099993Y-108546377D01*
X210105937Y-108538652D01*
X210114127Y-108539724D01*
G37*
G36*
X212190027Y-106473895D02*
G01*
X212285612Y-106503913D01*
X212379924Y-106550731D01*
X212472896Y-106614274D01*
X212564493Y-106694476D01*
X212654675Y-106791272D01*
X212743409Y-106904596D01*
X212830656Y-107034382D01*
X212916382Y-107180565D01*
X213000550Y-107343078D01*
X213083123Y-107521856D01*
X213164066Y-107716829D01*
X213243341Y-107927937D01*
X213320913Y-108155111D01*
X213396745Y-108398286D01*
X213470802Y-108657394D01*
X213543046Y-108932371D01*
X213549299Y-108958351D01*
X213560936Y-109010595D01*
X213574937Y-109077028D01*
X213591028Y-109156158D01*
X213608940Y-109246491D01*
X213628399Y-109346532D01*
X213649136Y-109454788D01*
X213670874Y-109569767D01*
X213693345Y-109689973D01*
X213716276Y-109813914D01*
X213739395Y-109940095D01*
X213762430Y-110067024D01*
X213785110Y-110193205D01*
X213807161Y-110317147D01*
X213828313Y-110437356D01*
X213848294Y-110552335D01*
X213866831Y-110660596D01*
X213883653Y-110760640D01*
X213898487Y-110850977D01*
X213911063Y-110930111D01*
X213921107Y-110996549D01*
X213928349Y-111048799D01*
X213930807Y-111067974D01*
X213961194Y-111317453D01*
X213989187Y-111570907D01*
X214014665Y-111826474D01*
X214037511Y-112082294D01*
X214057605Y-112336506D01*
X214074829Y-112587250D01*
X214089063Y-112832662D01*
X214100192Y-113070885D01*
X214108091Y-113300057D01*
X214112647Y-113518316D01*
X214113739Y-113723801D01*
X214111247Y-113914653D01*
X214107639Y-114033131D01*
X214098845Y-114208804D01*
X214086319Y-114368055D01*
X214070065Y-114510876D01*
X214050083Y-114637256D01*
X214026374Y-114747184D01*
X213998941Y-114840652D01*
X213967786Y-114917649D01*
X213932910Y-114978165D01*
X213900458Y-115014811D01*
X213857890Y-115044002D01*
X213811563Y-115060013D01*
X213764274Y-115062341D01*
X213718815Y-115050487D01*
X213677986Y-115023947D01*
X213656420Y-115002156D01*
X213614777Y-114947298D01*
X213573682Y-114876367D01*
X213533379Y-114789916D01*
X213494111Y-114688494D01*
X213456127Y-114572652D01*
X213419666Y-114442938D01*
X213418337Y-114437852D01*
X213406595Y-114393264D01*
X213395496Y-114351700D01*
X213386236Y-114317608D01*
X213380011Y-114295437D01*
X213379105Y-114291880D01*
X213374740Y-114271801D01*
X213367626Y-114236953D01*
X213358020Y-114188665D01*
X213346179Y-114128263D01*
X213332361Y-114057075D01*
X213316823Y-113976430D01*
X213299822Y-113887654D01*
X213281614Y-113792075D01*
X213262458Y-113691021D01*
X213242609Y-113585820D01*
X213241457Y-113579702D01*
X213211681Y-113422185D01*
X213184412Y-113279463D01*
X213159260Y-113149749D01*
X213135832Y-113031253D01*
X213113734Y-112922182D01*
X213092574Y-112820750D01*
X213071961Y-112725166D01*
X213051500Y-112633641D01*
X213030801Y-112544384D01*
X213009470Y-112455607D01*
X212987113Y-112365518D01*
X212963341Y-112272331D01*
X212937757Y-112174255D01*
X212909972Y-112069497D01*
X212874504Y-111938159D01*
X212839258Y-111811392D01*
X212806335Y-111697457D01*
X212775120Y-111594437D01*
X212744996Y-111500416D01*
X212715350Y-111413473D01*
X212685564Y-111331693D01*
X212655022Y-111253159D01*
X212623111Y-111175952D01*
X212605702Y-111135800D01*
X212537377Y-110991611D01*
X212462906Y-110853531D01*
X212383392Y-110723092D01*
X212299937Y-110601824D01*
X212213643Y-110491264D01*
X212125614Y-110392939D01*
X212036951Y-110308382D01*
X211948757Y-110239127D01*
X211885393Y-110197720D01*
X211769630Y-110135578D01*
X211651481Y-110088853D01*
X211532624Y-110058274D01*
X211494507Y-110053050D01*
X211439197Y-110048835D01*
X211371944Y-110046125D01*
X211295295Y-110044890D01*
X211211801Y-110045100D01*
X211124007Y-110046726D01*
X211034463Y-110049741D01*
X210945717Y-110054115D01*
X210860316Y-110059818D01*
X210780809Y-110066822D01*
X210734044Y-110070916D01*
X210679632Y-110073981D01*
X210633953Y-110074591D01*
X210600984Y-110072616D01*
X210575575Y-110070098D01*
X210543684Y-110068955D01*
X210520491Y-110070429D01*
X210501751Y-110071389D01*
X210495771Y-110064684D01*
X210502719Y-110049264D01*
X210522641Y-110024097D01*
X210526653Y-110019615D01*
X210552913Y-109997939D01*
X210584152Y-109986999D01*
X210595675Y-109984836D01*
X210613102Y-109983994D01*
X210623312Y-109991328D01*
X210632744Y-110009866D01*
X210635402Y-110015364D01*
X210647033Y-110032020D01*
X210657510Y-110037686D01*
X210662031Y-110036036D01*
X210679609Y-110026900D01*
X210705556Y-110011771D01*
X210736062Y-109992823D01*
X210751856Y-109982741D01*
X210780192Y-109964688D01*
X210801752Y-109950997D01*
X210812804Y-109944041D01*
X210815713Y-109943025D01*
X210822741Y-109949893D01*
X210828513Y-109972283D01*
X210831473Y-109985466D01*
X210839652Y-110000803D01*
X210852596Y-110002934D01*
X210872068Y-109991731D01*
X210899827Y-109967063D01*
X210940554Y-109929458D01*
X210974536Y-109902597D01*
X211002983Y-109885958D01*
X211028263Y-109877900D01*
X211032233Y-109877213D01*
X211051088Y-109875546D01*
X211059887Y-109881243D01*
X211064198Y-109897313D01*
X211064245Y-109897571D01*
X211068004Y-109914914D01*
X211070890Y-109921881D01*
X211073012Y-109920759D01*
X211086800Y-109912643D01*
X211111173Y-109897985D01*
X211143574Y-109878329D01*
X211181442Y-109855214D01*
X211200166Y-109843797D01*
X211236396Y-109821972D01*
X211266325Y-109804298D01*
X211287259Y-109792354D01*
X211296505Y-109787718D01*
X211300204Y-109791008D01*
X211300839Y-109804935D01*
X211300379Y-109808933D01*
X211302216Y-109818740D01*
X211312899Y-109815763D01*
X211313729Y-109815324D01*
X211327337Y-109808009D01*
X211352908Y-109794176D01*
X211387928Y-109775189D01*
X211429874Y-109752415D01*
X211476230Y-109727219D01*
X211625038Y-109646294D01*
X211581207Y-109641100D01*
X211566730Y-109639446D01*
X211534188Y-109635880D01*
X211491386Y-109631296D01*
X211442204Y-109626106D01*
X211390519Y-109620726D01*
X211243662Y-109605548D01*
X211234335Y-109625539D01*
X211232100Y-109630152D01*
X211227587Y-109636163D01*
X211220207Y-109638898D01*
X211207295Y-109638044D01*
X211186181Y-109633288D01*
X211154201Y-109624316D01*
X211108689Y-109610818D01*
X210992369Y-109576108D01*
X210991788Y-109601526D01*
X210991236Y-109611536D01*
X210987091Y-109622653D01*
X210975082Y-109628990D01*
X210950767Y-109634075D01*
X210942943Y-109635276D01*
X210915104Y-109636142D01*
X210883292Y-109631059D01*
X210841913Y-109619264D01*
X210834709Y-109617005D01*
X210797547Y-109606722D01*
X210762956Y-109599101D01*
X210737614Y-109595651D01*
X210701727Y-109593983D01*
X210707599Y-109627285D01*
X210709311Y-109637806D01*
X210709684Y-109651140D01*
X210704437Y-109656963D01*
X210691146Y-109655368D01*
X210667381Y-109646453D01*
X210630715Y-109630312D01*
X210574975Y-109605284D01*
X210578863Y-109627331D01*
X210579539Y-109631346D01*
X210579549Y-109643596D01*
X210571321Y-109648430D01*
X210550531Y-109649188D01*
X210520081Y-109645894D01*
X210499920Y-109634263D01*
X210485646Y-109611318D01*
X210482096Y-109599230D01*
X210483873Y-109584912D01*
X210493029Y-109565544D01*
X210510996Y-109536923D01*
X210531723Y-109507447D01*
X210555092Y-109477519D01*
X210574876Y-109455330D01*
X210577974Y-109452285D01*
X210596386Y-109436340D01*
X210610555Y-109430545D01*
X210626201Y-109432336D01*
X210640724Y-109439139D01*
X210651953Y-109456985D01*
X210655502Y-109471862D01*
X210661823Y-109482247D01*
X210672345Y-109483752D01*
X210689167Y-109475778D01*
X210714388Y-109457724D01*
X210750107Y-109428996D01*
X210750299Y-109428838D01*
X210781174Y-109403716D01*
X210807315Y-109382950D01*
X210825967Y-109368692D01*
X210834377Y-109363095D01*
X210839785Y-109368086D01*
X210850242Y-109384742D01*
X210862955Y-109409235D01*
X210873904Y-109431615D01*
X210883145Y-109449636D01*
X210887250Y-109456449D01*
X210888767Y-109455399D01*
X210900684Y-109446302D01*
X210922449Y-109429381D01*
X210951697Y-109406480D01*
X210986065Y-109379440D01*
X211010837Y-109360023D01*
X211044329Y-109334749D01*
X211067949Y-109319261D01*
X211083691Y-109312936D01*
X211093549Y-109315148D01*
X211099521Y-109325276D01*
X211103600Y-109342693D01*
X211108102Y-109358320D01*
X211114577Y-109367691D01*
X211118895Y-109366541D01*
X211135813Y-109358273D01*
X211162832Y-109343372D01*
X211197372Y-109323277D01*
X211236850Y-109299431D01*
X211262543Y-109283663D01*
X211298365Y-109261742D01*
X211327142Y-109244210D01*
X211346421Y-109232560D01*
X211353754Y-109228281D01*
X211354837Y-109232791D01*
X211357066Y-109250036D01*
X211359687Y-109275811D01*
X211362110Y-109299027D01*
X211365321Y-109314177D01*
X211370332Y-109318333D01*
X211378713Y-109314704D01*
X211378910Y-109314584D01*
X211391049Y-109307286D01*
X211415075Y-109292902D01*
X211448454Y-109272950D01*
X211488649Y-109248946D01*
X211533128Y-109222402D01*
X211534872Y-109221361D01*
X211579248Y-109194878D01*
X211619260Y-109170982D01*
X211652365Y-109151193D01*
X211676029Y-109137025D01*
X211687710Y-109129999D01*
X211696886Y-109125799D01*
X211701318Y-109130824D01*
X211701854Y-109149368D01*
X211701776Y-109152959D01*
X211702661Y-109169752D01*
X211709328Y-109173592D01*
X211726334Y-109167943D01*
X211728954Y-109166800D01*
X211747721Y-109156394D01*
X211776030Y-109138723D01*
X211810516Y-109115943D01*
X211847809Y-109090207D01*
X211889797Y-109061925D01*
X211939248Y-109030963D01*
X211987633Y-109002713D01*
X212028745Y-108980925D01*
X212057783Y-108966479D01*
X212108740Y-108939575D01*
X212147829Y-108916607D01*
X212173775Y-108898353D01*
X212185297Y-108885592D01*
X212183260Y-108881948D01*
X212167925Y-108879196D01*
X212140160Y-108879803D01*
X212085163Y-108881604D01*
X211992738Y-108877061D01*
X211893121Y-108864153D01*
X211790563Y-108843323D01*
X211767061Y-108837745D01*
X211725261Y-108828173D01*
X211690636Y-108820696D01*
X211666262Y-108815967D01*
X211655219Y-108814640D01*
X211652654Y-108816849D01*
X211650543Y-108831749D01*
X211653300Y-108857387D01*
X211655426Y-108871716D01*
X211656781Y-108893038D01*
X211654797Y-108903647D01*
X211648769Y-108903457D01*
X211628828Y-108898954D01*
X211597744Y-108890344D01*
X211558263Y-108878397D01*
X211513130Y-108863885D01*
X211477689Y-108852233D01*
X211437478Y-108839384D01*
X211409285Y-108831217D01*
X211390741Y-108827279D01*
X211379478Y-108827114D01*
X211373123Y-108830267D01*
X211369304Y-108836284D01*
X211360590Y-108853314D01*
X211346862Y-108870605D01*
X211328962Y-108880161D01*
X211303907Y-108882639D01*
X211268708Y-108878694D01*
X211220382Y-108868984D01*
X211202181Y-108865027D01*
X211171277Y-108859106D01*
X211152083Y-108857293D01*
X211141377Y-108859455D01*
X211135943Y-108865458D01*
X211131677Y-108872243D01*
X211109668Y-108888254D01*
X211077246Y-108896087D01*
X211037773Y-108895661D01*
X210994615Y-108886901D01*
X210951140Y-108869727D01*
X210925801Y-108857567D01*
X210904928Y-108848728D01*
X210894404Y-108845796D01*
X210893027Y-108846912D01*
X210891291Y-108859175D01*
X210893454Y-108880295D01*
X210894579Y-108887786D01*
X210895222Y-108906701D01*
X210891828Y-108914914D01*
X210888306Y-108914580D01*
X210870682Y-108910906D01*
X210841334Y-108903856D01*
X210803277Y-108894166D01*
X210759527Y-108882574D01*
X210634723Y-108848912D01*
X210640395Y-108895814D01*
X210640580Y-108897345D01*
X210643275Y-108923301D01*
X210642215Y-108936618D01*
X210635853Y-108941251D01*
X210622639Y-108941151D01*
X210606128Y-108939010D01*
X210565655Y-108927016D01*
X210527540Y-108907856D01*
X210499053Y-108884842D01*
X210497239Y-108882703D01*
X210485864Y-108865557D01*
X210474492Y-108843570D01*
X210464683Y-108820706D01*
X210458005Y-108800932D01*
X210456020Y-108788214D01*
X210460290Y-108786518D01*
X210468668Y-108782997D01*
X210486631Y-108769849D01*
X210511482Y-108749152D01*
X210540563Y-108723010D01*
X210568918Y-108697206D01*
X210594676Y-108674830D01*
X210613798Y-108659390D01*
X210623480Y-108653244D01*
X210623525Y-108653237D01*
X210636923Y-108656360D01*
X210655508Y-108666180D01*
X210662188Y-108670295D01*
X210673958Y-108674696D01*
X210686028Y-108672779D01*
X210701204Y-108663031D01*
X210722287Y-108643936D01*
X210752084Y-108613980D01*
X210764261Y-108602002D01*
X210796937Y-108575470D01*
X210834136Y-108554519D01*
X210881997Y-108535432D01*
X210885096Y-108534353D01*
X210901339Y-108530341D01*
X210908918Y-108536111D01*
X210913367Y-108555138D01*
X210913551Y-108556153D01*
X210920061Y-108575965D01*
X210928862Y-108582166D01*
X210936914Y-108578155D01*
X210956309Y-108565706D01*
X210983282Y-108546974D01*
X211014627Y-108524127D01*
X211038657Y-108506637D01*
X211074243Y-108483153D01*
X211102227Y-108468737D01*
X211125591Y-108461713D01*
X211137220Y-108459898D01*
X211158338Y-108459909D01*
X211175727Y-108468111D01*
X211196491Y-108487040D01*
X211197254Y-108487800D01*
X211202781Y-108491934D01*
X211209869Y-108492986D01*
X211220623Y-108489932D01*
X211237142Y-108481753D01*
X211261531Y-108467430D01*
X211295892Y-108445939D01*
X211342330Y-108416264D01*
X211383719Y-108389893D01*
X211421295Y-108366301D01*
X211451811Y-108347510D01*
X211472893Y-108334979D01*
X211482163Y-108330176D01*
X211484167Y-108330671D01*
X211492444Y-108341047D01*
X211501318Y-108360821D01*
X211512709Y-108392832D01*
X211560375Y-108349498D01*
X211594458Y-108320271D01*
X211644516Y-108285383D01*
X211697414Y-108259541D01*
X211759631Y-108239159D01*
X211797266Y-108227579D01*
X211830979Y-108213927D01*
X211851294Y-108201235D01*
X211852308Y-108200274D01*
X211864256Y-108187389D01*
X211867338Y-108180822D01*
X211866590Y-108180623D01*
X211853753Y-108178923D01*
X211826750Y-108175928D01*
X211787709Y-108171855D01*
X211738757Y-108166925D01*
X211682023Y-108161356D01*
X211619636Y-108155366D01*
X211604829Y-108153959D01*
X211542974Y-108148034D01*
X211486855Y-108142591D01*
X211438693Y-108137853D01*
X211400702Y-108134037D01*
X211375105Y-108131363D01*
X211364121Y-108130053D01*
X211362648Y-108129902D01*
X211356832Y-108136738D01*
X211358316Y-108157979D01*
X211359021Y-108162597D01*
X211359230Y-108181217D01*
X211354714Y-108189573D01*
X211348043Y-108189745D01*
X211326900Y-108188989D01*
X211295694Y-108187234D01*
X211258417Y-108184686D01*
X211231175Y-108182815D01*
X211199840Y-108181086D01*
X211178235Y-108180424D01*
X211169919Y-108180979D01*
X211168187Y-108186990D01*
X211164109Y-108203080D01*
X211163960Y-108203689D01*
X211161707Y-108210470D01*
X211157253Y-108214851D01*
X211148190Y-108216745D01*
X211132112Y-108216059D01*
X211106609Y-108212703D01*
X211069273Y-108206590D01*
X211017698Y-108197630D01*
X210875996Y-108172828D01*
X210879272Y-108206655D01*
X210882549Y-108240481D01*
X210833534Y-108245514D01*
X210829968Y-108245861D01*
X210803147Y-108246717D01*
X210776274Y-108243426D01*
X210744248Y-108235014D01*
X210701963Y-108220515D01*
X210676655Y-108211543D01*
X210644961Y-108201049D01*
X210621505Y-108194186D01*
X210610075Y-108192127D01*
X210607411Y-108194356D01*
X210605278Y-108209548D01*
X210608253Y-108236365D01*
X210610475Y-108248330D01*
X210612700Y-108263317D01*
X210610828Y-108272330D01*
X210602338Y-108276043D01*
X210584709Y-108275131D01*
X210555417Y-108270266D01*
X210511946Y-108262127D01*
X210438737Y-108248520D01*
X210443103Y-108273283D01*
X210443127Y-108273415D01*
X210443892Y-108291221D01*
X210439678Y-108299420D01*
X210427581Y-108299188D01*
X210403892Y-108295620D01*
X210374260Y-108289539D01*
X210343204Y-108282044D01*
X210315237Y-108274239D01*
X210294875Y-108267223D01*
X210286637Y-108262098D01*
X210286573Y-108261540D01*
X210291368Y-108247746D01*
X210305050Y-108225154D01*
X210325077Y-108197019D01*
X210348902Y-108166599D01*
X210373987Y-108137151D01*
X210397784Y-108111932D01*
X210417752Y-108094198D01*
X210447910Y-108074044D01*
X210479183Y-108061367D01*
X210505768Y-108062140D01*
X210530165Y-108075954D01*
X210554081Y-108095965D01*
X210649128Y-108031719D01*
X210655028Y-108027750D01*
X210691276Y-108004275D01*
X210720444Y-107986972D01*
X210740324Y-107977081D01*
X210748704Y-107975841D01*
X210753525Y-107982723D01*
X210766341Y-107996787D01*
X210767174Y-107997573D01*
X210774149Y-108002224D01*
X210783105Y-108002427D01*
X210797125Y-107997048D01*
X210819293Y-107984950D01*
X210852694Y-107964998D01*
X210896439Y-107938745D01*
X210971901Y-107894920D01*
X211034188Y-107860926D01*
X211083164Y-107836836D01*
X211118687Y-107822725D01*
X211161400Y-107809212D01*
X211134112Y-107803010D01*
X211116264Y-107800752D01*
X211085226Y-107798936D01*
X211045994Y-107797870D01*
X211003030Y-107797732D01*
X210975967Y-107797729D01*
X210919662Y-107795382D01*
X210870292Y-107789133D01*
X210820989Y-107778247D01*
X210803237Y-107773732D01*
X210767324Y-107765263D01*
X210737498Y-107759081D01*
X210718864Y-107756284D01*
X210706454Y-107756081D01*
X210698023Y-107761047D01*
X210698816Y-107776442D01*
X210700020Y-107788135D01*
X210695945Y-107795984D01*
X210682611Y-107801176D01*
X210656294Y-107806327D01*
X210609944Y-107814500D01*
X210623153Y-107786749D01*
X210638156Y-107761179D01*
X210664195Y-107724024D01*
X210700621Y-107676083D01*
X210746818Y-107618100D01*
X210802163Y-107550818D01*
X210866038Y-107474983D01*
X210937823Y-107391337D01*
X211016897Y-107300626D01*
X211102642Y-107203594D01*
X211194435Y-107100983D01*
X211256455Y-107032256D01*
X211331729Y-106949606D01*
X211398121Y-106877864D01*
X211456829Y-106815906D01*
X211509048Y-106762601D01*
X211555977Y-106716823D01*
X211598812Y-106677447D01*
X211638751Y-106643346D01*
X211676992Y-106613391D01*
X211714728Y-106586457D01*
X211753163Y-106561415D01*
X211793489Y-106537142D01*
X211816701Y-106524720D01*
X211886001Y-106497044D01*
X211963097Y-106477307D01*
X212042877Y-106466327D01*
X212120226Y-106464918D01*
X212190027Y-106473895D01*
G37*
D12*
%TO.C,BT1*%
X205089253Y-102416385D02*
X205619384Y-103872909D01*
X207722808Y-109652018D02*
X207192677Y-108195494D01*
X200543146Y-99282233D02*
X202082236Y-103510850D01*
X200543146Y-99282233D02*
X180903570Y-106430454D01*
X202082236Y-103510850D02*
X205089253Y-102416385D01*
X204715792Y-110746483D02*
X207722808Y-109652018D01*
X206254882Y-114975100D02*
X204715792Y-110746483D01*
X180903570Y-106430454D02*
X179827760Y-108737537D01*
X179827760Y-108737537D02*
X180751214Y-111274707D01*
X180751214Y-111274707D02*
X177744198Y-112369172D01*
X183384770Y-118510340D02*
X180377753Y-119604805D01*
X184923860Y-122738957D02*
X206254882Y-114975100D01*
X184923860Y-122738957D02*
X183384770Y-118510340D01*
X179405071Y-109476681D02*
X177525685Y-110160721D01*
X178807398Y-110758394D02*
X178123358Y-108879009D01*
X177744198Y-112369172D02*
X178274329Y-113825696D01*
X180377753Y-119604805D02*
X179847622Y-118148281D01*
%TD*%
M02*
