%TF.GenerationSoftware,KiCad,Pcbnew,9.0.1*%
%TF.CreationDate,2025-05-09T15:01:23+02:00*%
%TF.ProjectId,Freilab_Blinkies,46726569-6c61-4625-9f42-6c696e6b6965,rev?*%
%TF.SameCoordinates,Original*%
%TF.FileFunction,Copper,L1,Top*%
%TF.FilePolarity,Positive*%
%FSLAX46Y46*%
G04 Gerber Fmt 4.6, Leading zero omitted, Abs format (unit mm)*
G04 Created by KiCad (PCBNEW 9.0.1) date 2025-05-09 15:01:23*
%MOMM*%
%LPD*%
G01*
G04 APERTURE LIST*
G04 Aperture macros list*
%AMRoundRect*
0 Rectangle with rounded corners*
0 $1 Rounding radius*
0 $2 $3 $4 $5 $6 $7 $8 $9 X,Y pos of 4 corners*
0 Add a 4 corners polygon primitive as box body*
4,1,4,$2,$3,$4,$5,$6,$7,$8,$9,$2,$3,0*
0 Add four circle primitives for the rounded corners*
1,1,$1+$1,$2,$3*
1,1,$1+$1,$4,$5*
1,1,$1+$1,$6,$7*
1,1,$1+$1,$8,$9*
0 Add four rect primitives between the rounded corners*
20,1,$1+$1,$2,$3,$4,$5,0*
20,1,$1+$1,$4,$5,$6,$7,0*
20,1,$1+$1,$6,$7,$8,$9,0*
20,1,$1+$1,$8,$9,$2,$3,0*%
%AMRotRect*
0 Rectangle, with rotation*
0 The origin of the aperture is its center*
0 $1 length*
0 $2 width*
0 $3 Rotation angle, in degrees counterclockwise*
0 Add horizontal line*
21,1,$1,$2,0,0,$3*%
G04 Aperture macros list end*
%TA.AperFunction,ComponentPad*%
%ADD10C,3.000000*%
%TD*%
%TA.AperFunction,ComponentPad*%
%ADD11C,2.250000*%
%TD*%
%TA.AperFunction,SMDPad,CuDef*%
%ADD12RotRect,1.500000X3.000000X70.000000*%
%TD*%
%TA.AperFunction,SMDPad,CuDef*%
%ADD13RoundRect,0.750000X0.704766X-0.256525X0.704773X-0.256506X-0.704766X0.256525X-0.704773X0.256506X0*%
%TD*%
%TA.AperFunction,SMDPad,CuDef*%
%ADD14RotRect,1.500000X3.000000X340.000000*%
%TD*%
%TA.AperFunction,SMDPad,CuDef*%
%ADD15RoundRect,0.750000X-0.256525X-0.704766X-0.256506X-0.704773X0.256525X0.704766X0.256506X0.704773X0*%
%TD*%
%TA.AperFunction,SMDPad,CuDef*%
%ADD16RotRect,1.500000X3.000000X20.000000*%
%TD*%
%TA.AperFunction,SMDPad,CuDef*%
%ADD17RoundRect,0.750000X0.256506X-0.704773X0.256525X-0.704766X-0.256506X0.704773X-0.256525X0.704766X0*%
%TD*%
%TA.AperFunction,ViaPad*%
%ADD18C,0.600000*%
%TD*%
%TA.AperFunction,Conductor*%
%ADD19C,0.800000*%
%TD*%
G04 APERTURE END LIST*
D10*
%TO.P,SW1,5*%
%TO.N,N/C*%
X207579945Y-128627849D03*
%TO.P,SW1,4*%
X195072665Y-133180127D03*
%TO.P,SW1,3,C*%
%TO.N,unconnected-(SW1-C-Pad3)*%
X193503489Y-123820224D03*
D11*
%TO.P,SW1,2,B*%
%TO.N,Net-(BT1-+)*%
X197974186Y-122147262D03*
D10*
%TO.P,SW1,1,A*%
%TO.N,Net-(D1-A)*%
X202500000Y-120500000D03*
%TD*%
D12*
%TO.P,D3,1,K*%
%TO.N,Net-(BT1--)*%
X210144950Y-115909539D03*
D13*
%TO.P,D3,2,A*%
%TO.N,Net-(D1-A)*%
X211000000Y-113560307D03*
%TD*%
D14*
%TO.P,D2,1,K*%
%TO.N,Net-(BT1--)*%
X185150768Y-120986970D03*
D15*
%TO.P,D2,2,A*%
%TO.N,Net-(D1-A)*%
X187500000Y-121842020D03*
%TD*%
D16*
%TO.P,D1,1,K*%
%TO.N,Net-(BT1--)*%
X189590461Y-102513030D03*
D17*
%TO.P,D1,2,A*%
%TO.N,Net-(D1-A)*%
X191939693Y-101657980D03*
%TD*%
D18*
%TO.N,Net-(BT1--)*%
X213000000Y-109000000D03*
%TD*%
D19*
%TO.N,Net-(BT1--)*%
X214000000Y-110000000D02*
X214000000Y-114500000D01*
X213000000Y-109000000D02*
X214000000Y-110000000D01*
X212000000Y-116500000D02*
X210735411Y-116500000D01*
X214000000Y-114500000D02*
X212000000Y-116500000D01*
X210735411Y-116500000D02*
X210144950Y-115909539D01*
X189590461Y-100916763D02*
X189590461Y-102513030D01*
X190907246Y-99599978D02*
X189590461Y-100916763D01*
X206500000Y-106000000D02*
X206000000Y-105500000D01*
X206000000Y-105500000D02*
X198500000Y-105500000D01*
X198500000Y-105500000D02*
X192599978Y-99599978D01*
X192599978Y-99599978D02*
X190907246Y-99599978D01*
%TO.N,Net-(BT1-+)*%
X183000000Y-120000000D02*
X179000000Y-116000000D01*
X183000000Y-122159021D02*
X183000000Y-120000000D01*
X184741001Y-123900022D02*
X183000000Y-122159021D01*
X190452428Y-123900022D02*
X184741001Y-123900022D01*
X192633226Y-121719224D02*
X190452428Y-123900022D01*
X197546148Y-121719224D02*
X192633226Y-121719224D01*
X197974186Y-122147262D02*
X197546148Y-121719224D01*
%TO.N,Net-(D1-A)*%
X202500000Y-120500000D02*
X202500000Y-114902327D01*
X202500000Y-114902327D02*
X203842020Y-113560307D01*
%TO.N,Net-(BT1--)*%
X185150768Y-120986970D02*
X189590461Y-116547277D01*
X189590461Y-116547277D02*
X189590461Y-102513030D01*
%TO.N,Net-(D1-A)*%
X191939693Y-101657980D02*
X191939693Y-117402327D01*
X191939693Y-117402327D02*
X187500000Y-121842020D01*
X211000000Y-113560307D02*
X203842020Y-113560307D01*
X203842020Y-113560307D02*
X191939693Y-101657980D01*
%TD*%
M02*
