0
SECTION
2
HEADER
9
$INSUNITS
70
4
9
$ACADVER
1
AC1014
9
$HANDSEED
5
FFFF
0
ENDSEC
0
SECTION
2
TABLES
0
TABLE
2
VPORT
5
8
100
AcDbSymbolTable
0
ENDTAB
0
TABLE
2
LTYPE
5
5
100
AcDbSymbolTable
0
LTYPE
5
14
100
AcDbSymbolTableRecord
100
AcDbLinetypeTableRecord
2
BYBLOCK
70
0
0
LTYPE
5
15
100
AcDbSymbolTableRecord
100
AcDbLinetypeTableRecord
2
BYLAYER
70
0
0
LTYPE
5
16
100
AcDbSymbolTableRecord
100
AcDbLinetypeTableRecord
2
DASHED
70
0
3
Dashed __ __ __ __ __ __ __ __ __ __ __ __ __ _
72
65
73
2
40
0.75
49
0.5
74
0
49
-0.25
74
0
0
ENDTAB
0
TABLE
2
LAYER
5
2
100
AcDbSymbolTable
70
2
0
LAYER
5
50
100
AcDbSymbolTableRecord
100
AcDbLayerTableRecord
2
0
70
0
62
7
6
CONTINUOUS
0
ENDTAB
0
TABLE
2
STYLE
5
3
100
AcDbSymbolTable
70
1
0
STYLE
5
11
100
AcDbSymbolTableRecord
100
AcDbTextStyleTableRecord
2
STANDARD
70
0
0
ENDTAB
0
TABLE
2
VIEW
5
6
100
AcDbSymbolTable
70
0
0
ENDTAB
0
TABLE
2
UCS
5
7
100
AcDbSymbolTable
70
0
0
ENDTAB
0
TABLE
2
APPID
5
9
100
AcDbSymbolTable
70
2
0
APPID
5
12
100
AcDbSymbolTableRecord
100
AcDbRegAppTableRecord
2
ACAD
70
0
0
ENDTAB
0
TABLE
2
DIMSTYLE
5
A
100
AcDbSymbolTable
70
1
0
ENDTAB
0
TABLE
2
BLOCK_RECORD
5
1
100
AcDbSymbolTable
70
1
0
BLOCK_RECORD
5
1F
100
AcDbSymbolTableRecord
100
AcDbBlockTableRecord
2
*MODEL_SPACE
0
BLOCK_RECORD
5
1B
100
AcDbSymbolTableRecord
100
AcDbBlockTableRecord
2
*PAPER_SPACE
0
ENDTAB
0
ENDSEC
0
SECTION
2
BLOCKS
0
BLOCK
5
20
100
AcDbEntity
100
AcDbBlockBegin
2
*MODEL_SPACE
0
ENDBLK
5
21
100
AcDbEntity
100
AcDbBlockEnd
0
BLOCK
5
1C
100
AcDbEntity
100
AcDbBlockBegin
2
*PAPER_SPACE
0
ENDBLK
5
1D
100
AcDbEntity
100
AcDbBlockEnd
0
ENDSEC
0
SECTION
2
ENTITIES
0
POINT
5
100
100
AcDbEntity
8
0
100
AcDbPoint
10
0
20
0
30
0
0
POINT
5
101
100
AcDbEntity
8
0
100
AcDbPoint
10
-0.8500000000000002
20
15.381929336277356
30
0
0
LWPOLYLINE
5
102
100
AcDbEntity
8
0
100
AcDbPolyline
90
36
70
1
43
0.0
10
0.84999999999856313
20
19.981929336277879
10
0.85000000000492371
20
15.981929336277362
42
-0.4142135623746635
10
0.24999999999920999
20
15.381929336276341
10
-0.24999999999993319
20
15.381929336276176
42
-0.41421356237312668
10
-0.8500000000000002
20
15.981929336276174
10
-0.85000000000000009
20
19.981929336277354
42
0.24529228208195822
10
-16.87985842184289
20
10.72708626135447
10
-13.415756806701747
20
8.7270862613592843
42
-0.41421356237536594
10
-13.196141564433097
20
7.9074710190834345
10
-13.446141564435447
20
7.4744583171939123
42
-0.41421356237633694
10
-14.265756806707977
20
7.254843074926014
10
-17.729858421841772
20
9.254843074922789
42
0.24529228208196824
10
-17.729858421841453
20
-9.2548430749234072
10
-14.265756806706424
20
-7.2548430749196777
42
-0.41421356237587381
10
-13.446141564432592
20
-7.4744583171932302
10
-13.196141564432724
20
-7.9074710190843138
42
-0.41421356237520884
10
-13.415756806705726
20
-8.7270862613585578
10
-16.879858421842556
20
-10.727086261354975
42
0.24529228208196946
10
-0.84999999999856568
20
-19.981929336277879
10
-0.85000000000192721
20
-15.98192933627878
42
-0.41421356237564078
10
-0.24999999999921191
20
-15.381929336276993
10
0.24999999999993733
20
-15.381929336277425
42
-0.41421356237542373
10
0.84999999999990417
20
-15.98192933628204
10
0.84999999999903464
20
-19.981929336277844
42
0.24529228208197118
10
16.879858421842883
20
-10.727086261354478
10
13.415756806703623
20
-8.727086261358064
42
-0.414213562374736
10
13.196141564433093
20
-7.9074710190840918
10
13.446141564436543
20
-7.4744583171944123
42
-0.41421356237589041
10
14.265756806706891
20
-7.254843074928762
10
17.729858421841708
20
-9.2548430749228974
42
0.24529228208196976
10
17.72985842184146
20
9.2548430749233983
10
14.265756806705935
20
7.2548430749192523
42
-0.41421356237400292
10
13.446141564433345
20
7.4744583171925711
10
13.196141564432169
20
7.9074710190841202
42
-0.41421356237300833
10
13.415756806703513
20
8.7270862613550886
10
16.879858421842599
20
10.727086261354907
42
0.24529228208197057
0
LINE
5
103
100
AcDbEntity
8
0
100
AcDbLine
10
0
20
1.75
30
0
11
0
21
22.5
31
0
0
ENDSEC
0
SECTION
2
OBJECTS
0
DICTIONARY
5
C
100
AcDbDictionary
3
ACAD_GROUP
350
D
3
ACAD_MLINESTYLE
350
17
0
DICTIONARY
5
D
100
AcDbDictionary
0
DICTIONARY
5
1A
330
C
100
AcDbDictionary
0
DICTIONARY
5
17
100
AcDbDictionary
0
ENDSEC
0
EOF
