%TF.GenerationSoftware,KiCad,Pcbnew,9.0.1*%
%TF.CreationDate,2025-05-11T14:39:04+02:00*%
%TF.ProjectId,Freilab_Blinkies_Tab,46726569-6c61-4625-9f42-6c696e6b6965,rev?*%
%TF.SameCoordinates,Original*%
%TF.FileFunction,Legend,Top*%
%TF.FilePolarity,Positive*%
%FSLAX46Y46*%
G04 Gerber Fmt 4.6, Leading zero omitted, Abs format (unit mm)*
G04 Created by KiCad (PCBNEW 9.0.1) date 2025-05-11 14:39:04*
%MOMM*%
%LPD*%
G01*
G04 APERTURE LIST*
%ADD10C,0.000000*%
G04 APERTURE END LIST*
D10*
%TO.C,G\u002A\u002A\u002A*%
G36*
X139452664Y-74389125D02*
G01*
X139455943Y-74393036D01*
X139472632Y-74404916D01*
X139479563Y-74406040D01*
X139490268Y-74415781D01*
X139499140Y-74443198D01*
X139505611Y-74485576D01*
X139509110Y-74540205D01*
X139509307Y-74547645D01*
X139510202Y-74587118D01*
X139485137Y-74570695D01*
X139466675Y-74560209D01*
X139456765Y-74562136D01*
X139450286Y-74571758D01*
X139442140Y-74582164D01*
X139432770Y-74578510D01*
X139420350Y-74564358D01*
X139404604Y-74548151D01*
X139392413Y-74547197D01*
X139383760Y-74553116D01*
X139368964Y-74561006D01*
X139352181Y-74556321D01*
X139340912Y-74549455D01*
X139317534Y-74538883D01*
X139299268Y-74537998D01*
X139278268Y-74538343D01*
X139264967Y-74533639D01*
X139245671Y-74529005D01*
X139239683Y-74533496D01*
X139229136Y-74533583D01*
X139208728Y-74525149D01*
X139184957Y-74511910D01*
X139164318Y-74497578D01*
X139153309Y-74485869D01*
X139152822Y-74483834D01*
X139161254Y-74474243D01*
X139181661Y-74461002D01*
X139206950Y-74447793D01*
X139230030Y-74438298D01*
X139243810Y-74436196D01*
X139244205Y-74436397D01*
X139257094Y-74434967D01*
X139259878Y-74431739D01*
X139273910Y-74423870D01*
X139293776Y-74420998D01*
X139324383Y-74415564D01*
X139346418Y-74406706D01*
X139366069Y-74398176D01*
X139377734Y-74402040D01*
X139382506Y-74407723D01*
X139392352Y-74416146D01*
X139405515Y-74412241D01*
X139420539Y-74401351D01*
X139440897Y-74388147D01*
X139452664Y-74389125D01*
G37*
G36*
X139362116Y-74146959D02*
G01*
X139377115Y-74163637D01*
X139397859Y-74194409D01*
X139417392Y-74226234D01*
X139443278Y-74271454D01*
X139458176Y-74303560D01*
X139463368Y-74325767D01*
X139461776Y-74337550D01*
X139453485Y-74342507D01*
X139435130Y-74333499D01*
X139423071Y-74324784D01*
X139397372Y-74306198D01*
X139383641Y-74300346D01*
X139378229Y-74306800D01*
X139377432Y-74319436D01*
X139377432Y-74340070D01*
X139336229Y-74319050D01*
X139309486Y-74307597D01*
X139289902Y-74303136D01*
X139285452Y-74303947D01*
X139271142Y-74302994D01*
X139249549Y-74292600D01*
X139248282Y-74291783D01*
X139227348Y-74280938D01*
X139217422Y-74284100D01*
X139216529Y-74286175D01*
X139206098Y-74289039D01*
X139181705Y-74277082D01*
X139167237Y-74267595D01*
X139142134Y-74249563D01*
X139125748Y-74236333D01*
X139122104Y-74232071D01*
X139130548Y-74221653D01*
X139151519Y-74207425D01*
X139178474Y-74192895D01*
X139204870Y-74181575D01*
X139224165Y-74176972D01*
X139224812Y-74176981D01*
X139256133Y-74174405D01*
X139292260Y-74166524D01*
X139324160Y-74155707D01*
X139340425Y-74146652D01*
X139350630Y-74142067D01*
X139362116Y-74146959D01*
G37*
G36*
X139454939Y-74679298D02*
G01*
X139452451Y-74689290D01*
X139441940Y-74709648D01*
X139438731Y-74715051D01*
X139408349Y-74750293D01*
X139365675Y-74781588D01*
X139318792Y-74803549D01*
X139297557Y-74809123D01*
X139265661Y-74811254D01*
X139238558Y-74801763D01*
X139224604Y-74792957D01*
X139190614Y-74769666D01*
X139250830Y-74742303D01*
X139288349Y-74727942D01*
X139324033Y-74718697D01*
X139345287Y-74716630D01*
X139377831Y-74712249D01*
X139411910Y-74699118D01*
X139415513Y-74697089D01*
X139438662Y-74684627D01*
X139453133Y-74679084D01*
X139454939Y-74679298D01*
G37*
G36*
X139217376Y-73945813D02*
G01*
X139235902Y-73964071D01*
X139247384Y-73980426D01*
X139273248Y-74019508D01*
X139238440Y-74018354D01*
X139200794Y-74008472D01*
X139180741Y-73994002D01*
X139165728Y-73977427D01*
X139164632Y-73967545D01*
X139176834Y-73956699D01*
X139177675Y-73956074D01*
X139199590Y-73943714D01*
X139217376Y-73945813D01*
G37*
G36*
X137942588Y-72909123D02*
G01*
X137995898Y-72920772D01*
X138050636Y-72941979D01*
X138111408Y-72974465D01*
X138169731Y-73011224D01*
X138211992Y-73040337D01*
X138262965Y-73077352D01*
X138320641Y-73120638D01*
X138383013Y-73168567D01*
X138448073Y-73219511D01*
X138513813Y-73271839D01*
X138578225Y-73323922D01*
X138639303Y-73374132D01*
X138695037Y-73420840D01*
X138743421Y-73462415D01*
X138782447Y-73497230D01*
X138810106Y-73523655D01*
X138824392Y-73540061D01*
X138825924Y-73543675D01*
X138817364Y-73551453D01*
X138805497Y-73553245D01*
X138788862Y-73546859D01*
X138785071Y-73537926D01*
X138784359Y-73528065D01*
X138779545Y-73524151D01*
X138766610Y-73526701D01*
X138741535Y-73536230D01*
X138715825Y-73546825D01*
X138672628Y-73562130D01*
X138622274Y-73576288D01*
X138588342Y-73583751D01*
X138551495Y-73591904D01*
X138525123Y-73600328D01*
X138511657Y-73607747D01*
X138513526Y-73612891D01*
X138529587Y-73614524D01*
X138548075Y-73617999D01*
X138580257Y-73627343D01*
X138620821Y-73640932D01*
X138646500Y-73650270D01*
X138698449Y-73669122D01*
X138734541Y-73680471D01*
X138757689Y-73684876D01*
X138770804Y-73682896D01*
X138776735Y-73675279D01*
X138787340Y-73673229D01*
X138812167Y-73680263D01*
X138839477Y-73691627D01*
X138872218Y-73705986D01*
X138892258Y-73712058D01*
X138905212Y-73710601D01*
X138916696Y-73702371D01*
X138917025Y-73702074D01*
X138939423Y-73692190D01*
X138969030Y-73697981D01*
X139007649Y-73719955D01*
X139024890Y-73732523D01*
X139053871Y-73757717D01*
X139064689Y-73776624D01*
X139057693Y-73791592D01*
X139035517Y-73804031D01*
X139008026Y-73814949D01*
X138994391Y-73817560D01*
X138989780Y-73811809D01*
X138989333Y-73803508D01*
X138986641Y-73795617D01*
X138975672Y-73795160D01*
X138952089Y-73802488D01*
X138938268Y-73807633D01*
X138887202Y-73827037D01*
X138887202Y-73802485D01*
X138883685Y-73784541D01*
X138871490Y-73779739D01*
X138848148Y-73788128D01*
X138820817Y-73803733D01*
X138784410Y-73821747D01*
X138753635Y-73828865D01*
X138732198Y-73824891D01*
X138723805Y-73809631D01*
X138723793Y-73808830D01*
X138722701Y-73799419D01*
X138716904Y-73795583D01*
X138702616Y-73797767D01*
X138676053Y-73806418D01*
X138643392Y-73818305D01*
X138597980Y-73833668D01*
X138568650Y-73840115D01*
X138553322Y-73838072D01*
X138552138Y-73837095D01*
X138536248Y-73831566D01*
X138506483Y-73835185D01*
X138495245Y-73837833D01*
X138463043Y-73845719D01*
X138445909Y-73848364D01*
X138439089Y-73845457D01*
X138437829Y-73836692D01*
X138437826Y-73834106D01*
X138431912Y-73820521D01*
X138426859Y-73818786D01*
X138414065Y-73821379D01*
X138386071Y-73828350D01*
X138347325Y-73838488D01*
X138302274Y-73850584D01*
X138255365Y-73863425D01*
X138211045Y-73875801D01*
X138173761Y-73886502D01*
X138147960Y-73894317D01*
X138141645Y-73896437D01*
X138133980Y-73904332D01*
X138141798Y-73914195D01*
X138160651Y-73923529D01*
X138186090Y-73929835D01*
X138203437Y-73931130D01*
X138234098Y-73936042D01*
X138273051Y-73948907D01*
X138300396Y-73961142D01*
X138332917Y-73976888D01*
X138352449Y-73983721D01*
X138363912Y-73982551D01*
X138372121Y-73974432D01*
X138379526Y-73967297D01*
X138390479Y-73965477D01*
X138408968Y-73969794D01*
X138438981Y-73981068D01*
X138472811Y-73995159D01*
X138515970Y-74012689D01*
X138543921Y-74021940D01*
X138559768Y-74023679D01*
X138566617Y-74018675D01*
X138566725Y-74018404D01*
X138580214Y-74002005D01*
X138604259Y-73999074D01*
X138640865Y-74009599D01*
X138659912Y-74017775D01*
X138700772Y-74035082D01*
X138726714Y-74042162D01*
X138740331Y-74039298D01*
X138744219Y-74027048D01*
X138751739Y-74016217D01*
X138772255Y-74017190D01*
X138802700Y-74029151D01*
X138840009Y-74051286D01*
X138842949Y-74053299D01*
X138869710Y-74070322D01*
X138886752Y-74075969D01*
X138900126Y-74071847D01*
X138903678Y-74069425D01*
X138916019Y-74063592D01*
X138930948Y-74065800D01*
X138953555Y-74077652D01*
X138976206Y-74092231D01*
X139006361Y-74113694D01*
X139021698Y-74129342D01*
X139025401Y-74143005D01*
X139024061Y-74149731D01*
X139005597Y-74183954D01*
X138976878Y-74210414D01*
X138963801Y-74217020D01*
X138948418Y-74219117D01*
X138940585Y-74206807D01*
X138938268Y-74196105D01*
X138933161Y-74167466D01*
X138859116Y-74201858D01*
X138822370Y-74218534D01*
X138800287Y-74226956D01*
X138789187Y-74227853D01*
X138785386Y-74221949D01*
X138785071Y-74216461D01*
X138783346Y-74201760D01*
X138775527Y-74198245D01*
X138757646Y-74206075D01*
X138737029Y-74218385D01*
X138707034Y-74232676D01*
X138675946Y-74235786D01*
X138655973Y-74233804D01*
X138608879Y-74233480D01*
X138580617Y-74242730D01*
X138543455Y-74256172D01*
X138515417Y-74254211D01*
X138500946Y-74241178D01*
X138494431Y-74234102D01*
X138483508Y-74233574D01*
X138464370Y-74240732D01*
X138433209Y-74256711D01*
X138414300Y-74267055D01*
X138337040Y-74309703D01*
X138333814Y-74280151D01*
X138330588Y-74250599D01*
X138228457Y-74291604D01*
X138179342Y-74309730D01*
X138130380Y-74325104D01*
X138088696Y-74335606D01*
X138070154Y-74338685D01*
X138039412Y-74343687D01*
X138019008Y-74350220D01*
X138013982Y-74354974D01*
X138022998Y-74362499D01*
X138047223Y-74374348D01*
X138082427Y-74388582D01*
X138105900Y-74397061D01*
X138154998Y-74414812D01*
X138204868Y-74434033D01*
X138246782Y-74451329D01*
X138256834Y-74455787D01*
X138295333Y-74472592D01*
X138319036Y-74480578D01*
X138331305Y-74480279D01*
X138335505Y-74472226D01*
X138335695Y-74468282D01*
X138340960Y-74463616D01*
X138358204Y-74465770D01*
X138389595Y-74475273D01*
X138437304Y-74492654D01*
X138440353Y-74493814D01*
X138482782Y-74509902D01*
X138517441Y-74522884D01*
X138540347Y-74531280D01*
X138547590Y-74533704D01*
X138549532Y-74524934D01*
X138550170Y-74508171D01*
X138551992Y-74488957D01*
X138555479Y-74482638D01*
X138566947Y-74486206D01*
X138591852Y-74495549D01*
X138624153Y-74508385D01*
X138667449Y-74523876D01*
X138695455Y-74528425D01*
X138710127Y-74522040D01*
X138713580Y-74508685D01*
X138718083Y-74502833D01*
X138733327Y-74506328D01*
X138761911Y-74519978D01*
X138778260Y-74528790D01*
X138810614Y-74546183D01*
X138835539Y-74558852D01*
X138848089Y-74564293D01*
X138848475Y-74564343D01*
X138854069Y-74555534D01*
X138860033Y-74534202D01*
X138860298Y-74532900D01*
X138866587Y-74501457D01*
X138921544Y-74532900D01*
X138955685Y-74552017D01*
X138975888Y-74561329D01*
X138985797Y-74561429D01*
X138989055Y-74552909D01*
X138989333Y-74543917D01*
X138995307Y-74526792D01*
X139011754Y-74525100D01*
X139036470Y-74538263D01*
X139065487Y-74563888D01*
X139087784Y-74588318D01*
X139096871Y-74604038D01*
X139094951Y-74615745D01*
X139091842Y-74620060D01*
X139073058Y-74633818D01*
X139055797Y-74633209D01*
X139048233Y-74623590D01*
X139038619Y-74619510D01*
X139016941Y-74630786D01*
X139012793Y-74633675D01*
X138992167Y-74647579D01*
X138982301Y-74649796D01*
X138977478Y-74640705D01*
X138976234Y-74636114D01*
X138969569Y-74623059D01*
X138955192Y-74621443D01*
X138939654Y-74625224D01*
X138908894Y-74637173D01*
X138885253Y-74650349D01*
X138860171Y-74662193D01*
X138834104Y-74666320D01*
X138813674Y-74662653D01*
X138805497Y-74651250D01*
X138801202Y-74645228D01*
X138786422Y-74647733D01*
X138758311Y-74659519D01*
X138738656Y-74668987D01*
X138697621Y-74687270D01*
X138672765Y-74693629D01*
X138664611Y-74690747D01*
X138652749Y-74687374D01*
X138625036Y-74690976D01*
X138580174Y-74701768D01*
X138555276Y-74708675D01*
X138511065Y-74721450D01*
X138473265Y-74732678D01*
X138446817Y-74740875D01*
X138437826Y-74743964D01*
X138440026Y-74749726D01*
X138459392Y-74760502D01*
X138493610Y-74775163D01*
X138529744Y-74788795D01*
X138574140Y-74803816D01*
X138610419Y-74814201D01*
X138634721Y-74818955D01*
X138643015Y-74817937D01*
X138654979Y-74816487D01*
X138680994Y-74822102D01*
X138716354Y-74833747D01*
X138718276Y-74834466D01*
X138756489Y-74848816D01*
X138779402Y-74856724D01*
X138790912Y-74858735D01*
X138794912Y-74855390D01*
X138795298Y-74847234D01*
X138795284Y-74845203D01*
X138802585Y-74832237D01*
X138822404Y-74832039D01*
X138851620Y-74844243D01*
X138866959Y-74853654D01*
X138902362Y-74875663D01*
X138924534Y-74884867D01*
X138935720Y-74881795D01*
X138938268Y-74870416D01*
X138938689Y-74857756D01*
X138942834Y-74852255D01*
X138955024Y-74853950D01*
X138979581Y-74862878D01*
X139000071Y-74870943D01*
X139052416Y-74891576D01*
X139057812Y-74870943D01*
X139070727Y-74854930D01*
X139092532Y-74850411D01*
X139114648Y-74858292D01*
X139120974Y-74864269D01*
X139124578Y-74873964D01*
X139114113Y-74881646D01*
X139089032Y-74889148D01*
X139064466Y-74893975D01*
X139023977Y-74900433D01*
X138971943Y-74907886D01*
X138912741Y-74915701D01*
X138866776Y-74921357D01*
X138774524Y-74932875D01*
X138699398Y-74943632D01*
X138638152Y-74954341D01*
X138587538Y-74965713D01*
X138544311Y-74978463D01*
X138505223Y-74993301D01*
X138473864Y-75007584D01*
X138395977Y-75051179D01*
X138327879Y-75102704D01*
X138266425Y-75165322D01*
X138208467Y-75242195D01*
X138156506Y-75326511D01*
X138102629Y-75432036D01*
X138055923Y-75547789D01*
X138015935Y-75675532D01*
X137982214Y-75817023D01*
X137954311Y-75974023D01*
X137931774Y-76148290D01*
X137922665Y-76239293D01*
X137914466Y-76330974D01*
X137907442Y-76415269D01*
X137901456Y-76495112D01*
X137896372Y-76573435D01*
X137892054Y-76653173D01*
X137888365Y-76737258D01*
X137885170Y-76828623D01*
X137882331Y-76930203D01*
X137879714Y-77044930D01*
X137877181Y-77175738D01*
X137875953Y-77245284D01*
X137873963Y-77350381D01*
X137871713Y-77451554D01*
X137869276Y-77546526D01*
X137866724Y-77633018D01*
X137864132Y-77708752D01*
X137861573Y-77771451D01*
X137859121Y-77818836D01*
X137856849Y-77848630D01*
X137856332Y-77852964D01*
X137838787Y-77960123D01*
X137818160Y-78047208D01*
X137794460Y-78114189D01*
X137767699Y-78161035D01*
X137737889Y-78187718D01*
X137732571Y-78190224D01*
X137690692Y-78197623D01*
X137649951Y-78184732D01*
X137610374Y-78151655D01*
X137571985Y-78098499D01*
X137534809Y-78025369D01*
X137498872Y-77932371D01*
X137464198Y-77819610D01*
X137430813Y-77687192D01*
X137398741Y-77535221D01*
X137368008Y-77363804D01*
X137338637Y-77173046D01*
X137310656Y-76963053D01*
X137284088Y-76733929D01*
X137258958Y-76485781D01*
X137235292Y-76218714D01*
X137220318Y-76029924D01*
X137217199Y-75976567D01*
X137214495Y-75905849D01*
X137212205Y-75820269D01*
X137210329Y-75722327D01*
X137208867Y-75614521D01*
X137207819Y-75499352D01*
X137207185Y-75379318D01*
X137206964Y-75256920D01*
X137207156Y-75134655D01*
X137207761Y-75015024D01*
X137208779Y-74900526D01*
X137210209Y-74793659D01*
X137212052Y-74696924D01*
X137214307Y-74612820D01*
X137216974Y-74543846D01*
X137220052Y-74492501D01*
X137220441Y-74487745D01*
X137243361Y-74253035D01*
X137270692Y-74038018D01*
X137302508Y-73842426D01*
X137338880Y-73665991D01*
X137379881Y-73508446D01*
X137425583Y-73369524D01*
X137476058Y-73248956D01*
X137531378Y-73146475D01*
X137591617Y-73061814D01*
X137612059Y-73038316D01*
X137676716Y-72977526D01*
X137742638Y-72935910D01*
X137812331Y-72912252D01*
X137886103Y-72905312D01*
X137942588Y-72909123D01*
G37*
%TD*%
M02*
