%TF.GenerationSoftware,KiCad,Pcbnew,9.0.1*%
%TF.CreationDate,2025-05-11T14:39:04+02:00*%
%TF.ProjectId,Freilab_Blinkies_Tab,46726569-6c61-4625-9f42-6c696e6b6965,rev?*%
%TF.SameCoordinates,Original*%
%TF.FileFunction,Legend,Bot*%
%TF.FilePolarity,Positive*%
%FSLAX46Y46*%
G04 Gerber Fmt 4.6, Leading zero omitted, Abs format (unit mm)*
G04 Created by KiCad (PCBNEW 9.0.1) date 2025-05-11 14:39:04*
%MOMM*%
%LPD*%
G01*
G04 APERTURE LIST*
%ADD10C,0.000000*%
G04 APERTURE END LIST*
D10*
%TO.C,G\u002A\u002A\u002A*%
G36*
X136678446Y-73956074D02*
G01*
X136679287Y-73956699D01*
X136691489Y-73967545D01*
X136690393Y-73977427D01*
X136675380Y-73994002D01*
X136655327Y-74008472D01*
X136617681Y-74018354D01*
X136582873Y-74019508D01*
X136608737Y-73980426D01*
X136620219Y-73964071D01*
X136638745Y-73945813D01*
X136656531Y-73943714D01*
X136678446Y-73956074D01*
G37*
G36*
X136417459Y-74684627D02*
G01*
X136440608Y-74697089D01*
X136444211Y-74699118D01*
X136478290Y-74712249D01*
X136510834Y-74716630D01*
X136532088Y-74718697D01*
X136567772Y-74727942D01*
X136605291Y-74742303D01*
X136665507Y-74769666D01*
X136631517Y-74792957D01*
X136617563Y-74801763D01*
X136590460Y-74811254D01*
X136558564Y-74809123D01*
X136537329Y-74803549D01*
X136490446Y-74781588D01*
X136447772Y-74750293D01*
X136417390Y-74715051D01*
X136414181Y-74709648D01*
X136403670Y-74689290D01*
X136401182Y-74679298D01*
X136402988Y-74679084D01*
X136417459Y-74684627D01*
G37*
G36*
X136515696Y-74146652D02*
G01*
X136531961Y-74155707D01*
X136563861Y-74166524D01*
X136599988Y-74174405D01*
X136631309Y-74176981D01*
X136631956Y-74176972D01*
X136651251Y-74181575D01*
X136677647Y-74192895D01*
X136704602Y-74207425D01*
X136725573Y-74221653D01*
X136734017Y-74232071D01*
X136730373Y-74236333D01*
X136713987Y-74249563D01*
X136688884Y-74267595D01*
X136674416Y-74277082D01*
X136650023Y-74289039D01*
X136639592Y-74286175D01*
X136638699Y-74284100D01*
X136628773Y-74280938D01*
X136607839Y-74291783D01*
X136606572Y-74292600D01*
X136584979Y-74302994D01*
X136570669Y-74303947D01*
X136566219Y-74303136D01*
X136546635Y-74307597D01*
X136519892Y-74319050D01*
X136478689Y-74340070D01*
X136478689Y-74319436D01*
X136477892Y-74306800D01*
X136472480Y-74300346D01*
X136458749Y-74306198D01*
X136433050Y-74324784D01*
X136420991Y-74333499D01*
X136402636Y-74342507D01*
X136394345Y-74337550D01*
X136392753Y-74325767D01*
X136397945Y-74303560D01*
X136412843Y-74271454D01*
X136438729Y-74226234D01*
X136458262Y-74194409D01*
X136479006Y-74163637D01*
X136494005Y-74146959D01*
X136505491Y-74142067D01*
X136515696Y-74146652D01*
G37*
G36*
X136435582Y-74401351D02*
G01*
X136450606Y-74412241D01*
X136463769Y-74416146D01*
X136473615Y-74407723D01*
X136478387Y-74402040D01*
X136490052Y-74398176D01*
X136509703Y-74406706D01*
X136531738Y-74415564D01*
X136562345Y-74420998D01*
X136582211Y-74423870D01*
X136596243Y-74431739D01*
X136599027Y-74434967D01*
X136611916Y-74436397D01*
X136612311Y-74436196D01*
X136626091Y-74438298D01*
X136649171Y-74447793D01*
X136674460Y-74461002D01*
X136694867Y-74474243D01*
X136703299Y-74483834D01*
X136702812Y-74485869D01*
X136691803Y-74497578D01*
X136671164Y-74511910D01*
X136647393Y-74525149D01*
X136626985Y-74533583D01*
X136616438Y-74533496D01*
X136610450Y-74529005D01*
X136591154Y-74533639D01*
X136577853Y-74538343D01*
X136556853Y-74537998D01*
X136538587Y-74538883D01*
X136515209Y-74549455D01*
X136503940Y-74556321D01*
X136487157Y-74561006D01*
X136472361Y-74553116D01*
X136463708Y-74547197D01*
X136451517Y-74548151D01*
X136435771Y-74564358D01*
X136423351Y-74578510D01*
X136413981Y-74582164D01*
X136405835Y-74571758D01*
X136399356Y-74562136D01*
X136389446Y-74560209D01*
X136370984Y-74570695D01*
X136345919Y-74587118D01*
X136346814Y-74547645D01*
X136347011Y-74540205D01*
X136350510Y-74485576D01*
X136356981Y-74443198D01*
X136365853Y-74415781D01*
X136376558Y-74406040D01*
X136383489Y-74404916D01*
X136400178Y-74393036D01*
X136403457Y-74389125D01*
X136415224Y-74388147D01*
X136435582Y-74401351D01*
G37*
G36*
X138043790Y-72912252D02*
G01*
X138113483Y-72935910D01*
X138179405Y-72977526D01*
X138244062Y-73038316D01*
X138264504Y-73061814D01*
X138324743Y-73146475D01*
X138380063Y-73248956D01*
X138430538Y-73369524D01*
X138476240Y-73508446D01*
X138517241Y-73665991D01*
X138553613Y-73842426D01*
X138585429Y-74038018D01*
X138612760Y-74253035D01*
X138635680Y-74487745D01*
X138636069Y-74492501D01*
X138639147Y-74543846D01*
X138641814Y-74612820D01*
X138644069Y-74696924D01*
X138645912Y-74793659D01*
X138647342Y-74900526D01*
X138648360Y-75015024D01*
X138648965Y-75134655D01*
X138649157Y-75256920D01*
X138648936Y-75379318D01*
X138648302Y-75499352D01*
X138647254Y-75614521D01*
X138645792Y-75722327D01*
X138643916Y-75820269D01*
X138641626Y-75905849D01*
X138638922Y-75976567D01*
X138635803Y-76029924D01*
X138620829Y-76218714D01*
X138597163Y-76485781D01*
X138572033Y-76733929D01*
X138545465Y-76963053D01*
X138517484Y-77173046D01*
X138488113Y-77363804D01*
X138457380Y-77535221D01*
X138425308Y-77687192D01*
X138391923Y-77819610D01*
X138357249Y-77932371D01*
X138321312Y-78025369D01*
X138284136Y-78098499D01*
X138245747Y-78151655D01*
X138206170Y-78184732D01*
X138165429Y-78197623D01*
X138123550Y-78190224D01*
X138118232Y-78187718D01*
X138088422Y-78161035D01*
X138061661Y-78114189D01*
X138037961Y-78047208D01*
X138017334Y-77960123D01*
X137999789Y-77852964D01*
X137999272Y-77848630D01*
X137997000Y-77818836D01*
X137994548Y-77771451D01*
X137991989Y-77708752D01*
X137989397Y-77633018D01*
X137986845Y-77546526D01*
X137984408Y-77451554D01*
X137982158Y-77350381D01*
X137980168Y-77245284D01*
X137978940Y-77175738D01*
X137976407Y-77044930D01*
X137973790Y-76930203D01*
X137970951Y-76828623D01*
X137967756Y-76737258D01*
X137964067Y-76653173D01*
X137959749Y-76573435D01*
X137954665Y-76495112D01*
X137948679Y-76415269D01*
X137941655Y-76330974D01*
X137933456Y-76239293D01*
X137924347Y-76148290D01*
X137901810Y-75974023D01*
X137873907Y-75817023D01*
X137840186Y-75675532D01*
X137800198Y-75547789D01*
X137753492Y-75432036D01*
X137699615Y-75326511D01*
X137647654Y-75242195D01*
X137589696Y-75165322D01*
X137528242Y-75102704D01*
X137460144Y-75051179D01*
X137382257Y-75007584D01*
X137350898Y-74993301D01*
X137311810Y-74978463D01*
X137268583Y-74965713D01*
X137217969Y-74954341D01*
X137156723Y-74943632D01*
X137081597Y-74932875D01*
X136989345Y-74921357D01*
X136943380Y-74915701D01*
X136884178Y-74907886D01*
X136832144Y-74900433D01*
X136791655Y-74893975D01*
X136767089Y-74889148D01*
X136742008Y-74881646D01*
X136731543Y-74873964D01*
X136735147Y-74864269D01*
X136741473Y-74858292D01*
X136763589Y-74850411D01*
X136785394Y-74854930D01*
X136798309Y-74870943D01*
X136803705Y-74891576D01*
X136856050Y-74870943D01*
X136876540Y-74862878D01*
X136901097Y-74853950D01*
X136913287Y-74852255D01*
X136917432Y-74857756D01*
X136917853Y-74870416D01*
X136920401Y-74881795D01*
X136931587Y-74884867D01*
X136953759Y-74875663D01*
X136989162Y-74853654D01*
X137004501Y-74844243D01*
X137033717Y-74832039D01*
X137053536Y-74832237D01*
X137060837Y-74845203D01*
X137060823Y-74847234D01*
X137061209Y-74855390D01*
X137065209Y-74858735D01*
X137076719Y-74856724D01*
X137099632Y-74848816D01*
X137137845Y-74834466D01*
X137139767Y-74833747D01*
X137175127Y-74822102D01*
X137201142Y-74816487D01*
X137213106Y-74817937D01*
X137221400Y-74818955D01*
X137245702Y-74814201D01*
X137281981Y-74803816D01*
X137326377Y-74788795D01*
X137362511Y-74775163D01*
X137396729Y-74760502D01*
X137416095Y-74749726D01*
X137418295Y-74743964D01*
X137409304Y-74740875D01*
X137382856Y-74732678D01*
X137345056Y-74721450D01*
X137300845Y-74708675D01*
X137275947Y-74701768D01*
X137231085Y-74690976D01*
X137203372Y-74687374D01*
X137191510Y-74690747D01*
X137183356Y-74693629D01*
X137158500Y-74687270D01*
X137117465Y-74668987D01*
X137097810Y-74659519D01*
X137069699Y-74647733D01*
X137054919Y-74645228D01*
X137050624Y-74651250D01*
X137042447Y-74662653D01*
X137022017Y-74666320D01*
X136995950Y-74662193D01*
X136970868Y-74650349D01*
X136947227Y-74637173D01*
X136916467Y-74625224D01*
X136900929Y-74621443D01*
X136886552Y-74623059D01*
X136879887Y-74636114D01*
X136878643Y-74640705D01*
X136873820Y-74649796D01*
X136863954Y-74647579D01*
X136843328Y-74633675D01*
X136839180Y-74630786D01*
X136817502Y-74619510D01*
X136807888Y-74623590D01*
X136800324Y-74633209D01*
X136783063Y-74633818D01*
X136764279Y-74620060D01*
X136761170Y-74615745D01*
X136759250Y-74604038D01*
X136768337Y-74588318D01*
X136790634Y-74563888D01*
X136819651Y-74538263D01*
X136844367Y-74525100D01*
X136860814Y-74526792D01*
X136866788Y-74543917D01*
X136867066Y-74552909D01*
X136870324Y-74561429D01*
X136880233Y-74561329D01*
X136900436Y-74552017D01*
X136934577Y-74532900D01*
X136989534Y-74501457D01*
X136995823Y-74532900D01*
X136996088Y-74534202D01*
X137002052Y-74555534D01*
X137007646Y-74564343D01*
X137008032Y-74564293D01*
X137020582Y-74558852D01*
X137045507Y-74546183D01*
X137077861Y-74528790D01*
X137094210Y-74519978D01*
X137122794Y-74506328D01*
X137138038Y-74502833D01*
X137142541Y-74508685D01*
X137145994Y-74522040D01*
X137160666Y-74528425D01*
X137188672Y-74523876D01*
X137231968Y-74508385D01*
X137264269Y-74495549D01*
X137289174Y-74486206D01*
X137300642Y-74482638D01*
X137304129Y-74488957D01*
X137305951Y-74508171D01*
X137306589Y-74524934D01*
X137308531Y-74533704D01*
X137315774Y-74531280D01*
X137338680Y-74522884D01*
X137373339Y-74509902D01*
X137415768Y-74493814D01*
X137418817Y-74492654D01*
X137466526Y-74475273D01*
X137497917Y-74465770D01*
X137515161Y-74463616D01*
X137520426Y-74468282D01*
X137520616Y-74472226D01*
X137524816Y-74480279D01*
X137537085Y-74480578D01*
X137560788Y-74472592D01*
X137599287Y-74455787D01*
X137609339Y-74451329D01*
X137651253Y-74434033D01*
X137701123Y-74414812D01*
X137750221Y-74397061D01*
X137773694Y-74388582D01*
X137808898Y-74374348D01*
X137833123Y-74362499D01*
X137842139Y-74354974D01*
X137837113Y-74350220D01*
X137816709Y-74343687D01*
X137785967Y-74338685D01*
X137767425Y-74335606D01*
X137725741Y-74325104D01*
X137676779Y-74309730D01*
X137627664Y-74291604D01*
X137525533Y-74250599D01*
X137522307Y-74280151D01*
X137519081Y-74309703D01*
X137441821Y-74267055D01*
X137422912Y-74256711D01*
X137391751Y-74240732D01*
X137372613Y-74233574D01*
X137361690Y-74234102D01*
X137355175Y-74241178D01*
X137340704Y-74254211D01*
X137312666Y-74256172D01*
X137275504Y-74242730D01*
X137247242Y-74233480D01*
X137200148Y-74233804D01*
X137180175Y-74235786D01*
X137149087Y-74232676D01*
X137119092Y-74218385D01*
X137098475Y-74206075D01*
X137080594Y-74198245D01*
X137072775Y-74201760D01*
X137071050Y-74216461D01*
X137070735Y-74221949D01*
X137066934Y-74227853D01*
X137055834Y-74226956D01*
X137033751Y-74218534D01*
X136997005Y-74201858D01*
X136922960Y-74167466D01*
X136917853Y-74196105D01*
X136915536Y-74206807D01*
X136907703Y-74219117D01*
X136892320Y-74217020D01*
X136879243Y-74210414D01*
X136850524Y-74183954D01*
X136832060Y-74149731D01*
X136830720Y-74143005D01*
X136834423Y-74129342D01*
X136849760Y-74113694D01*
X136879915Y-74092231D01*
X136902566Y-74077652D01*
X136925173Y-74065800D01*
X136940102Y-74063592D01*
X136952443Y-74069425D01*
X136955995Y-74071847D01*
X136969369Y-74075969D01*
X136986411Y-74070322D01*
X137013172Y-74053299D01*
X137016112Y-74051286D01*
X137053421Y-74029151D01*
X137083866Y-74017190D01*
X137104382Y-74016217D01*
X137111902Y-74027048D01*
X137115790Y-74039298D01*
X137129407Y-74042162D01*
X137155349Y-74035082D01*
X137196209Y-74017775D01*
X137215256Y-74009599D01*
X137251862Y-73999074D01*
X137275907Y-74002005D01*
X137289396Y-74018404D01*
X137289504Y-74018675D01*
X137296353Y-74023679D01*
X137312200Y-74021940D01*
X137340151Y-74012689D01*
X137383310Y-73995159D01*
X137417140Y-73981068D01*
X137447153Y-73969794D01*
X137465642Y-73965477D01*
X137476595Y-73967297D01*
X137484000Y-73974432D01*
X137492209Y-73982551D01*
X137503672Y-73983721D01*
X137523204Y-73976888D01*
X137555725Y-73961142D01*
X137583070Y-73948907D01*
X137622023Y-73936042D01*
X137652684Y-73931130D01*
X137670031Y-73929835D01*
X137695470Y-73923529D01*
X137714323Y-73914195D01*
X137722141Y-73904332D01*
X137714476Y-73896437D01*
X137708161Y-73894317D01*
X137682360Y-73886502D01*
X137645076Y-73875801D01*
X137600756Y-73863425D01*
X137553847Y-73850584D01*
X137508796Y-73838488D01*
X137470050Y-73828350D01*
X137442056Y-73821379D01*
X137429262Y-73818786D01*
X137424209Y-73820521D01*
X137418295Y-73834106D01*
X137418292Y-73836692D01*
X137417032Y-73845457D01*
X137410212Y-73848364D01*
X137393078Y-73845719D01*
X137360876Y-73837833D01*
X137349638Y-73835185D01*
X137319873Y-73831566D01*
X137303983Y-73837095D01*
X137302799Y-73838072D01*
X137287471Y-73840115D01*
X137258141Y-73833668D01*
X137212729Y-73818305D01*
X137180068Y-73806418D01*
X137153505Y-73797767D01*
X137139217Y-73795583D01*
X137133420Y-73799419D01*
X137132328Y-73808830D01*
X137132316Y-73809631D01*
X137123923Y-73824891D01*
X137102486Y-73828865D01*
X137071711Y-73821747D01*
X137035304Y-73803733D01*
X137007973Y-73788128D01*
X136984631Y-73779739D01*
X136972436Y-73784541D01*
X136968919Y-73802485D01*
X136968919Y-73827037D01*
X136917853Y-73807633D01*
X136904032Y-73802488D01*
X136880449Y-73795160D01*
X136869480Y-73795617D01*
X136866788Y-73803508D01*
X136866341Y-73811809D01*
X136861730Y-73817560D01*
X136848095Y-73814949D01*
X136820604Y-73804031D01*
X136798428Y-73791592D01*
X136791432Y-73776624D01*
X136802250Y-73757717D01*
X136831231Y-73732523D01*
X136848472Y-73719955D01*
X136887091Y-73697981D01*
X136916698Y-73692190D01*
X136939096Y-73702074D01*
X136939425Y-73702371D01*
X136950909Y-73710601D01*
X136963863Y-73712058D01*
X136983903Y-73705986D01*
X137016644Y-73691627D01*
X137043954Y-73680263D01*
X137068781Y-73673229D01*
X137079386Y-73675279D01*
X137085317Y-73682896D01*
X137098432Y-73684876D01*
X137121580Y-73680471D01*
X137157672Y-73669122D01*
X137209621Y-73650270D01*
X137235300Y-73640932D01*
X137275864Y-73627343D01*
X137308046Y-73617999D01*
X137326534Y-73614524D01*
X137342595Y-73612891D01*
X137344464Y-73607747D01*
X137330998Y-73600328D01*
X137304626Y-73591904D01*
X137267779Y-73583751D01*
X137233847Y-73576288D01*
X137183493Y-73562130D01*
X137140296Y-73546825D01*
X137114586Y-73536230D01*
X137089511Y-73526701D01*
X137076576Y-73524151D01*
X137071762Y-73528065D01*
X137071050Y-73537926D01*
X137067259Y-73546859D01*
X137050624Y-73553245D01*
X137038757Y-73551453D01*
X137030197Y-73543675D01*
X137031729Y-73540061D01*
X137046015Y-73523655D01*
X137073674Y-73497230D01*
X137112700Y-73462415D01*
X137161084Y-73420840D01*
X137216818Y-73374132D01*
X137277896Y-73323922D01*
X137342308Y-73271839D01*
X137408048Y-73219511D01*
X137473108Y-73168567D01*
X137535480Y-73120638D01*
X137593156Y-73077352D01*
X137644129Y-73040337D01*
X137686390Y-73011224D01*
X137744713Y-72974465D01*
X137805485Y-72941979D01*
X137860223Y-72920772D01*
X137913533Y-72909123D01*
X137970018Y-72905312D01*
X138043790Y-72912252D01*
G37*
%TD*%
M02*
